%TF.GenerationSoftware,KiCad,Pcbnew,10.0.0*%
%TF.CreationDate,2026-09-21T11:28:42+08:00*%
%TF.ProjectId,Patch_Anetnna_16_8_IPEX1_198x155,50617463-685f-4416-9e65-746e6e615f31,IPEX1-COMPACT-A1*%
%TF.SameCoordinates,Original*%
%TF.FileFunction,Copper,L4,Bot*%
%TF.FilePolarity,Positive*%
%FSLAX46Y46*%
G04 Gerber Fmt 4.6, Leading zero omitted, Abs format (unit mm)*
G04 Created by KiCad (PCBNEW 10.0.0) date 2026-09-21 11:28:42*
%MOMM*%
%LPD*%
G01*
G04 APERTURE LIST*
%TA.AperFunction,ViaPad*%
%ADD10C,0.900000*%
%TD*%
%TA.AperFunction,ViaPad*%
%ADD11C,0.800000*%
%TD*%
G04 APERTURE END LIST*
D10*
%TO.N,GND*%
X104397490Y9000000D03*
X73435146Y9000000D03*
X148748954Y9000000D03*
X146360080Y16549043D03*
D11*
X179880000Y18000000D03*
D10*
X164648536Y9000000D03*
D11*
X167880000Y18000000D03*
X23800000Y18000000D03*
D10*
X100213389Y9000000D03*
X64230126Y9000000D03*
D11*
X186200000Y18000000D03*
D10*
X157669456Y16000000D03*
X74123352Y12450956D03*
X117786611Y9000000D03*
X157669456Y13000000D03*
X11510460Y6000000D03*
X64782427Y16000000D03*
X170867220Y15887881D03*
D11*
X30200000Y18000000D03*
D10*
X88213389Y13000000D03*
X109970711Y13000000D03*
X76497908Y13000000D03*
D11*
X42200000Y18000000D03*
D10*
X121686192Y16000000D03*
D11*
X174280000Y18000000D03*
D10*
X50945858Y11395328D03*
X177200837Y9000000D03*
X129502092Y9000000D03*
X38197753Y14883725D03*
X25736402Y14000000D03*
D11*
X191800000Y18000000D03*
X155880000Y18000000D03*
X18200000Y18000000D03*
D10*
X51853051Y14093021D03*
X27410042Y18000000D03*
X61779105Y18074118D03*
X51677824Y18000000D03*
X157669456Y16000000D03*
X40799163Y9000000D03*
X111928870Y9000000D03*
X92682008Y9000000D03*
D11*
X131800000Y18000000D03*
D10*
X141217573Y9000000D03*
X181937238Y13000000D03*
X20715481Y9000000D03*
D11*
X119800000Y18000000D03*
X66200000Y18000000D03*
X83800000Y18000000D03*
D10*
X181384937Y9000000D03*
X135857288Y14194978D03*
X97935863Y11995243D03*
X61719665Y13000000D03*
X40799163Y9000000D03*
X125317992Y9000000D03*
D11*
X90200000Y18000000D03*
X143880000Y18000000D03*
D10*
X61719665Y9000000D03*
D11*
X150280000Y18000000D03*
X47800000Y18000000D03*
X35800000Y18000000D03*
D10*
X124024597Y11459206D03*
X172179916Y9000000D03*
D11*
X71800000Y18000000D03*
X102200000Y18000000D03*
D10*
X184732218Y9000000D03*
X21552301Y6000000D03*
X96866109Y9000000D03*
D11*
X11800000Y18000000D03*
D10*
X145401674Y9000000D03*
X64782427Y13000000D03*
D11*
X126200000Y18000000D03*
D10*
X14857741Y19000000D03*
D11*
X162280000Y18000000D03*
D10*
X137033473Y9000000D03*
D11*
X107800000Y18000000D03*
D10*
X29083682Y9000000D03*
X37451883Y9000000D03*
D11*
X6200000Y18000000D03*
D10*
X88497908Y9000000D03*
X160179916Y13000000D03*
X146116898Y12612440D03*
X133401674Y16000000D03*
X108581590Y9000000D03*
X157117155Y9000000D03*
X109970711Y16000000D03*
X50004184Y15000000D03*
X148464435Y13000000D03*
X76782427Y9000000D03*
X80966527Y9000000D03*
X181937238Y16000000D03*
D11*
X78200000Y18000000D03*
D10*
X69251046Y9000000D03*
X15037011Y15000000D03*
D11*
X59800000Y18000000D03*
D10*
X32430962Y9000000D03*
X62704641Y16345375D03*
X24899582Y9000000D03*
X52514644Y9000000D03*
X111776921Y11660325D03*
X172732218Y13000000D03*
X44983264Y9000000D03*
D11*
X114200000Y18000000D03*
D10*
X76497908Y16000000D03*
D11*
X95800000Y18000000D03*
D10*
X133686192Y9000000D03*
X170398143Y12349721D03*
X50004184Y9000000D03*
X84866109Y13000000D03*
X160464435Y9000000D03*
D11*
X54200000Y18000000D03*
D10*
X56698745Y9000000D03*
X13184100Y9000000D03*
X38561556Y18503868D03*
X134130305Y11727171D03*
X99928870Y13000000D03*
X121686192Y13000000D03*
X32430962Y9000000D03*
D11*
X138280000Y18000000D03*
D10*
X85150628Y9000000D03*
X193937238Y9000000D03*
X121970711Y9000000D03*
X16531381Y10000000D03*
X169669456Y9000000D03*
X188916318Y9000000D03*
X58323878Y12495484D03*
X152933054Y9000000D03*
X9000000Y9000000D03*
%TD*%
M02*
