%TF.GenerationSoftware,KiCad,Pcbnew,10.0.0*%
%TF.CreationDate,2026-09-21T11:28:42+08:00*%
%TF.ProjectId,Patch_Anetnna_16_8_IPEX1_198x155,50617463-685f-4416-9e65-746e6e615f31,IPEX1-COMPACT-A1*%
%TF.SameCoordinates,Original*%
%TF.FileFunction,Copper,L2,Inr*%
%TF.FilePolarity,Positive*%
%FSLAX46Y46*%
G04 Gerber Fmt 4.6, Leading zero omitted, Abs format (unit mm)*
G04 Created by KiCad (PCBNEW 10.0.0) date 2026-09-21 11:28:42*
%MOMM*%
%LPD*%
G01*
G04 APERTURE LIST*
%TA.AperFunction,ViaPad*%
%ADD10C,0.900000*%
%TD*%
%TA.AperFunction,ViaPad*%
%ADD11C,0.800000*%
%TD*%
G04 APERTURE END LIST*
D10*
%TO.N,GND*%
X104397490Y9000000D03*
X73435146Y9000000D03*
X148748954Y9000000D03*
X146360080Y16549043D03*
D11*
X179880000Y18000000D03*
D10*
X164648536Y9000000D03*
D11*
X167880000Y18000000D03*
X23800000Y18000000D03*
D10*
X100213389Y9000000D03*
X64230126Y9000000D03*
D11*
X186200000Y18000000D03*
D10*
X157669456Y16000000D03*
X74123352Y12450956D03*
X117786611Y9000000D03*
X157669456Y13000000D03*
X11510460Y6000000D03*
X64782427Y16000000D03*
X170867220Y15887881D03*
D11*
X30200000Y18000000D03*
D10*
X88213389Y13000000D03*
X109970711Y13000000D03*
X76497908Y13000000D03*
D11*
X42200000Y18000000D03*
D10*
X121686192Y16000000D03*
D11*
X174280000Y18000000D03*
D10*
X50945858Y11395328D03*
X177200837Y9000000D03*
X129502092Y9000000D03*
X38197753Y14883725D03*
X25736402Y14000000D03*
D11*
X191800000Y18000000D03*
X155880000Y18000000D03*
X18200000Y18000000D03*
D10*
X51853051Y14093021D03*
X27410042Y18000000D03*
X61779105Y18074118D03*
X51677824Y18000000D03*
X157669456Y16000000D03*
X40799163Y9000000D03*
X111928870Y9000000D03*
X92682008Y9000000D03*
D11*
X131800000Y18000000D03*
D10*
X141217573Y9000000D03*
X181937238Y13000000D03*
X20715481Y9000000D03*
D11*
X119800000Y18000000D03*
X66200000Y18000000D03*
X83800000Y18000000D03*
D10*
X181384937Y9000000D03*
X135857288Y14194978D03*
X97935863Y11995243D03*
X61719665Y13000000D03*
X40799163Y9000000D03*
X125317992Y9000000D03*
D11*
X90200000Y18000000D03*
X143880000Y18000000D03*
D10*
X61719665Y9000000D03*
D11*
X150280000Y18000000D03*
X47800000Y18000000D03*
X35800000Y18000000D03*
D10*
X124024597Y11459206D03*
X172179916Y9000000D03*
D11*
X71800000Y18000000D03*
X102200000Y18000000D03*
D10*
X184732218Y9000000D03*
X21552301Y6000000D03*
X96866109Y9000000D03*
D11*
X11800000Y18000000D03*
D10*
X145401674Y9000000D03*
X64782427Y13000000D03*
D11*
X126200000Y18000000D03*
D10*
X14857741Y19000000D03*
D11*
X162280000Y18000000D03*
D10*
X137033473Y9000000D03*
D11*
X107800000Y18000000D03*
D10*
X29083682Y9000000D03*
X37451883Y9000000D03*
D11*
X6200000Y18000000D03*
D10*
X88497908Y9000000D03*
X160179916Y13000000D03*
X146116898Y12612440D03*
X133401674Y16000000D03*
X108581590Y9000000D03*
X157117155Y9000000D03*
X109970711Y16000000D03*
X50004184Y15000000D03*
X148464435Y13000000D03*
X76782427Y9000000D03*
X80966527Y9000000D03*
X181937238Y16000000D03*
D11*
X78200000Y18000000D03*
D10*
X69251046Y9000000D03*
X15037011Y15000000D03*
D11*
X59800000Y18000000D03*
D10*
X32430962Y9000000D03*
X62704641Y16345375D03*
X24899582Y9000000D03*
X52514644Y9000000D03*
X111776921Y11660325D03*
X172732218Y13000000D03*
X44983264Y9000000D03*
D11*
X114200000Y18000000D03*
D10*
X76497908Y16000000D03*
D11*
X95800000Y18000000D03*
D10*
X133686192Y9000000D03*
X170398143Y12349721D03*
X50004184Y9000000D03*
X84866109Y13000000D03*
X160464435Y9000000D03*
D11*
X54200000Y18000000D03*
D10*
X56698745Y9000000D03*
X13184100Y9000000D03*
X38561556Y18503868D03*
X134130305Y11727171D03*
X99928870Y13000000D03*
X121686192Y13000000D03*
X32430962Y9000000D03*
D11*
X138280000Y18000000D03*
D10*
X85150628Y9000000D03*
X193937238Y9000000D03*
X121970711Y9000000D03*
X16531381Y10000000D03*
X169669456Y9000000D03*
X188916318Y9000000D03*
X58323878Y12495484D03*
X152933054Y9000000D03*
X9000000Y9000000D03*
%TD*%
%TA.AperFunction,Conductor*%
%TO.N,GND*%
G36*
X197373942Y154519524D02*
G01*
X197461212Y154461212D01*
X197519524Y154373942D01*
X197540000Y154271000D01*
X197540000Y519500D01*
X197519524Y416558D01*
X197461212Y329288D01*
X197373942Y270976D01*
X197271000Y250500D01*
X519500Y250500D01*
X416558Y270976D01*
X329288Y329288D01*
X270976Y416558D01*
X250500Y519500D01*
X250500Y4121288D01*
X2149500Y4121288D01*
X2149500Y3878712D01*
X2170608Y3718378D01*
X2181162Y3638209D01*
X2243945Y3403903D01*
X2243945Y3403901D01*
X2336776Y3179788D01*
X2458064Y2969711D01*
X2605735Y2777262D01*
X2777262Y2605735D01*
X2969711Y2458064D01*
X3179788Y2336776D01*
X3403900Y2243946D01*
X3638211Y2181162D01*
X3878712Y2149500D01*
X3878715Y2149500D01*
X4121284Y2149500D01*
X4121288Y2149500D01*
X4361789Y2181162D01*
X4596100Y2243946D01*
X4820212Y2336776D01*
X5030289Y2458064D01*
X5222738Y2605735D01*
X5394265Y2777262D01*
X5541936Y2969711D01*
X5663224Y3179788D01*
X5756054Y3403900D01*
X5818838Y3638211D01*
X5850500Y3878712D01*
X5850500Y4121288D01*
X192149500Y4121288D01*
X192149500Y3878712D01*
X192170608Y3718378D01*
X192181162Y3638209D01*
X192243945Y3403903D01*
X192243945Y3403901D01*
X192336776Y3179788D01*
X192458064Y2969711D01*
X192605735Y2777262D01*
X192777262Y2605735D01*
X192969711Y2458064D01*
X193179788Y2336776D01*
X193403900Y2243946D01*
X193638211Y2181162D01*
X193878712Y2149500D01*
X193878715Y2149500D01*
X194121284Y2149500D01*
X194121288Y2149500D01*
X194361789Y2181162D01*
X194596100Y2243946D01*
X194820212Y2336776D01*
X195030289Y2458064D01*
X195222738Y2605735D01*
X195394265Y2777262D01*
X195541936Y2969711D01*
X195663224Y3179788D01*
X195756054Y3403900D01*
X195818838Y3638211D01*
X195850500Y3878712D01*
X195850500Y4121288D01*
X195818838Y4361789D01*
X195756054Y4596100D01*
X195663224Y4820212D01*
X195541936Y5030289D01*
X195394265Y5222738D01*
X195222738Y5394265D01*
X195030289Y5541936D01*
X195030290Y5541936D01*
X195030288Y5541937D01*
X194820212Y5663224D01*
X194596098Y5756055D01*
X194361791Y5818838D01*
X194265588Y5831503D01*
X194121288Y5850500D01*
X193878712Y5850500D01*
X193758461Y5834669D01*
X193638208Y5818838D01*
X193403902Y5756055D01*
X193403900Y5756055D01*
X193179787Y5663224D01*
X192969711Y5541937D01*
X192777260Y5394264D01*
X192605736Y5222740D01*
X192458063Y5030289D01*
X192336776Y4820213D01*
X192243945Y4596100D01*
X192243945Y4596098D01*
X192181162Y4361792D01*
X192181162Y4361789D01*
X192149500Y4121288D01*
X5850500Y4121288D01*
X5818838Y4361789D01*
X5756054Y4596100D01*
X5663224Y4820212D01*
X5541936Y5030289D01*
X5394265Y5222738D01*
X5222738Y5394265D01*
X5030289Y5541936D01*
X5030290Y5541936D01*
X5030288Y5541937D01*
X4820212Y5663224D01*
X4596098Y5756055D01*
X4361791Y5818838D01*
X4265588Y5831503D01*
X4121288Y5850500D01*
X3878712Y5850500D01*
X3758461Y5834669D01*
X3638208Y5818838D01*
X3403902Y5756055D01*
X3403900Y5756055D01*
X3179787Y5663224D01*
X2969711Y5541937D01*
X2777260Y5394264D01*
X2605736Y5222740D01*
X2458063Y5030289D01*
X2336776Y4820213D01*
X2243945Y4596100D01*
X2243945Y4596098D01*
X2181162Y4361792D01*
X2181162Y4361789D01*
X2149500Y4121288D01*
X250500Y4121288D01*
X250500Y151121288D01*
X2149500Y151121288D01*
X2149500Y150878712D01*
X2170608Y150718378D01*
X2181162Y150638209D01*
X2243945Y150403903D01*
X2243945Y150403901D01*
X2336776Y150179788D01*
X2458064Y149969711D01*
X2605735Y149777262D01*
X2777262Y149605735D01*
X2969711Y149458064D01*
X3179788Y149336776D01*
X3403900Y149243946D01*
X3638211Y149181162D01*
X3878712Y149149500D01*
X3878715Y149149500D01*
X4121284Y149149500D01*
X4121288Y149149500D01*
X4361789Y149181162D01*
X4596100Y149243946D01*
X4820212Y149336776D01*
X5030289Y149458064D01*
X5222738Y149605735D01*
X5394265Y149777262D01*
X5541936Y149969711D01*
X5663224Y150179788D01*
X5756054Y150403900D01*
X5818838Y150638211D01*
X5850500Y150878712D01*
X5850500Y151121288D01*
X192149500Y151121288D01*
X192149500Y150878712D01*
X192170608Y150718378D01*
X192181162Y150638209D01*
X192243945Y150403903D01*
X192243945Y150403901D01*
X192336776Y150179788D01*
X192458064Y149969711D01*
X192605735Y149777262D01*
X192777262Y149605735D01*
X192969711Y149458064D01*
X193179788Y149336776D01*
X193403900Y149243946D01*
X193638211Y149181162D01*
X193878712Y149149500D01*
X193878715Y149149500D01*
X194121284Y149149500D01*
X194121288Y149149500D01*
X194361789Y149181162D01*
X194596100Y149243946D01*
X194820212Y149336776D01*
X195030289Y149458064D01*
X195222738Y149605735D01*
X195394265Y149777262D01*
X195541936Y149969711D01*
X195663224Y150179788D01*
X195756054Y150403900D01*
X195818838Y150638211D01*
X195850500Y150878712D01*
X195850500Y151121288D01*
X195818838Y151361789D01*
X195756054Y151596100D01*
X195663224Y151820212D01*
X195541936Y152030289D01*
X195394265Y152222738D01*
X195222738Y152394265D01*
X195030289Y152541936D01*
X195030290Y152541936D01*
X195030288Y152541937D01*
X194820212Y152663224D01*
X194596098Y152756055D01*
X194361791Y152818838D01*
X194265588Y152831503D01*
X194121288Y152850500D01*
X193878712Y152850500D01*
X193758461Y152834669D01*
X193638208Y152818838D01*
X193403902Y152756055D01*
X193403900Y152756055D01*
X193179787Y152663224D01*
X192969711Y152541937D01*
X192777260Y152394264D01*
X192605736Y152222740D01*
X192458063Y152030289D01*
X192336776Y151820213D01*
X192243945Y151596100D01*
X192243945Y151596098D01*
X192181162Y151361792D01*
X192181162Y151361789D01*
X192149500Y151121288D01*
X5850500Y151121288D01*
X5818838Y151361789D01*
X5756054Y151596100D01*
X5663224Y151820212D01*
X5541936Y152030289D01*
X5394265Y152222738D01*
X5222738Y152394265D01*
X5030289Y152541936D01*
X5030290Y152541936D01*
X5030288Y152541937D01*
X4820212Y152663224D01*
X4596098Y152756055D01*
X4361791Y152818838D01*
X4265588Y152831503D01*
X4121288Y152850500D01*
X3878712Y152850500D01*
X3758461Y152834669D01*
X3638208Y152818838D01*
X3403902Y152756055D01*
X3403900Y152756055D01*
X3179787Y152663224D01*
X2969711Y152541937D01*
X2777260Y152394264D01*
X2605736Y152222740D01*
X2458063Y152030289D01*
X2336776Y151820213D01*
X2243945Y151596100D01*
X2243945Y151596098D01*
X2181162Y151361792D01*
X2181162Y151361789D01*
X2149500Y151121288D01*
X250500Y151121288D01*
X250500Y154271000D01*
X270976Y154373942D01*
X329288Y154461212D01*
X416558Y154519524D01*
X519500Y154540000D01*
X197271000Y154540000D01*
X197373942Y154519524D01*
G37*
%TD.AperFunction*%
%TD*%
M02*
