%TF.GenerationSoftware,KiCad,Pcbnew,10.0.0*%
%TF.CreationDate,2026-09-21T11:28:42+08:00*%
%TF.ProjectId,Patch_Anetnna_16_8_IPEX1_198x155,50617463-685f-4416-9e65-746e6e615f31,IPEX1-COMPACT-A1*%
%TF.SameCoordinates,Original*%
%TF.FileFunction,Copper,L1,Top*%
%TF.FilePolarity,Positive*%
%FSLAX46Y46*%
G04 Gerber Fmt 4.6, Leading zero omitted, Abs format (unit mm)*
G04 Created by KiCad (PCBNEW 10.0.0) date 2026-09-21 11:28:42*
%MOMM*%
%LPD*%
G01*
G04 APERTURE LIST*
%TA.AperFunction,SMDPad,CuDef*%
%ADD10R,1.000000X1.050000*%
%TD*%
%TA.AperFunction,SMDPad,CuDef*%
%ADD11R,1.050000X2.200000*%
%TD*%
%TA.AperFunction,ViaPad*%
%ADD12C,0.900000*%
%TD*%
%TA.AperFunction,ViaPad*%
%ADD13C,0.800000*%
%TD*%
%TA.AperFunction,Conductor*%
%ADD14C,1.080000*%
%TD*%
%TA.AperFunction,Conductor*%
%ADD15C,1.000000*%
%TD*%
%TA.AperFunction,Conductor*%
%ADD16C,0.400000*%
%TD*%
G04 APERTURE END LIST*
%TA.AperFunction,Conductor*%
%TO.N,N$17*%
G36*
X5070000Y142080000D02*
G01*
X12930000Y142080000D01*
X12930000Y134720000D01*
X5070000Y134720000D01*
X5070000Y142080000D01*
G37*
%TD.AperFunction*%
%TA.AperFunction,Conductor*%
G36*
X5070000Y127090000D02*
G01*
X12930000Y127090000D01*
X12930000Y119730000D01*
X5070000Y119730000D01*
X5070000Y127090000D01*
G37*
%TD.AperFunction*%
%TA.AperFunction,Conductor*%
G36*
X5070000Y112100000D02*
G01*
X12930000Y112100000D01*
X12930000Y104740000D01*
X5070000Y104740000D01*
X5070000Y112100000D01*
G37*
%TD.AperFunction*%
%TA.AperFunction,Conductor*%
G36*
X5070000Y97110000D02*
G01*
X12930000Y97110000D01*
X12930000Y89750000D01*
X5070000Y89750000D01*
X5070000Y97110000D01*
G37*
%TD.AperFunction*%
%TA.AperFunction,Conductor*%
G36*
X5070000Y82120000D02*
G01*
X12930000Y82120000D01*
X12930000Y74760000D01*
X5070000Y74760000D01*
X5070000Y82120000D01*
G37*
%TD.AperFunction*%
%TA.AperFunction,Conductor*%
G36*
X5070000Y67130000D02*
G01*
X12930000Y67130000D01*
X12930000Y59770000D01*
X5070000Y59770000D01*
X5070000Y67130000D01*
G37*
%TD.AperFunction*%
%TA.AperFunction,Conductor*%
G36*
X5070000Y52140000D02*
G01*
X12930000Y52140000D01*
X12930000Y44780000D01*
X5070000Y44780000D01*
X5070000Y52140000D01*
G37*
%TD.AperFunction*%
%TA.AperFunction,Conductor*%
G36*
X5070000Y37150000D02*
G01*
X12930000Y37150000D01*
X12930000Y29790000D01*
X5070000Y29790000D01*
X5070000Y37150000D01*
G37*
%TD.AperFunction*%
%TA.AperFunction,Conductor*%
%TO.N,N$19*%
G36*
X17070000Y142080000D02*
G01*
X24930000Y142080000D01*
X24930000Y134720000D01*
X17070000Y134720000D01*
X17070000Y142080000D01*
G37*
%TD.AperFunction*%
%TA.AperFunction,Conductor*%
G36*
X17070000Y127090000D02*
G01*
X24930000Y127090000D01*
X24930000Y119730000D01*
X17070000Y119730000D01*
X17070000Y127090000D01*
G37*
%TD.AperFunction*%
%TA.AperFunction,Conductor*%
G36*
X17070000Y112100000D02*
G01*
X24930000Y112100000D01*
X24930000Y104740000D01*
X17070000Y104740000D01*
X17070000Y112100000D01*
G37*
%TD.AperFunction*%
%TA.AperFunction,Conductor*%
G36*
X17070000Y97110000D02*
G01*
X24930000Y97110000D01*
X24930000Y89750000D01*
X17070000Y89750000D01*
X17070000Y97110000D01*
G37*
%TD.AperFunction*%
%TA.AperFunction,Conductor*%
G36*
X17070000Y82120000D02*
G01*
X24930000Y82120000D01*
X24930000Y74760000D01*
X17070000Y74760000D01*
X17070000Y82120000D01*
G37*
%TD.AperFunction*%
%TA.AperFunction,Conductor*%
G36*
X17070000Y67130000D02*
G01*
X24930000Y67130000D01*
X24930000Y59770000D01*
X17070000Y59770000D01*
X17070000Y67130000D01*
G37*
%TD.AperFunction*%
%TA.AperFunction,Conductor*%
G36*
X17070000Y52140000D02*
G01*
X24930000Y52140000D01*
X24930000Y44780000D01*
X17070000Y44780000D01*
X17070000Y52140000D01*
G37*
%TD.AperFunction*%
%TA.AperFunction,Conductor*%
G36*
X17070000Y37150000D02*
G01*
X24930000Y37150000D01*
X24930000Y29790000D01*
X17070000Y29790000D01*
X17070000Y37150000D01*
G37*
%TD.AperFunction*%
%TA.AperFunction,Conductor*%
%TO.N,N$21*%
G36*
X29070000Y142080000D02*
G01*
X36930000Y142080000D01*
X36930000Y134720000D01*
X29070000Y134720000D01*
X29070000Y142080000D01*
G37*
%TD.AperFunction*%
%TA.AperFunction,Conductor*%
G36*
X29070000Y127090000D02*
G01*
X36930000Y127090000D01*
X36930000Y119730000D01*
X29070000Y119730000D01*
X29070000Y127090000D01*
G37*
%TD.AperFunction*%
%TA.AperFunction,Conductor*%
G36*
X29070000Y112100000D02*
G01*
X36930000Y112100000D01*
X36930000Y104740000D01*
X29070000Y104740000D01*
X29070000Y112100000D01*
G37*
%TD.AperFunction*%
%TA.AperFunction,Conductor*%
G36*
X29070000Y97110000D02*
G01*
X36930000Y97110000D01*
X36930000Y89750000D01*
X29070000Y89750000D01*
X29070000Y97110000D01*
G37*
%TD.AperFunction*%
%TA.AperFunction,Conductor*%
G36*
X29070000Y82120000D02*
G01*
X36930000Y82120000D01*
X36930000Y74760000D01*
X29070000Y74760000D01*
X29070000Y82120000D01*
G37*
%TD.AperFunction*%
%TA.AperFunction,Conductor*%
G36*
X29070000Y67130000D02*
G01*
X36930000Y67130000D01*
X36930000Y59770000D01*
X29070000Y59770000D01*
X29070000Y67130000D01*
G37*
%TD.AperFunction*%
%TA.AperFunction,Conductor*%
G36*
X29070000Y52140000D02*
G01*
X36930000Y52140000D01*
X36930000Y44780000D01*
X29070000Y44780000D01*
X29070000Y52140000D01*
G37*
%TD.AperFunction*%
%TA.AperFunction,Conductor*%
G36*
X29070000Y37150000D02*
G01*
X36930000Y37150000D01*
X36930000Y29790000D01*
X29070000Y29790000D01*
X29070000Y37150000D01*
G37*
%TD.AperFunction*%
%TA.AperFunction,Conductor*%
%TO.N,N$23*%
G36*
X41070000Y142080000D02*
G01*
X48930000Y142080000D01*
X48930000Y134720000D01*
X41070000Y134720000D01*
X41070000Y142080000D01*
G37*
%TD.AperFunction*%
%TA.AperFunction,Conductor*%
G36*
X41070000Y127090000D02*
G01*
X48930000Y127090000D01*
X48930000Y119730000D01*
X41070000Y119730000D01*
X41070000Y127090000D01*
G37*
%TD.AperFunction*%
%TA.AperFunction,Conductor*%
G36*
X41070000Y112100000D02*
G01*
X48930000Y112100000D01*
X48930000Y104740000D01*
X41070000Y104740000D01*
X41070000Y112100000D01*
G37*
%TD.AperFunction*%
%TA.AperFunction,Conductor*%
G36*
X41070000Y97110000D02*
G01*
X48930000Y97110000D01*
X48930000Y89750000D01*
X41070000Y89750000D01*
X41070000Y97110000D01*
G37*
%TD.AperFunction*%
%TA.AperFunction,Conductor*%
G36*
X41070000Y82120000D02*
G01*
X48930000Y82120000D01*
X48930000Y74760000D01*
X41070000Y74760000D01*
X41070000Y82120000D01*
G37*
%TD.AperFunction*%
%TA.AperFunction,Conductor*%
G36*
X41070000Y67130000D02*
G01*
X48930000Y67130000D01*
X48930000Y59770000D01*
X41070000Y59770000D01*
X41070000Y67130000D01*
G37*
%TD.AperFunction*%
%TA.AperFunction,Conductor*%
G36*
X41070000Y52140000D02*
G01*
X48930000Y52140000D01*
X48930000Y44780000D01*
X41070000Y44780000D01*
X41070000Y52140000D01*
G37*
%TD.AperFunction*%
%TA.AperFunction,Conductor*%
G36*
X41070000Y37150000D02*
G01*
X48930000Y37150000D01*
X48930000Y29790000D01*
X41070000Y29790000D01*
X41070000Y37150000D01*
G37*
%TD.AperFunction*%
%TA.AperFunction,Conductor*%
%TO.N,N$25*%
G36*
X53070000Y142080000D02*
G01*
X60930000Y142080000D01*
X60930000Y134720000D01*
X53070000Y134720000D01*
X53070000Y142080000D01*
G37*
%TD.AperFunction*%
%TA.AperFunction,Conductor*%
G36*
X53070000Y127090000D02*
G01*
X60930000Y127090000D01*
X60930000Y119730000D01*
X53070000Y119730000D01*
X53070000Y127090000D01*
G37*
%TD.AperFunction*%
%TA.AperFunction,Conductor*%
G36*
X53070000Y112100000D02*
G01*
X60930000Y112100000D01*
X60930000Y104740000D01*
X53070000Y104740000D01*
X53070000Y112100000D01*
G37*
%TD.AperFunction*%
%TA.AperFunction,Conductor*%
G36*
X53070000Y97110000D02*
G01*
X60930000Y97110000D01*
X60930000Y89750000D01*
X53070000Y89750000D01*
X53070000Y97110000D01*
G37*
%TD.AperFunction*%
%TA.AperFunction,Conductor*%
G36*
X53070000Y82120000D02*
G01*
X60930000Y82120000D01*
X60930000Y74760000D01*
X53070000Y74760000D01*
X53070000Y82120000D01*
G37*
%TD.AperFunction*%
%TA.AperFunction,Conductor*%
G36*
X53070000Y67130000D02*
G01*
X60930000Y67130000D01*
X60930000Y59770000D01*
X53070000Y59770000D01*
X53070000Y67130000D01*
G37*
%TD.AperFunction*%
%TA.AperFunction,Conductor*%
G36*
X53070000Y52140000D02*
G01*
X60930000Y52140000D01*
X60930000Y44780000D01*
X53070000Y44780000D01*
X53070000Y52140000D01*
G37*
%TD.AperFunction*%
%TA.AperFunction,Conductor*%
G36*
X53070000Y37150000D02*
G01*
X60930000Y37150000D01*
X60930000Y29790000D01*
X53070000Y29790000D01*
X53070000Y37150000D01*
G37*
%TD.AperFunction*%
%TA.AperFunction,Conductor*%
%TO.N,N$28*%
G36*
X65070000Y142080000D02*
G01*
X72930000Y142080000D01*
X72930000Y134720000D01*
X65070000Y134720000D01*
X65070000Y142080000D01*
G37*
%TD.AperFunction*%
%TA.AperFunction,Conductor*%
G36*
X65070000Y127090000D02*
G01*
X72930000Y127090000D01*
X72930000Y119730000D01*
X65070000Y119730000D01*
X65070000Y127090000D01*
G37*
%TD.AperFunction*%
%TA.AperFunction,Conductor*%
G36*
X65070000Y112100000D02*
G01*
X72930000Y112100000D01*
X72930000Y104740000D01*
X65070000Y104740000D01*
X65070000Y112100000D01*
G37*
%TD.AperFunction*%
%TA.AperFunction,Conductor*%
G36*
X65070000Y97110000D02*
G01*
X72930000Y97110000D01*
X72930000Y89750000D01*
X65070000Y89750000D01*
X65070000Y97110000D01*
G37*
%TD.AperFunction*%
%TA.AperFunction,Conductor*%
G36*
X65070000Y82120000D02*
G01*
X72930000Y82120000D01*
X72930000Y74760000D01*
X65070000Y74760000D01*
X65070000Y82120000D01*
G37*
%TD.AperFunction*%
%TA.AperFunction,Conductor*%
G36*
X65070000Y67130000D02*
G01*
X72930000Y67130000D01*
X72930000Y59770000D01*
X65070000Y59770000D01*
X65070000Y67130000D01*
G37*
%TD.AperFunction*%
%TA.AperFunction,Conductor*%
G36*
X65070000Y52140000D02*
G01*
X72930000Y52140000D01*
X72930000Y44780000D01*
X65070000Y44780000D01*
X65070000Y52140000D01*
G37*
%TD.AperFunction*%
%TA.AperFunction,Conductor*%
G36*
X65070000Y37150000D02*
G01*
X72930000Y37150000D01*
X72930000Y29790000D01*
X65070000Y29790000D01*
X65070000Y37150000D01*
G37*
%TD.AperFunction*%
%TA.AperFunction,Conductor*%
%TO.N,N$30*%
G36*
X77070000Y142080000D02*
G01*
X84930000Y142080000D01*
X84930000Y134720000D01*
X77070000Y134720000D01*
X77070000Y142080000D01*
G37*
%TD.AperFunction*%
%TA.AperFunction,Conductor*%
G36*
X77070000Y127090000D02*
G01*
X84930000Y127090000D01*
X84930000Y119730000D01*
X77070000Y119730000D01*
X77070000Y127090000D01*
G37*
%TD.AperFunction*%
%TA.AperFunction,Conductor*%
G36*
X77070000Y112100000D02*
G01*
X84930000Y112100000D01*
X84930000Y104740000D01*
X77070000Y104740000D01*
X77070000Y112100000D01*
G37*
%TD.AperFunction*%
%TA.AperFunction,Conductor*%
G36*
X77070000Y97110000D02*
G01*
X84930000Y97110000D01*
X84930000Y89750000D01*
X77070000Y89750000D01*
X77070000Y97110000D01*
G37*
%TD.AperFunction*%
%TA.AperFunction,Conductor*%
G36*
X77070000Y82120000D02*
G01*
X84930000Y82120000D01*
X84930000Y74760000D01*
X77070000Y74760000D01*
X77070000Y82120000D01*
G37*
%TD.AperFunction*%
%TA.AperFunction,Conductor*%
G36*
X77070000Y67130000D02*
G01*
X84930000Y67130000D01*
X84930000Y59770000D01*
X77070000Y59770000D01*
X77070000Y67130000D01*
G37*
%TD.AperFunction*%
%TA.AperFunction,Conductor*%
G36*
X77070000Y52140000D02*
G01*
X84930000Y52140000D01*
X84930000Y44780000D01*
X77070000Y44780000D01*
X77070000Y52140000D01*
G37*
%TD.AperFunction*%
%TA.AperFunction,Conductor*%
G36*
X77070000Y37150000D02*
G01*
X84930000Y37150000D01*
X84930000Y29790000D01*
X77070000Y29790000D01*
X77070000Y37150000D01*
G37*
%TD.AperFunction*%
%TA.AperFunction,Conductor*%
%TO.N,N$32*%
G36*
X89070000Y142080000D02*
G01*
X96930000Y142080000D01*
X96930000Y134720000D01*
X89070000Y134720000D01*
X89070000Y142080000D01*
G37*
%TD.AperFunction*%
%TA.AperFunction,Conductor*%
G36*
X89070000Y127090000D02*
G01*
X96930000Y127090000D01*
X96930000Y119730000D01*
X89070000Y119730000D01*
X89070000Y127090000D01*
G37*
%TD.AperFunction*%
%TA.AperFunction,Conductor*%
G36*
X89070000Y112100000D02*
G01*
X96930000Y112100000D01*
X96930000Y104740000D01*
X89070000Y104740000D01*
X89070000Y112100000D01*
G37*
%TD.AperFunction*%
%TA.AperFunction,Conductor*%
G36*
X89070000Y97110000D02*
G01*
X96930000Y97110000D01*
X96930000Y89750000D01*
X89070000Y89750000D01*
X89070000Y97110000D01*
G37*
%TD.AperFunction*%
%TA.AperFunction,Conductor*%
G36*
X89070000Y82120000D02*
G01*
X96930000Y82120000D01*
X96930000Y74760000D01*
X89070000Y74760000D01*
X89070000Y82120000D01*
G37*
%TD.AperFunction*%
%TA.AperFunction,Conductor*%
G36*
X89070000Y67130000D02*
G01*
X96930000Y67130000D01*
X96930000Y59770000D01*
X89070000Y59770000D01*
X89070000Y67130000D01*
G37*
%TD.AperFunction*%
%TA.AperFunction,Conductor*%
G36*
X89070000Y52140000D02*
G01*
X96930000Y52140000D01*
X96930000Y44780000D01*
X89070000Y44780000D01*
X89070000Y52140000D01*
G37*
%TD.AperFunction*%
%TA.AperFunction,Conductor*%
G36*
X89070000Y37150000D02*
G01*
X96930000Y37150000D01*
X96930000Y29790000D01*
X89070000Y29790000D01*
X89070000Y37150000D01*
G37*
%TD.AperFunction*%
%TA.AperFunction,Conductor*%
%TO.N,N$34*%
G36*
X101070000Y142080000D02*
G01*
X108930000Y142080000D01*
X108930000Y134720000D01*
X101070000Y134720000D01*
X101070000Y142080000D01*
G37*
%TD.AperFunction*%
%TA.AperFunction,Conductor*%
G36*
X101070000Y127090000D02*
G01*
X108930000Y127090000D01*
X108930000Y119730000D01*
X101070000Y119730000D01*
X101070000Y127090000D01*
G37*
%TD.AperFunction*%
%TA.AperFunction,Conductor*%
G36*
X101070000Y112100000D02*
G01*
X108930000Y112100000D01*
X108930000Y104740000D01*
X101070000Y104740000D01*
X101070000Y112100000D01*
G37*
%TD.AperFunction*%
%TA.AperFunction,Conductor*%
G36*
X101070000Y97110000D02*
G01*
X108930000Y97110000D01*
X108930000Y89750000D01*
X101070000Y89750000D01*
X101070000Y97110000D01*
G37*
%TD.AperFunction*%
%TA.AperFunction,Conductor*%
G36*
X101070000Y82120000D02*
G01*
X108930000Y82120000D01*
X108930000Y74760000D01*
X101070000Y74760000D01*
X101070000Y82120000D01*
G37*
%TD.AperFunction*%
%TA.AperFunction,Conductor*%
G36*
X101070000Y67130000D02*
G01*
X108930000Y67130000D01*
X108930000Y59770000D01*
X101070000Y59770000D01*
X101070000Y67130000D01*
G37*
%TD.AperFunction*%
%TA.AperFunction,Conductor*%
G36*
X101070000Y52140000D02*
G01*
X108930000Y52140000D01*
X108930000Y44780000D01*
X101070000Y44780000D01*
X101070000Y52140000D01*
G37*
%TD.AperFunction*%
%TA.AperFunction,Conductor*%
G36*
X101070000Y37150000D02*
G01*
X108930000Y37150000D01*
X108930000Y29790000D01*
X101070000Y29790000D01*
X101070000Y37150000D01*
G37*
%TD.AperFunction*%
%TA.AperFunction,Conductor*%
%TO.N,N$36*%
G36*
X113070000Y142080000D02*
G01*
X120930000Y142080000D01*
X120930000Y134720000D01*
X113070000Y134720000D01*
X113070000Y142080000D01*
G37*
%TD.AperFunction*%
%TA.AperFunction,Conductor*%
G36*
X113070000Y127090000D02*
G01*
X120930000Y127090000D01*
X120930000Y119730000D01*
X113070000Y119730000D01*
X113070000Y127090000D01*
G37*
%TD.AperFunction*%
%TA.AperFunction,Conductor*%
G36*
X113070000Y112100000D02*
G01*
X120930000Y112100000D01*
X120930000Y104740000D01*
X113070000Y104740000D01*
X113070000Y112100000D01*
G37*
%TD.AperFunction*%
%TA.AperFunction,Conductor*%
G36*
X113070000Y97110000D02*
G01*
X120930000Y97110000D01*
X120930000Y89750000D01*
X113070000Y89750000D01*
X113070000Y97110000D01*
G37*
%TD.AperFunction*%
%TA.AperFunction,Conductor*%
G36*
X113070000Y82120000D02*
G01*
X120930000Y82120000D01*
X120930000Y74760000D01*
X113070000Y74760000D01*
X113070000Y82120000D01*
G37*
%TD.AperFunction*%
%TA.AperFunction,Conductor*%
G36*
X113070000Y67130000D02*
G01*
X120930000Y67130000D01*
X120930000Y59770000D01*
X113070000Y59770000D01*
X113070000Y67130000D01*
G37*
%TD.AperFunction*%
%TA.AperFunction,Conductor*%
G36*
X113070000Y52140000D02*
G01*
X120930000Y52140000D01*
X120930000Y44780000D01*
X113070000Y44780000D01*
X113070000Y52140000D01*
G37*
%TD.AperFunction*%
%TA.AperFunction,Conductor*%
G36*
X113070000Y37150000D02*
G01*
X120930000Y37150000D01*
X120930000Y29790000D01*
X113070000Y29790000D01*
X113070000Y37150000D01*
G37*
%TD.AperFunction*%
%TA.AperFunction,Conductor*%
%TO.N,N$38*%
G36*
X125070000Y142080000D02*
G01*
X132930000Y142080000D01*
X132930000Y134720000D01*
X125070000Y134720000D01*
X125070000Y142080000D01*
G37*
%TD.AperFunction*%
%TA.AperFunction,Conductor*%
G36*
X125070000Y127090000D02*
G01*
X132930000Y127090000D01*
X132930000Y119730000D01*
X125070000Y119730000D01*
X125070000Y127090000D01*
G37*
%TD.AperFunction*%
%TA.AperFunction,Conductor*%
G36*
X125070000Y112100000D02*
G01*
X132930000Y112100000D01*
X132930000Y104740000D01*
X125070000Y104740000D01*
X125070000Y112100000D01*
G37*
%TD.AperFunction*%
%TA.AperFunction,Conductor*%
G36*
X125070000Y97110000D02*
G01*
X132930000Y97110000D01*
X132930000Y89750000D01*
X125070000Y89750000D01*
X125070000Y97110000D01*
G37*
%TD.AperFunction*%
%TA.AperFunction,Conductor*%
G36*
X125070000Y82120000D02*
G01*
X132930000Y82120000D01*
X132930000Y74760000D01*
X125070000Y74760000D01*
X125070000Y82120000D01*
G37*
%TD.AperFunction*%
%TA.AperFunction,Conductor*%
G36*
X125070000Y67130000D02*
G01*
X132930000Y67130000D01*
X132930000Y59770000D01*
X125070000Y59770000D01*
X125070000Y67130000D01*
G37*
%TD.AperFunction*%
%TA.AperFunction,Conductor*%
G36*
X125070000Y52140000D02*
G01*
X132930000Y52140000D01*
X132930000Y44780000D01*
X125070000Y44780000D01*
X125070000Y52140000D01*
G37*
%TD.AperFunction*%
%TA.AperFunction,Conductor*%
G36*
X125070000Y37150000D02*
G01*
X132930000Y37150000D01*
X132930000Y29790000D01*
X125070000Y29790000D01*
X125070000Y37150000D01*
G37*
%TD.AperFunction*%
%TA.AperFunction,Conductor*%
%TO.N,N$40*%
G36*
X137070000Y142080000D02*
G01*
X144930000Y142080000D01*
X144930000Y134720000D01*
X137070000Y134720000D01*
X137070000Y142080000D01*
G37*
%TD.AperFunction*%
%TA.AperFunction,Conductor*%
G36*
X137070000Y127090000D02*
G01*
X144930000Y127090000D01*
X144930000Y119730000D01*
X137070000Y119730000D01*
X137070000Y127090000D01*
G37*
%TD.AperFunction*%
%TA.AperFunction,Conductor*%
G36*
X137070000Y112100000D02*
G01*
X144930000Y112100000D01*
X144930000Y104740000D01*
X137070000Y104740000D01*
X137070000Y112100000D01*
G37*
%TD.AperFunction*%
%TA.AperFunction,Conductor*%
G36*
X137070000Y97110000D02*
G01*
X144930000Y97110000D01*
X144930000Y89750000D01*
X137070000Y89750000D01*
X137070000Y97110000D01*
G37*
%TD.AperFunction*%
%TA.AperFunction,Conductor*%
G36*
X137070000Y82120000D02*
G01*
X144930000Y82120000D01*
X144930000Y74760000D01*
X137070000Y74760000D01*
X137070000Y82120000D01*
G37*
%TD.AperFunction*%
%TA.AperFunction,Conductor*%
G36*
X137070000Y67130000D02*
G01*
X144930000Y67130000D01*
X144930000Y59770000D01*
X137070000Y59770000D01*
X137070000Y67130000D01*
G37*
%TD.AperFunction*%
%TA.AperFunction,Conductor*%
G36*
X137070000Y52140000D02*
G01*
X144930000Y52140000D01*
X144930000Y44780000D01*
X137070000Y44780000D01*
X137070000Y52140000D01*
G37*
%TD.AperFunction*%
%TA.AperFunction,Conductor*%
G36*
X137070000Y37150000D02*
G01*
X144930000Y37150000D01*
X144930000Y29790000D01*
X137070000Y29790000D01*
X137070000Y37150000D01*
G37*
%TD.AperFunction*%
%TA.AperFunction,Conductor*%
%TO.N,N$41*%
G36*
X149070000Y142080000D02*
G01*
X156930000Y142080000D01*
X156930000Y134720000D01*
X149070000Y134720000D01*
X149070000Y142080000D01*
G37*
%TD.AperFunction*%
%TA.AperFunction,Conductor*%
G36*
X149070000Y127090000D02*
G01*
X156930000Y127090000D01*
X156930000Y119730000D01*
X149070000Y119730000D01*
X149070000Y127090000D01*
G37*
%TD.AperFunction*%
%TA.AperFunction,Conductor*%
G36*
X149070000Y112100000D02*
G01*
X156930000Y112100000D01*
X156930000Y104740000D01*
X149070000Y104740000D01*
X149070000Y112100000D01*
G37*
%TD.AperFunction*%
%TA.AperFunction,Conductor*%
G36*
X149070000Y97110000D02*
G01*
X156930000Y97110000D01*
X156930000Y89750000D01*
X149070000Y89750000D01*
X149070000Y97110000D01*
G37*
%TD.AperFunction*%
%TA.AperFunction,Conductor*%
G36*
X149070000Y82120000D02*
G01*
X156930000Y82120000D01*
X156930000Y74760000D01*
X149070000Y74760000D01*
X149070000Y82120000D01*
G37*
%TD.AperFunction*%
%TA.AperFunction,Conductor*%
G36*
X149070000Y67130000D02*
G01*
X156930000Y67130000D01*
X156930000Y59770000D01*
X149070000Y59770000D01*
X149070000Y67130000D01*
G37*
%TD.AperFunction*%
%TA.AperFunction,Conductor*%
G36*
X149070000Y52140000D02*
G01*
X156930000Y52140000D01*
X156930000Y44780000D01*
X149070000Y44780000D01*
X149070000Y52140000D01*
G37*
%TD.AperFunction*%
%TA.AperFunction,Conductor*%
G36*
X149070000Y37150000D02*
G01*
X156930000Y37150000D01*
X156930000Y29790000D01*
X149070000Y29790000D01*
X149070000Y37150000D01*
G37*
%TD.AperFunction*%
%TA.AperFunction,Conductor*%
%TO.N,N$43*%
G36*
X161070000Y142080000D02*
G01*
X168930000Y142080000D01*
X168930000Y134720000D01*
X161070000Y134720000D01*
X161070000Y142080000D01*
G37*
%TD.AperFunction*%
%TA.AperFunction,Conductor*%
G36*
X161070000Y127090000D02*
G01*
X168930000Y127090000D01*
X168930000Y119730000D01*
X161070000Y119730000D01*
X161070000Y127090000D01*
G37*
%TD.AperFunction*%
%TA.AperFunction,Conductor*%
G36*
X161070000Y112100000D02*
G01*
X168930000Y112100000D01*
X168930000Y104740000D01*
X161070000Y104740000D01*
X161070000Y112100000D01*
G37*
%TD.AperFunction*%
%TA.AperFunction,Conductor*%
G36*
X161070000Y97110000D02*
G01*
X168930000Y97110000D01*
X168930000Y89750000D01*
X161070000Y89750000D01*
X161070000Y97110000D01*
G37*
%TD.AperFunction*%
%TA.AperFunction,Conductor*%
G36*
X161070000Y82120000D02*
G01*
X168930000Y82120000D01*
X168930000Y74760000D01*
X161070000Y74760000D01*
X161070000Y82120000D01*
G37*
%TD.AperFunction*%
%TA.AperFunction,Conductor*%
G36*
X161070000Y67130000D02*
G01*
X168930000Y67130000D01*
X168930000Y59770000D01*
X161070000Y59770000D01*
X161070000Y67130000D01*
G37*
%TD.AperFunction*%
%TA.AperFunction,Conductor*%
G36*
X161070000Y52140000D02*
G01*
X168930000Y52140000D01*
X168930000Y44780000D01*
X161070000Y44780000D01*
X161070000Y52140000D01*
G37*
%TD.AperFunction*%
%TA.AperFunction,Conductor*%
G36*
X161070000Y37150000D02*
G01*
X168930000Y37150000D01*
X168930000Y29790000D01*
X161070000Y29790000D01*
X161070000Y37150000D01*
G37*
%TD.AperFunction*%
%TA.AperFunction,Conductor*%
%TO.N,N$45*%
G36*
X173070000Y142080000D02*
G01*
X180930000Y142080000D01*
X180930000Y134720000D01*
X173070000Y134720000D01*
X173070000Y142080000D01*
G37*
%TD.AperFunction*%
%TA.AperFunction,Conductor*%
G36*
X173070000Y127090000D02*
G01*
X180930000Y127090000D01*
X180930000Y119730000D01*
X173070000Y119730000D01*
X173070000Y127090000D01*
G37*
%TD.AperFunction*%
%TA.AperFunction,Conductor*%
G36*
X173070000Y112100000D02*
G01*
X180930000Y112100000D01*
X180930000Y104740000D01*
X173070000Y104740000D01*
X173070000Y112100000D01*
G37*
%TD.AperFunction*%
%TA.AperFunction,Conductor*%
G36*
X173070000Y97110000D02*
G01*
X180930000Y97110000D01*
X180930000Y89750000D01*
X173070000Y89750000D01*
X173070000Y97110000D01*
G37*
%TD.AperFunction*%
%TA.AperFunction,Conductor*%
G36*
X173070000Y82120000D02*
G01*
X180930000Y82120000D01*
X180930000Y74760000D01*
X173070000Y74760000D01*
X173070000Y82120000D01*
G37*
%TD.AperFunction*%
%TA.AperFunction,Conductor*%
G36*
X173070000Y67130000D02*
G01*
X180930000Y67130000D01*
X180930000Y59770000D01*
X173070000Y59770000D01*
X173070000Y67130000D01*
G37*
%TD.AperFunction*%
%TA.AperFunction,Conductor*%
G36*
X173070000Y52140000D02*
G01*
X180930000Y52140000D01*
X180930000Y44780000D01*
X173070000Y44780000D01*
X173070000Y52140000D01*
G37*
%TD.AperFunction*%
%TA.AperFunction,Conductor*%
G36*
X173070000Y37150000D02*
G01*
X180930000Y37150000D01*
X180930000Y29790000D01*
X173070000Y29790000D01*
X173070000Y37150000D01*
G37*
%TD.AperFunction*%
%TA.AperFunction,Conductor*%
%TO.N,N$47*%
G36*
X185070000Y142080000D02*
G01*
X192930000Y142080000D01*
X192930000Y134720000D01*
X185070000Y134720000D01*
X185070000Y142080000D01*
G37*
%TD.AperFunction*%
%TA.AperFunction,Conductor*%
G36*
X185070000Y127090000D02*
G01*
X192930000Y127090000D01*
X192930000Y119730000D01*
X185070000Y119730000D01*
X185070000Y127090000D01*
G37*
%TD.AperFunction*%
%TA.AperFunction,Conductor*%
G36*
X185070000Y112100000D02*
G01*
X192930000Y112100000D01*
X192930000Y104740000D01*
X185070000Y104740000D01*
X185070000Y112100000D01*
G37*
%TD.AperFunction*%
%TA.AperFunction,Conductor*%
G36*
X185070000Y97110000D02*
G01*
X192930000Y97110000D01*
X192930000Y89750000D01*
X185070000Y89750000D01*
X185070000Y97110000D01*
G37*
%TD.AperFunction*%
%TA.AperFunction,Conductor*%
G36*
X185070000Y82120000D02*
G01*
X192930000Y82120000D01*
X192930000Y74760000D01*
X185070000Y74760000D01*
X185070000Y82120000D01*
G37*
%TD.AperFunction*%
%TA.AperFunction,Conductor*%
G36*
X185070000Y67130000D02*
G01*
X192930000Y67130000D01*
X192930000Y59770000D01*
X185070000Y59770000D01*
X185070000Y67130000D01*
G37*
%TD.AperFunction*%
%TA.AperFunction,Conductor*%
G36*
X185070000Y52140000D02*
G01*
X192930000Y52140000D01*
X192930000Y44780000D01*
X185070000Y44780000D01*
X185070000Y52140000D01*
G37*
%TD.AperFunction*%
%TA.AperFunction,Conductor*%
G36*
X185070000Y37150000D02*
G01*
X192930000Y37150000D01*
X192930000Y29790000D01*
X185070000Y29790000D01*
X185070000Y37150000D01*
G37*
%TD.AperFunction*%
%TD*%
D10*
%TO.P,J3,1*%
%TO.N,N$23*%
X45000000Y19525000D03*
D11*
%TO.P,J3,2*%
%TO.N,GND*%
X46475000Y18000000D03*
%TO.P,J3,3*%
X43525000Y18000000D03*
%TD*%
D10*
%TO.P,J15,1*%
%TO.N,N$45*%
X177080000Y19525000D03*
D11*
%TO.P,J15,2*%
%TO.N,GND*%
X178555000Y18000000D03*
%TO.P,J15,3*%
X175605000Y18000000D03*
%TD*%
D10*
%TO.P,J2,1*%
%TO.N,N$21*%
X33000000Y19525000D03*
D11*
%TO.P,J2,2*%
%TO.N,GND*%
X34475000Y18000000D03*
%TO.P,J2,3*%
X31525000Y18000000D03*
%TD*%
D10*
%TO.P,J7,1*%
%TO.N,N$30*%
X81000000Y19525000D03*
D11*
%TO.P,J7,2*%
%TO.N,GND*%
X82475000Y18000000D03*
%TO.P,J7,3*%
X79525000Y18000000D03*
%TD*%
D10*
%TO.P,J9,1*%
%TO.N,N$40*%
X141080000Y19525000D03*
D11*
%TO.P,J9,2*%
%TO.N,GND*%
X142555000Y18000000D03*
%TO.P,J9,3*%
X139605000Y18000000D03*
%TD*%
D10*
%TO.P,J8,1*%
%TO.N,N$32*%
X93000000Y19525000D03*
D11*
%TO.P,J8,2*%
%TO.N,GND*%
X94475000Y18000000D03*
%TO.P,J8,3*%
X91525000Y18000000D03*
%TD*%
D10*
%TO.P,J11,1*%
%TO.N,N$41*%
X153080000Y19525000D03*
D11*
%TO.P,J11,2*%
%TO.N,GND*%
X154555000Y18000000D03*
%TO.P,J11,3*%
X151605000Y18000000D03*
%TD*%
D10*
%TO.P,J17,1*%
%TO.N,N$17*%
X9000000Y19525000D03*
D11*
%TO.P,J17,2*%
%TO.N,GND*%
X10475000Y18000000D03*
%TO.P,J17,3*%
X7525000Y18000000D03*
%TD*%
D10*
%TO.P,J13,1*%
%TO.N,N$43*%
X165080000Y19525000D03*
D11*
%TO.P,J13,2*%
%TO.N,GND*%
X166555000Y18000000D03*
%TO.P,J13,3*%
X163605000Y18000000D03*
%TD*%
D10*
%TO.P,J4,1*%
%TO.N,N$47*%
X189000000Y19525000D03*
D11*
%TO.P,J4,2*%
%TO.N,GND*%
X190475000Y18000000D03*
%TO.P,J4,3*%
X187525000Y18000000D03*
%TD*%
D10*
%TO.P,J6,1*%
%TO.N,N$28*%
X69000000Y19525000D03*
D11*
%TO.P,J6,2*%
%TO.N,GND*%
X70475000Y18000000D03*
%TO.P,J6,3*%
X67525000Y18000000D03*
%TD*%
D10*
%TO.P,J14,1*%
%TO.N,N$38*%
X129000000Y19525000D03*
D11*
%TO.P,J14,2*%
%TO.N,GND*%
X130475000Y18000000D03*
%TO.P,J14,3*%
X127525000Y18000000D03*
%TD*%
D10*
%TO.P,J1,1*%
%TO.N,N$19*%
X21000000Y19525000D03*
D11*
%TO.P,J1,2*%
%TO.N,GND*%
X22475000Y18000000D03*
%TO.P,J1,3*%
X19525000Y18000000D03*
%TD*%
D10*
%TO.P,J10,1*%
%TO.N,N$34*%
X105000000Y19525000D03*
D11*
%TO.P,J10,2*%
%TO.N,GND*%
X106475000Y18000000D03*
%TO.P,J10,3*%
X103525000Y18000000D03*
%TD*%
D10*
%TO.P,J12,1*%
%TO.N,N$36*%
X117000000Y19525000D03*
D11*
%TO.P,J12,2*%
%TO.N,GND*%
X118475000Y18000000D03*
%TO.P,J12,3*%
X115525000Y18000000D03*
%TD*%
D10*
%TO.P,J5,1*%
%TO.N,N$25*%
X57000000Y19525000D03*
D11*
%TO.P,J5,2*%
%TO.N,GND*%
X58475000Y18000000D03*
%TO.P,J5,3*%
X55525000Y18000000D03*
%TD*%
D12*
%TO.N,GND*%
X104397490Y9000000D03*
X73435146Y9000000D03*
X148748954Y9000000D03*
X146360080Y16549043D03*
D13*
X179880000Y18000000D03*
D12*
X164648536Y9000000D03*
D13*
X167880000Y18000000D03*
X23800000Y18000000D03*
D12*
X100213389Y9000000D03*
X64230126Y9000000D03*
D13*
X186200000Y18000000D03*
D12*
X157669456Y16000000D03*
X74123352Y12450956D03*
X117786611Y9000000D03*
X157669456Y13000000D03*
X11510460Y6000000D03*
X64782427Y16000000D03*
X170867220Y15887881D03*
D13*
X30200000Y18000000D03*
D12*
X88213389Y13000000D03*
X109970711Y13000000D03*
X76497908Y13000000D03*
D13*
X42200000Y18000000D03*
D12*
X121686192Y16000000D03*
D13*
X174280000Y18000000D03*
D12*
X50945858Y11395328D03*
X177200837Y9000000D03*
X129502092Y9000000D03*
X38197753Y14883725D03*
X25736402Y14000000D03*
D13*
X191800000Y18000000D03*
X155880000Y18000000D03*
X18200000Y18000000D03*
D12*
X51853051Y14093021D03*
X27410042Y18000000D03*
X61779105Y18074118D03*
X51677824Y18000000D03*
X157669456Y16000000D03*
X40799163Y9000000D03*
X111928870Y9000000D03*
X92682008Y9000000D03*
D13*
X131800000Y18000000D03*
D12*
X141217573Y9000000D03*
X181937238Y13000000D03*
X20715481Y9000000D03*
D13*
X119800000Y18000000D03*
X66200000Y18000000D03*
X83800000Y18000000D03*
D12*
X181384937Y9000000D03*
X135857288Y14194978D03*
X97935863Y11995243D03*
X61719665Y13000000D03*
X40799163Y9000000D03*
X125317992Y9000000D03*
D13*
X90200000Y18000000D03*
X143880000Y18000000D03*
D12*
X61719665Y9000000D03*
D13*
X150280000Y18000000D03*
X47800000Y18000000D03*
X35800000Y18000000D03*
D12*
X124024597Y11459206D03*
X172179916Y9000000D03*
D13*
X71800000Y18000000D03*
X102200000Y18000000D03*
D12*
X184732218Y9000000D03*
X21552301Y6000000D03*
X96866109Y9000000D03*
D13*
X11800000Y18000000D03*
D12*
X145401674Y9000000D03*
X64782427Y13000000D03*
D13*
X126200000Y18000000D03*
D12*
X14857741Y19000000D03*
D13*
X162280000Y18000000D03*
D12*
X137033473Y9000000D03*
D13*
X107800000Y18000000D03*
D12*
X29083682Y9000000D03*
X37451883Y9000000D03*
D13*
X6200000Y18000000D03*
D12*
X88497908Y9000000D03*
X160179916Y13000000D03*
X146116898Y12612440D03*
X133401674Y16000000D03*
X108581590Y9000000D03*
X157117155Y9000000D03*
X109970711Y16000000D03*
X50004184Y15000000D03*
X148464435Y13000000D03*
X76782427Y9000000D03*
X80966527Y9000000D03*
X181937238Y16000000D03*
D13*
X78200000Y18000000D03*
D12*
X69251046Y9000000D03*
X15037011Y15000000D03*
D13*
X59800000Y18000000D03*
D12*
X32430962Y9000000D03*
X62704641Y16345375D03*
X24899582Y9000000D03*
X52514644Y9000000D03*
X111776921Y11660325D03*
X172732218Y13000000D03*
X44983264Y9000000D03*
D13*
X114200000Y18000000D03*
D12*
X76497908Y16000000D03*
D13*
X95800000Y18000000D03*
D12*
X133686192Y9000000D03*
X170398143Y12349721D03*
X50004184Y9000000D03*
X84866109Y13000000D03*
X160464435Y9000000D03*
D13*
X54200000Y18000000D03*
D12*
X56698745Y9000000D03*
X13184100Y9000000D03*
X38561556Y18503868D03*
X134130305Y11727171D03*
X99928870Y13000000D03*
X121686192Y13000000D03*
X32430962Y9000000D03*
D13*
X138280000Y18000000D03*
D12*
X85150628Y9000000D03*
X193937238Y9000000D03*
X121970711Y9000000D03*
X16531381Y10000000D03*
X169669456Y9000000D03*
X188916318Y9000000D03*
X58323878Y12495484D03*
X152933054Y9000000D03*
X9000000Y9000000D03*
%TD*%
%TO.N,N$23*%
D14*
X45000000Y29790000D02*
X45000000Y135900000D01*
D15*
X45000000Y21000000D02*
X45000000Y19525000D01*
D14*
X45000000Y21000000D02*
X45000000Y29700000D01*
%TO.N,GND*%
D16*
X106475000Y18000000D02*
X107800000Y18000000D01*
X91525000Y18000000D02*
X90200000Y18000000D01*
X67525000Y18000000D02*
X66200000Y18000000D01*
X34475000Y18000000D02*
X35800000Y18000000D01*
X115525000Y18000000D02*
X114200000Y18000000D01*
X43525000Y18000000D02*
X42200000Y18000000D01*
X190475000Y18000000D02*
X191800000Y18000000D01*
X22475000Y18000000D02*
X23800000Y18000000D01*
X55525000Y18000000D02*
X54200000Y18000000D01*
X154555000Y18000000D02*
X155880000Y18000000D01*
X187525000Y18000000D02*
X186200000Y18000000D01*
X127525000Y18000000D02*
X126200000Y18000000D01*
X166555000Y18000000D02*
X167880000Y18000000D01*
X79525000Y18000000D02*
X78200000Y18000000D01*
X94475000Y18000000D02*
X95800000Y18000000D01*
X163605000Y18000000D02*
X162280000Y18000000D01*
X142555000Y18000000D02*
X143880000Y18000000D01*
X178555000Y18000000D02*
X179880000Y18000000D01*
X82475000Y18000000D02*
X83800000Y18000000D01*
X151605000Y18000000D02*
X150280000Y18000000D01*
X70475000Y18000000D02*
X71800000Y18000000D01*
X58475000Y18000000D02*
X59800000Y18000000D01*
X19525000Y18000000D02*
X18200000Y18000000D01*
X10475000Y18000000D02*
X11800000Y18000000D01*
X139605000Y18000000D02*
X138280000Y18000000D01*
X7525000Y18000000D02*
X6200000Y18000000D01*
X118475000Y18000000D02*
X119800000Y18000000D01*
X103525000Y18000000D02*
X102200000Y18000000D01*
X130475000Y18000000D02*
X131800000Y18000000D01*
X31525000Y18000000D02*
X30200000Y18000000D01*
X46475000Y18000000D02*
X47800000Y18000000D01*
X175605000Y18000000D02*
X174280000Y18000000D01*
%TO.N,N$45*%
D14*
X177000000Y29790000D02*
X177000000Y135900000D01*
D15*
X177000000Y21000000D02*
X177080000Y19525000D01*
D14*
X177000000Y21000000D02*
X177000000Y29700000D01*
%TO.N,N$21*%
X33000000Y21000000D02*
X33000000Y29700000D01*
X33000000Y29790000D02*
X33000000Y135900000D01*
D15*
X33000000Y21000000D02*
X33000000Y19525000D01*
%TO.N,N$30*%
D14*
X81000000Y21000000D02*
X81000000Y29700000D01*
X81000000Y29790000D02*
X81000000Y135900000D01*
D15*
X81000000Y21000000D02*
X81000000Y19525000D01*
%TO.N,N$40*%
D14*
X141000000Y29790000D02*
X141000000Y135900000D01*
X141000000Y21000000D02*
X141000000Y29700000D01*
D15*
X141000000Y21000000D02*
X141080000Y19525000D01*
%TO.N,N$32*%
D14*
X93000000Y29790000D02*
X93000000Y135900000D01*
X93000000Y21000000D02*
X93000000Y29700000D01*
D15*
X93000000Y21000000D02*
X93000000Y19525000D01*
%TO.N,N$41*%
D14*
X153000000Y21000000D02*
X153000000Y29700000D01*
X153000000Y29790000D02*
X153000000Y135900000D01*
D15*
X153000000Y21000000D02*
X153080000Y19525000D01*
%TO.N,N$17*%
D14*
X9000000Y29790000D02*
X9000000Y135900000D01*
X9000000Y21000000D02*
X9000000Y29700000D01*
D15*
X9000000Y21000000D02*
X9000000Y19525000D01*
%TO.N,N$43*%
D14*
X165000000Y29790000D02*
X165000000Y135900000D01*
X165000000Y21000000D02*
X165000000Y29700000D01*
D15*
X165000000Y21000000D02*
X165080000Y19525000D01*
%TO.N,N$47*%
X189000000Y21000000D02*
X189000000Y19525000D01*
D14*
X189000000Y29790000D02*
X189000000Y135900000D01*
X189000000Y21000000D02*
X189000000Y29700000D01*
%TO.N,N$28*%
X69000000Y21000000D02*
X69000000Y29700000D01*
D15*
X69000000Y21000000D02*
X69000000Y19525000D01*
D14*
X69000000Y29790000D02*
X69000000Y135900000D01*
%TO.N,N$38*%
X129000000Y21000000D02*
X129000000Y29700000D01*
D15*
X129000000Y21000000D02*
X129000000Y19525000D01*
D14*
X129000000Y29790000D02*
X129000000Y135900000D01*
%TO.N,N$19*%
X21000000Y21000000D02*
X21000000Y29700000D01*
D15*
X21000000Y21000000D02*
X21000000Y19525000D01*
D14*
X21000000Y29790000D02*
X21000000Y135900000D01*
%TO.N,N$34*%
X105000000Y21000000D02*
X105000000Y29700000D01*
X105000000Y29790000D02*
X105000000Y135900000D01*
D15*
X105000000Y21000000D02*
X105000000Y19525000D01*
%TO.N,N$36*%
D14*
X117000000Y21000000D02*
X117000000Y29700000D01*
X117000000Y29790000D02*
X117000000Y135900000D01*
D15*
X117000000Y21000000D02*
X117000000Y19525000D01*
%TO.N,N$25*%
X57000000Y21000000D02*
X57000000Y19525000D01*
D14*
X57000000Y21000000D02*
X57000000Y29700000D01*
X57000000Y29790000D02*
X57000000Y135900000D01*
%TD*%
M02*
