%TF.GenerationSoftware,KiCad,Pcbnew,10.0.0*%
%TF.CreationDate,2026-09-20T16:56:33+08:00*%
%TF.ProjectId,Phased_Array_Ant_IPEX1,50686173-6564-45f4-9172-7261795f416e,IPEX1-A2*%
%TF.SameCoordinates,PX6c3df60PY80befc0*%
%TF.FileFunction,Copper,L1,Top*%
%TF.FilePolarity,Positive*%
%FSLAX46Y46*%
G04 Gerber Fmt 4.6, Leading zero omitted, Abs format (unit mm)*
G04 Created by KiCad (PCBNEW 10.0.0) date 2026-09-20 16:56:33*
%MOMM*%
%LPD*%
G01*
G04 APERTURE LIST*
%TA.AperFunction,SMDPad,CuDef*%
%ADD10R,9.538000X7.636000*%
%TD*%
%TA.AperFunction,ViaPad*%
%ADD11C,0.600000*%
%TD*%
%TA.AperFunction,ViaPad*%
%ADD12C,0.500000*%
%TD*%
%TA.AperFunction,Conductor*%
%ADD13C,0.200000*%
%TD*%
G04 APERTURE END LIST*
D10*
%TO.P,U$14,P$1*%
%TO.N,N$14*%
X28340000Y60520000D03*
%TD*%
%TO.P,U$15,P$1*%
%TO.N,N$15*%
X42480000Y60520000D03*
%TD*%
%TO.P,U$11,P$1*%
%TO.N,N$11*%
X42480000Y46380000D03*
%TD*%
%TO.P,U$13,P$1*%
%TO.N,N$13*%
X14200000Y60520000D03*
%TD*%
%TO.P,U$7,P$1*%
%TO.N,N$7*%
X42480000Y32240000D03*
%TD*%
%TO.P,U$2,P$1*%
%TO.N,N$2*%
X28340000Y18100000D03*
%TD*%
%TO.P,U$3,P$1*%
%TO.N,N$3*%
X42480000Y18100000D03*
%TD*%
%TO.P,U$1,P$1*%
%TO.N,N$1*%
X14200000Y18100000D03*
%TD*%
%TO.P,U$4,P$1*%
%TO.N,N$4*%
X56620000Y18100000D03*
%TD*%
%TO.P,U$6,P$1*%
%TO.N,N$6*%
X28340000Y32240000D03*
%TD*%
%TO.P,U$8,P$1*%
%TO.N,N$8*%
X56620000Y32240000D03*
%TD*%
%TO.P,U$12,P$1*%
%TO.N,N$12*%
X56620000Y46380000D03*
%TD*%
%TO.P,U$5,P$1*%
%TO.N,N$5*%
X14200000Y32240000D03*
%TD*%
%TO.P,U$10,P$1*%
%TO.N,N$10*%
X28340000Y46380000D03*
%TD*%
%TO.P,U$16,P$1*%
%TO.N,N$16*%
X56620000Y60520000D03*
%TD*%
%TO.P,U$9,P$1*%
%TO.N,N$9*%
X14200000Y46380000D03*
%TD*%
D11*
%TO.N,N$14*%
X28300000Y55200000D03*
%TO.N,N$15*%
X42500000Y55200000D03*
%TO.N,N$11*%
X42400000Y41100000D03*
%TO.N,N$13*%
X14200000Y55100000D03*
%TO.N,N$7*%
X42500000Y26900000D03*
%TO.N,N$2*%
X28300000Y12800000D03*
%TO.N,N$3*%
X42500000Y12700000D03*
%TO.N,N$1*%
X14200000Y12700000D03*
%TO.N,N$4*%
X56600000Y12700000D03*
%TO.N,N$6*%
X28300000Y26900000D03*
%TO.N,N$8*%
X56600000Y26900000D03*
%TO.N,N$12*%
X56600000Y41000000D03*
%TO.N,N$5*%
X14200000Y26900000D03*
%TO.N,N$10*%
X28300000Y41000000D03*
%TO.N,N$16*%
X56700000Y55100000D03*
%TO.N,N$9*%
X14200000Y41000000D03*
%TO.N,GND*%
X39980000Y51520000D03*
D12*
X49500000Y50500000D03*
D11*
X59120000Y23240000D03*
D12*
X35500000Y36500000D03*
D11*
X11700000Y23240000D03*
X54120000Y23240000D03*
X11700000Y9100000D03*
X25840000Y37380000D03*
X11700000Y37380000D03*
X16700000Y23240000D03*
X39980000Y23240000D03*
D12*
X49500000Y8000000D03*
D11*
X16700000Y37380000D03*
D12*
X21000000Y22000000D03*
X35500000Y50500000D03*
D11*
X39980000Y37380000D03*
X39980000Y9100000D03*
X30840000Y37380000D03*
X59120000Y37380000D03*
X25840000Y51520000D03*
X16700000Y51520000D03*
D12*
X21000000Y36500000D03*
D11*
X59120000Y51520000D03*
D12*
X35500000Y8000000D03*
D11*
X54120000Y9100000D03*
X54120000Y37380000D03*
D12*
X49500000Y22000000D03*
X21000000Y50500000D03*
D11*
X30840000Y9100000D03*
X59120000Y9100000D03*
X44980000Y23240000D03*
D12*
X35500000Y22000000D03*
D11*
X54120000Y51520000D03*
X16700000Y9100000D03*
X44980000Y51520000D03*
X44980000Y9100000D03*
D12*
X21000000Y8000000D03*
D11*
X30840000Y51520000D03*
X30840000Y23240000D03*
X25840000Y23240000D03*
D12*
X49500000Y36500000D03*
D11*
X11700000Y51520000D03*
X44980000Y37380000D03*
X25840000Y9100000D03*
%TD*%
%TO.N,N$14*%
D13*
X28300000Y55200000D02*
X28300000Y60520000D01*
X28300000Y60520000D02*
X28340000Y60520000D01*
%TO.N,N$15*%
X42500000Y55200000D02*
X42500000Y60520000D01*
X42500000Y60520000D02*
X42480000Y60520000D01*
%TO.N,N$11*%
X42400000Y41100000D02*
X42400000Y46380000D01*
X42400000Y46380000D02*
X42480000Y46380000D01*
%TO.N,N$13*%
X14200000Y55100000D02*
X14200000Y60520000D01*
%TO.N,N$7*%
X42500000Y26900000D02*
X42500000Y32240000D01*
X42500000Y32240000D02*
X42480000Y32240000D01*
%TO.N,N$2*%
X28300000Y18100000D02*
X28340000Y18100000D01*
X28300000Y12800000D02*
X28300000Y18100000D01*
%TO.N,N$3*%
X42500000Y18100000D02*
X42480000Y18100000D01*
X42500000Y12700000D02*
X42500000Y18100000D01*
%TO.N,N$1*%
X14200000Y12700000D02*
X14200000Y18100000D01*
%TO.N,N$4*%
X56600000Y18100000D02*
X56620000Y18100000D01*
X56600000Y12700000D02*
X56600000Y18100000D01*
%TO.N,N$6*%
X28300000Y26900000D02*
X28300000Y32240000D01*
X28300000Y32240000D02*
X28340000Y32240000D01*
%TO.N,N$8*%
X56600000Y26900000D02*
X56600000Y32240000D01*
X56600000Y32240000D02*
X56620000Y32240000D01*
%TO.N,N$12*%
X56600000Y46380000D02*
X56620000Y46380000D01*
X56600000Y41000000D02*
X56600000Y46380000D01*
%TO.N,N$5*%
X14200000Y26900000D02*
X14200000Y32240000D01*
%TO.N,N$10*%
X28300000Y41000000D02*
X28300000Y46380000D01*
X28300000Y46380000D02*
X28340000Y46380000D01*
%TO.N,N$16*%
X56700000Y60520000D02*
X56620000Y60520000D01*
X56700000Y55100000D02*
X56700000Y60520000D01*
%TO.N,N$9*%
X14200000Y41000000D02*
X14200000Y46380000D01*
%TD*%
M02*
