%TF.GenerationSoftware,KiCad,Pcbnew,10.0.0*%
%TF.CreationDate,2026-09-20T16:56:33+08:00*%
%TF.ProjectId,Phased_Array_Ant_IPEX1,50686173-6564-45f4-9172-7261795f416e,IPEX1-A2*%
%TF.SameCoordinates,PX6c3df60PY80befc0*%
%TF.FileFunction,Copper,L4,Bot*%
%TF.FilePolarity,Positive*%
%FSLAX46Y46*%
G04 Gerber Fmt 4.6, Leading zero omitted, Abs format (unit mm)*
G04 Created by KiCad (PCBNEW 10.0.0) date 2026-09-20 16:56:33*
%MOMM*%
%LPD*%
G01*
G04 APERTURE LIST*
%TA.AperFunction,SMDPad,CuDef*%
%ADD10R,1.000000X1.050000*%
%TD*%
%TA.AperFunction,SMDPad,CuDef*%
%ADD11R,1.050000X2.200000*%
%TD*%
%TA.AperFunction,ViaPad*%
%ADD12C,0.600000*%
%TD*%
%TA.AperFunction,ViaPad*%
%ADD13C,0.500000*%
%TD*%
%TA.AperFunction,Conductor*%
%ADD14C,0.200000*%
%TD*%
%TA.AperFunction,Conductor*%
%ADD15C,0.300000*%
%TD*%
G04 APERTURE END LIST*
D10*
%TO.P,J13,1*%
%TO.N,N$13*%
X14200000Y52045000D03*
D11*
%TO.P,J13,2*%
%TO.N,GND*%
X12725000Y50520000D03*
%TO.P,J13,3*%
X15675000Y50520000D03*
%TD*%
D10*
%TO.P,J14,1*%
%TO.N,N$14*%
X28340000Y52045000D03*
D11*
%TO.P,J14,2*%
%TO.N,GND*%
X26865000Y50520000D03*
%TO.P,J14,3*%
X29815000Y50520000D03*
%TD*%
D10*
%TO.P,J10,1*%
%TO.N,N$10*%
X28340000Y37905000D03*
D11*
%TO.P,J10,2*%
%TO.N,GND*%
X26865000Y36380000D03*
%TO.P,J10,3*%
X29815000Y36380000D03*
%TD*%
D10*
%TO.P,J3,1*%
%TO.N,N$3*%
X42480000Y9625000D03*
D11*
%TO.P,J3,2*%
%TO.N,GND*%
X41005000Y8100000D03*
%TO.P,J3,3*%
X43955000Y8100000D03*
%TD*%
D10*
%TO.P,J1,1*%
%TO.N,N$1*%
X14200000Y9625000D03*
D11*
%TO.P,J1,2*%
%TO.N,GND*%
X12725000Y8100000D03*
%TO.P,J1,3*%
X15675000Y8100000D03*
%TD*%
D10*
%TO.P,J7,1*%
%TO.N,N$7*%
X42480000Y23765000D03*
D11*
%TO.P,J7,2*%
%TO.N,GND*%
X41005000Y22240000D03*
%TO.P,J7,3*%
X43955000Y22240000D03*
%TD*%
D10*
%TO.P,J15,1*%
%TO.N,N$15*%
X42480000Y52045000D03*
D11*
%TO.P,J15,2*%
%TO.N,GND*%
X41005000Y50520000D03*
%TO.P,J15,3*%
X43955000Y50520000D03*
%TD*%
D10*
%TO.P,J6,1*%
%TO.N,N$6*%
X28340000Y23765000D03*
D11*
%TO.P,J6,2*%
%TO.N,GND*%
X26865000Y22240000D03*
%TO.P,J6,3*%
X29815000Y22240000D03*
%TD*%
D10*
%TO.P,J4,1*%
%TO.N,N$4*%
X56620000Y9625000D03*
D11*
%TO.P,J4,2*%
%TO.N,GND*%
X55145000Y8100000D03*
%TO.P,J4,3*%
X58095000Y8100000D03*
%TD*%
D10*
%TO.P,J2,1*%
%TO.N,N$2*%
X28340000Y9625000D03*
D11*
%TO.P,J2,2*%
%TO.N,GND*%
X26865000Y8100000D03*
%TO.P,J2,3*%
X29815000Y8100000D03*
%TD*%
D10*
%TO.P,J8,1*%
%TO.N,N$8*%
X56620000Y23765000D03*
D11*
%TO.P,J8,2*%
%TO.N,GND*%
X55145000Y22240000D03*
%TO.P,J8,3*%
X58095000Y22240000D03*
%TD*%
D10*
%TO.P,J9,1*%
%TO.N,N$9*%
X14200000Y37905000D03*
D11*
%TO.P,J9,2*%
%TO.N,GND*%
X12725000Y36380000D03*
%TO.P,J9,3*%
X15675000Y36380000D03*
%TD*%
D10*
%TO.P,J12,1*%
%TO.N,N$12*%
X56620000Y37905000D03*
D11*
%TO.P,J12,2*%
%TO.N,GND*%
X55145000Y36380000D03*
%TO.P,J12,3*%
X58095000Y36380000D03*
%TD*%
D10*
%TO.P,J16,1*%
%TO.N,N$16*%
X56620000Y52045000D03*
D11*
%TO.P,J16,2*%
%TO.N,GND*%
X55145000Y50520000D03*
%TO.P,J16,3*%
X58095000Y50520000D03*
%TD*%
D10*
%TO.P,J11,1*%
%TO.N,N$11*%
X42480000Y37905000D03*
D11*
%TO.P,J11,2*%
%TO.N,GND*%
X41005000Y36380000D03*
%TO.P,J11,3*%
X43955000Y36380000D03*
%TD*%
D10*
%TO.P,J5,1*%
%TO.N,N$5*%
X14200000Y23765000D03*
D11*
%TO.P,J5,2*%
%TO.N,GND*%
X12725000Y22240000D03*
%TO.P,J5,3*%
X15675000Y22240000D03*
%TD*%
D12*
%TO.N,N$14*%
X28300000Y55200000D03*
%TO.N,N$15*%
X42500000Y55200000D03*
%TO.N,N$11*%
X42400000Y41100000D03*
%TO.N,N$13*%
X14200000Y55100000D03*
%TO.N,N$7*%
X42500000Y26900000D03*
%TO.N,N$2*%
X28300000Y12800000D03*
%TO.N,N$3*%
X42500000Y12700000D03*
%TO.N,N$1*%
X14200000Y12700000D03*
%TO.N,N$4*%
X56600000Y12700000D03*
%TO.N,N$6*%
X28300000Y26900000D03*
%TO.N,N$8*%
X56600000Y26900000D03*
%TO.N,N$12*%
X56600000Y41000000D03*
%TO.N,N$5*%
X14200000Y26900000D03*
%TO.N,N$10*%
X28300000Y41000000D03*
%TO.N,N$16*%
X56700000Y55100000D03*
%TO.N,N$9*%
X14200000Y41000000D03*
%TO.N,GND*%
X39980000Y51520000D03*
D13*
X49500000Y50500000D03*
D12*
X59120000Y23240000D03*
D13*
X35500000Y36500000D03*
D12*
X11700000Y23240000D03*
X54120000Y23240000D03*
X11700000Y9100000D03*
X25840000Y37380000D03*
X11700000Y37380000D03*
X16700000Y23240000D03*
X39980000Y23240000D03*
D13*
X49500000Y8000000D03*
D12*
X16700000Y37380000D03*
D13*
X21000000Y22000000D03*
X35500000Y50500000D03*
D12*
X39980000Y37380000D03*
X39980000Y9100000D03*
X30840000Y37380000D03*
X59120000Y37380000D03*
X25840000Y51520000D03*
X16700000Y51520000D03*
D13*
X21000000Y36500000D03*
D12*
X59120000Y51520000D03*
D13*
X35500000Y8000000D03*
D12*
X54120000Y9100000D03*
X54120000Y37380000D03*
D13*
X49500000Y22000000D03*
X21000000Y50500000D03*
D12*
X30840000Y9100000D03*
X59120000Y9100000D03*
X44980000Y23240000D03*
D13*
X35500000Y22000000D03*
D12*
X54120000Y51520000D03*
X16700000Y9100000D03*
X44980000Y51520000D03*
X44980000Y9100000D03*
D13*
X21000000Y8000000D03*
D12*
X30840000Y51520000D03*
X30840000Y23240000D03*
X25840000Y23240000D03*
D13*
X49500000Y36500000D03*
D12*
X11700000Y51520000D03*
X44980000Y37380000D03*
X25840000Y9100000D03*
%TD*%
%TO.N,N$14*%
D14*
X28340000Y55200000D02*
X28300000Y55200000D01*
X28340000Y52045000D02*
X28340000Y55200000D01*
%TO.N,N$15*%
X42480000Y52045000D02*
X42480000Y55200000D01*
X42480000Y55200000D02*
X42500000Y55200000D01*
%TO.N,N$11*%
X42480000Y41100000D02*
X42400000Y41100000D01*
X42480000Y37905000D02*
X42480000Y41100000D01*
%TO.N,N$13*%
X14200000Y52045000D02*
X14200000Y55100000D01*
%TO.N,N$7*%
X42480000Y26900000D02*
X42500000Y26900000D01*
X42480000Y23765000D02*
X42480000Y26900000D01*
%TO.N,N$2*%
X28340000Y12800000D02*
X28300000Y12800000D01*
X28340000Y9625000D02*
X28340000Y12800000D01*
%TO.N,N$3*%
X42480000Y9625000D02*
X42480000Y12700000D01*
X42480000Y12700000D02*
X42500000Y12700000D01*
%TO.N,N$1*%
X14200000Y9625000D02*
X14200000Y12700000D01*
%TO.N,N$4*%
X56620000Y12700000D02*
X56600000Y12700000D01*
X56620000Y9625000D02*
X56620000Y12700000D01*
%TO.N,N$6*%
X28340000Y26900000D02*
X28300000Y26900000D01*
X28340000Y23765000D02*
X28340000Y26900000D01*
%TO.N,N$8*%
X56620000Y26900000D02*
X56600000Y26900000D01*
X56620000Y23765000D02*
X56620000Y26900000D01*
%TO.N,N$12*%
X56620000Y41000000D02*
X56600000Y41000000D01*
X56620000Y37905000D02*
X56620000Y41000000D01*
%TO.N,N$5*%
X14200000Y23765000D02*
X14200000Y26900000D01*
%TO.N,N$10*%
X28340000Y41000000D02*
X28300000Y41000000D01*
X28340000Y37905000D02*
X28340000Y41000000D01*
%TO.N,N$16*%
X56620000Y55100000D02*
X56700000Y55100000D01*
X56620000Y52045000D02*
X56620000Y55100000D01*
%TO.N,N$9*%
X14200000Y37905000D02*
X14200000Y41000000D01*
%TO.N,GND*%
D15*
X15675000Y50520000D02*
X16700000Y51520000D01*
X41005000Y50520000D02*
X39980000Y51520000D01*
X58095000Y22240000D02*
X59120000Y23240000D01*
X43955000Y50520000D02*
X44980000Y51520000D01*
X43955000Y22240000D02*
X44980000Y23240000D01*
X58095000Y36380000D02*
X59120000Y37380000D01*
X41005000Y8100000D02*
X39980000Y9100000D01*
X26865000Y36380000D02*
X25840000Y37380000D01*
X29815000Y36380000D02*
X30840000Y37380000D01*
X15675000Y22240000D02*
X16700000Y23240000D01*
X29815000Y22240000D02*
X30840000Y23240000D01*
X58095000Y50520000D02*
X59120000Y51520000D01*
X15675000Y36380000D02*
X16700000Y37380000D01*
X41005000Y36380000D02*
X39980000Y37380000D01*
X58095000Y8100000D02*
X59120000Y9100000D01*
X41005000Y22240000D02*
X39980000Y23240000D01*
X55145000Y36380000D02*
X54120000Y37380000D01*
X26865000Y50520000D02*
X25840000Y51520000D01*
X29815000Y8100000D02*
X30840000Y9100000D01*
X12725000Y8100000D02*
X11700000Y9100000D01*
X55145000Y22240000D02*
X54120000Y23240000D01*
X43955000Y36380000D02*
X44980000Y37380000D01*
X12725000Y36380000D02*
X11700000Y37380000D01*
X55145000Y8100000D02*
X54120000Y9100000D01*
X12725000Y22240000D02*
X11700000Y23240000D01*
X43955000Y8100000D02*
X44980000Y9100000D01*
X26865000Y22240000D02*
X25840000Y23240000D01*
X26865000Y8100000D02*
X25840000Y9100000D01*
X55145000Y50520000D02*
X54120000Y51520000D01*
X29815000Y50520000D02*
X30840000Y51520000D01*
X15675000Y8100000D02*
X16700000Y9100000D01*
X12725000Y50520000D02*
X11700000Y51520000D01*
%TD*%
M02*
