%TF.GenerationSoftware,KiCad,Pcbnew,10.0.0*%
%TF.CreationDate,2026-09-20T16:56:33+08:00*%
%TF.ProjectId,Phased_Array_Ant_IPEX1,50686173-6564-45f4-9172-7261795f416e,IPEX1-A2*%
%TF.SameCoordinates,PX6c3df60PY80befc0*%
%TF.FileFunction,Copper,L2,Inr*%
%TF.FilePolarity,Positive*%
%FSLAX46Y46*%
G04 Gerber Fmt 4.6, Leading zero omitted, Abs format (unit mm)*
G04 Created by KiCad (PCBNEW 10.0.0) date 2026-09-20 16:56:33*
%MOMM*%
%LPD*%
G01*
G04 APERTURE LIST*
%TA.AperFunction,ViaPad*%
%ADD10C,0.600000*%
%TD*%
%TA.AperFunction,ViaPad*%
%ADD11C,0.500000*%
%TD*%
G04 APERTURE END LIST*
D10*
%TO.N,N$14*%
X28300000Y55200000D03*
%TO.N,N$15*%
X42500000Y55200000D03*
%TO.N,N$11*%
X42400000Y41100000D03*
%TO.N,N$13*%
X14200000Y55100000D03*
%TO.N,N$7*%
X42500000Y26900000D03*
%TO.N,N$2*%
X28300000Y12800000D03*
%TO.N,N$3*%
X42500000Y12700000D03*
%TO.N,N$1*%
X14200000Y12700000D03*
%TO.N,N$4*%
X56600000Y12700000D03*
%TO.N,N$6*%
X28300000Y26900000D03*
%TO.N,N$8*%
X56600000Y26900000D03*
%TO.N,N$12*%
X56600000Y41000000D03*
%TO.N,N$5*%
X14200000Y26900000D03*
%TO.N,N$10*%
X28300000Y41000000D03*
%TO.N,N$16*%
X56700000Y55100000D03*
%TO.N,N$9*%
X14200000Y41000000D03*
%TO.N,GND*%
X39980000Y51520000D03*
D11*
X49500000Y50500000D03*
D10*
X59120000Y23240000D03*
D11*
X35500000Y36500000D03*
D10*
X11700000Y23240000D03*
X54120000Y23240000D03*
X11700000Y9100000D03*
X25840000Y37380000D03*
X11700000Y37380000D03*
X16700000Y23240000D03*
X39980000Y23240000D03*
D11*
X49500000Y8000000D03*
D10*
X16700000Y37380000D03*
D11*
X21000000Y22000000D03*
X35500000Y50500000D03*
D10*
X39980000Y37380000D03*
X39980000Y9100000D03*
X30840000Y37380000D03*
X59120000Y37380000D03*
X25840000Y51520000D03*
X16700000Y51520000D03*
D11*
X21000000Y36500000D03*
D10*
X59120000Y51520000D03*
D11*
X35500000Y8000000D03*
D10*
X54120000Y9100000D03*
X54120000Y37380000D03*
D11*
X49500000Y22000000D03*
X21000000Y50500000D03*
D10*
X30840000Y9100000D03*
X59120000Y9100000D03*
X44980000Y23240000D03*
D11*
X35500000Y22000000D03*
D10*
X54120000Y51520000D03*
X16700000Y9100000D03*
X44980000Y51520000D03*
X44980000Y9100000D03*
D11*
X21000000Y8000000D03*
D10*
X30840000Y51520000D03*
X30840000Y23240000D03*
X25840000Y23240000D03*
D11*
X49500000Y36500000D03*
D10*
X11700000Y51520000D03*
X44980000Y37380000D03*
X25840000Y9100000D03*
%TD*%
%TA.AperFunction,Conductor*%
%TO.N,GND*%
G36*
X66941599Y69680593D02*
G01*
X66977563Y69631093D01*
X66977563Y69569907D01*
X66943675Y69521958D01*
X66777268Y69394271D01*
X66605729Y69222732D01*
X66458066Y69030293D01*
X66336772Y68820205D01*
X66243948Y68596106D01*
X66243944Y68596093D01*
X66181161Y68361787D01*
X66181161Y68361782D01*
X66149500Y68121290D01*
X66149500Y67878711D01*
X66181161Y67638219D01*
X66181161Y67638214D01*
X66243944Y67403908D01*
X66243948Y67403895D01*
X66336772Y67179796D01*
X66336774Y67179792D01*
X66336776Y67179788D01*
X66453531Y66977563D01*
X66458066Y66969708D01*
X66605729Y66777269D01*
X66605731Y66777267D01*
X66605735Y66777262D01*
X66777262Y66605735D01*
X66777266Y66605732D01*
X66777268Y66605730D01*
X66969707Y66458067D01*
X66969711Y66458064D01*
X67179788Y66336776D01*
X67403900Y66243946D01*
X67638211Y66181162D01*
X67878712Y66149500D01*
X67878713Y66149500D01*
X68121287Y66149500D01*
X68121288Y66149500D01*
X68361789Y66181162D01*
X68596100Y66243946D01*
X68820212Y66336776D01*
X69030289Y66458064D01*
X69222738Y66605735D01*
X69394265Y66777262D01*
X69521958Y66943675D01*
X69572382Y66978331D01*
X69633547Y66976730D01*
X69682088Y66939482D01*
X69699500Y66883408D01*
X69699500Y3116593D01*
X69680593Y3058402D01*
X69631093Y3022438D01*
X69569907Y3022438D01*
X69521958Y3056326D01*
X69394270Y3222732D01*
X69394268Y3222734D01*
X69394265Y3222738D01*
X69222738Y3394265D01*
X69222733Y3394269D01*
X69222731Y3394271D01*
X69030292Y3541934D01*
X69030289Y3541936D01*
X68820212Y3663224D01*
X68820208Y3663226D01*
X68820204Y3663228D01*
X68596105Y3756052D01*
X68596104Y3756053D01*
X68596100Y3756054D01*
X68361789Y3818838D01*
X68361786Y3818839D01*
X68361784Y3818839D01*
X68121289Y3850500D01*
X68121288Y3850500D01*
X67878712Y3850500D01*
X67878710Y3850500D01*
X67638218Y3818839D01*
X67638213Y3818839D01*
X67403907Y3756056D01*
X67403894Y3756052D01*
X67179795Y3663228D01*
X66969707Y3541934D01*
X66777268Y3394271D01*
X66605729Y3222732D01*
X66458066Y3030293D01*
X66336772Y2820205D01*
X66243948Y2596106D01*
X66243944Y2596093D01*
X66181161Y2361787D01*
X66181161Y2361782D01*
X66149500Y2121290D01*
X66149500Y1878711D01*
X66181161Y1638219D01*
X66181161Y1638214D01*
X66243944Y1403908D01*
X66243948Y1403895D01*
X66336772Y1179796D01*
X66336774Y1179792D01*
X66336776Y1179788D01*
X66453531Y977563D01*
X66458066Y969708D01*
X66605729Y777269D01*
X66605731Y777267D01*
X66605735Y777262D01*
X66777262Y605735D01*
X66777266Y605732D01*
X66777268Y605730D01*
X66943675Y478042D01*
X66978331Y427618D01*
X66976730Y366453D01*
X66939482Y317912D01*
X66883408Y300500D01*
X3116592Y300500D01*
X3058401Y319407D01*
X3022437Y368907D01*
X3022437Y430093D01*
X3056325Y478042D01*
X3222731Y605730D01*
X3222738Y605735D01*
X3394265Y777262D01*
X3541936Y969711D01*
X3663224Y1179788D01*
X3756054Y1403900D01*
X3818838Y1638211D01*
X3850500Y1878712D01*
X3850500Y2121288D01*
X3818838Y2361789D01*
X3756054Y2596100D01*
X3663224Y2820212D01*
X3541936Y3030289D01*
X3394265Y3222738D01*
X3222738Y3394265D01*
X3222733Y3394269D01*
X3222731Y3394271D01*
X3030292Y3541934D01*
X3030289Y3541936D01*
X2820212Y3663224D01*
X2820208Y3663226D01*
X2820204Y3663228D01*
X2596105Y3756052D01*
X2596104Y3756053D01*
X2596100Y3756054D01*
X2361789Y3818838D01*
X2361786Y3818839D01*
X2361784Y3818839D01*
X2121289Y3850500D01*
X2121288Y3850500D01*
X1878712Y3850500D01*
X1878710Y3850500D01*
X1638218Y3818839D01*
X1638213Y3818839D01*
X1403907Y3756056D01*
X1403894Y3756052D01*
X1179795Y3663228D01*
X969707Y3541934D01*
X777268Y3394271D01*
X605729Y3222732D01*
X478042Y3056326D01*
X427618Y3021670D01*
X366453Y3023271D01*
X317912Y3060519D01*
X300500Y3116593D01*
X300500Y12765892D01*
X13699500Y12765892D01*
X13699500Y12634108D01*
X13729579Y12521849D01*
X13733609Y12506810D01*
X13799496Y12392691D01*
X13799498Y12392689D01*
X13799500Y12392686D01*
X13892686Y12299500D01*
X13892688Y12299499D01*
X13892690Y12299497D01*
X14006810Y12233610D01*
X14006808Y12233610D01*
X14006812Y12233609D01*
X14006814Y12233608D01*
X14134108Y12199500D01*
X14134110Y12199500D01*
X14265890Y12199500D01*
X14265892Y12199500D01*
X14393186Y12233608D01*
X14393188Y12233610D01*
X14393190Y12233610D01*
X14507309Y12299497D01*
X14507309Y12299498D01*
X14507314Y12299500D01*
X14600500Y12392686D01*
X14666392Y12506814D01*
X14700500Y12634108D01*
X14700500Y12765892D01*
X14673705Y12865892D01*
X27799500Y12865892D01*
X27799500Y12734108D01*
X27826294Y12634110D01*
X27833609Y12606810D01*
X27899496Y12492691D01*
X27899498Y12492689D01*
X27899500Y12492686D01*
X27992686Y12399500D01*
X27992688Y12399499D01*
X27992690Y12399497D01*
X28106810Y12333610D01*
X28106808Y12333610D01*
X28106812Y12333609D01*
X28106814Y12333608D01*
X28234108Y12299500D01*
X28234110Y12299500D01*
X28365890Y12299500D01*
X28365892Y12299500D01*
X28493186Y12333608D01*
X28493188Y12333610D01*
X28493190Y12333610D01*
X28607309Y12399497D01*
X28607309Y12399498D01*
X28607314Y12399500D01*
X28700500Y12492686D01*
X28766392Y12606814D01*
X28800500Y12734108D01*
X28800500Y12765892D01*
X41999500Y12765892D01*
X41999500Y12634108D01*
X42029579Y12521849D01*
X42033609Y12506810D01*
X42099496Y12392691D01*
X42099498Y12392689D01*
X42099500Y12392686D01*
X42192686Y12299500D01*
X42192688Y12299499D01*
X42192690Y12299497D01*
X42306810Y12233610D01*
X42306808Y12233610D01*
X42306812Y12233609D01*
X42306814Y12233608D01*
X42434108Y12199500D01*
X42434110Y12199500D01*
X42565890Y12199500D01*
X42565892Y12199500D01*
X42693186Y12233608D01*
X42693188Y12233610D01*
X42693190Y12233610D01*
X42807309Y12299497D01*
X42807309Y12299498D01*
X42807314Y12299500D01*
X42900500Y12392686D01*
X42966392Y12506814D01*
X43000500Y12634108D01*
X43000500Y12765892D01*
X56099500Y12765892D01*
X56099500Y12634108D01*
X56129579Y12521849D01*
X56133609Y12506810D01*
X56199496Y12392691D01*
X56199498Y12392689D01*
X56199500Y12392686D01*
X56292686Y12299500D01*
X56292688Y12299499D01*
X56292690Y12299497D01*
X56406810Y12233610D01*
X56406808Y12233610D01*
X56406812Y12233609D01*
X56406814Y12233608D01*
X56534108Y12199500D01*
X56534110Y12199500D01*
X56665890Y12199500D01*
X56665892Y12199500D01*
X56793186Y12233608D01*
X56793188Y12233610D01*
X56793190Y12233610D01*
X56907309Y12299497D01*
X56907309Y12299498D01*
X56907314Y12299500D01*
X57000500Y12392686D01*
X57066392Y12506814D01*
X57100500Y12634108D01*
X57100500Y12765892D01*
X57066392Y12893186D01*
X57066390Y12893189D01*
X57066390Y12893191D01*
X57000503Y13007310D01*
X57000501Y13007312D01*
X57000500Y13007314D01*
X56907314Y13100500D01*
X56907311Y13100502D01*
X56907309Y13100504D01*
X56793189Y13166391D01*
X56793191Y13166391D01*
X56743799Y13179625D01*
X56665892Y13200500D01*
X56534108Y13200500D01*
X56456200Y13179625D01*
X56406809Y13166391D01*
X56292690Y13100504D01*
X56199496Y13007310D01*
X56133609Y12893191D01*
X56126294Y12865891D01*
X56099500Y12765892D01*
X43000500Y12765892D01*
X42966392Y12893186D01*
X42966390Y12893189D01*
X42966390Y12893191D01*
X42900503Y13007310D01*
X42900501Y13007312D01*
X42900500Y13007314D01*
X42807314Y13100500D01*
X42807311Y13100502D01*
X42807309Y13100504D01*
X42693189Y13166391D01*
X42693191Y13166391D01*
X42643799Y13179625D01*
X42565892Y13200500D01*
X42434108Y13200500D01*
X42356200Y13179625D01*
X42306809Y13166391D01*
X42192690Y13100504D01*
X42099496Y13007310D01*
X42033609Y12893191D01*
X42026294Y12865891D01*
X41999500Y12765892D01*
X28800500Y12765892D01*
X28800500Y12865892D01*
X28766392Y12993186D01*
X28766390Y12993189D01*
X28766390Y12993191D01*
X28700503Y13107310D01*
X28700501Y13107312D01*
X28700500Y13107314D01*
X28607314Y13200500D01*
X28607311Y13200502D01*
X28607309Y13200504D01*
X28493189Y13266391D01*
X28493191Y13266391D01*
X28443799Y13279625D01*
X28365892Y13300500D01*
X28234108Y13300500D01*
X28156200Y13279625D01*
X28106809Y13266391D01*
X27992690Y13200504D01*
X27899496Y13107310D01*
X27833609Y12993191D01*
X27833608Y12993186D01*
X27799500Y12865892D01*
X14673705Y12865892D01*
X14666392Y12893186D01*
X14666390Y12893189D01*
X14666390Y12893191D01*
X14600503Y13007310D01*
X14600501Y13007312D01*
X14600500Y13007314D01*
X14507314Y13100500D01*
X14507311Y13100502D01*
X14507309Y13100504D01*
X14393189Y13166391D01*
X14393191Y13166391D01*
X14343799Y13179625D01*
X14265892Y13200500D01*
X14134108Y13200500D01*
X14056200Y13179625D01*
X14006809Y13166391D01*
X13892690Y13100504D01*
X13799496Y13007310D01*
X13733609Y12893191D01*
X13726294Y12865891D01*
X13699500Y12765892D01*
X300500Y12765892D01*
X300500Y26965892D01*
X13699500Y26965892D01*
X13699500Y26834108D01*
X13729579Y26721849D01*
X13733609Y26706810D01*
X13799496Y26592691D01*
X13799498Y26592689D01*
X13799500Y26592686D01*
X13892686Y26499500D01*
X13892688Y26499499D01*
X13892690Y26499497D01*
X14006810Y26433610D01*
X14006808Y26433610D01*
X14006812Y26433609D01*
X14006814Y26433608D01*
X14134108Y26399500D01*
X14134110Y26399500D01*
X14265890Y26399500D01*
X14265892Y26399500D01*
X14393186Y26433608D01*
X14393188Y26433610D01*
X14393190Y26433610D01*
X14507309Y26499497D01*
X14507309Y26499498D01*
X14507314Y26499500D01*
X14600500Y26592686D01*
X14666392Y26706814D01*
X14700500Y26834108D01*
X14700500Y26965892D01*
X27799500Y26965892D01*
X27799500Y26834108D01*
X27829579Y26721849D01*
X27833609Y26706810D01*
X27899496Y26592691D01*
X27899498Y26592689D01*
X27899500Y26592686D01*
X27992686Y26499500D01*
X27992688Y26499499D01*
X27992690Y26499497D01*
X28106810Y26433610D01*
X28106808Y26433610D01*
X28106812Y26433609D01*
X28106814Y26433608D01*
X28234108Y26399500D01*
X28234110Y26399500D01*
X28365890Y26399500D01*
X28365892Y26399500D01*
X28493186Y26433608D01*
X28493188Y26433610D01*
X28493190Y26433610D01*
X28607309Y26499497D01*
X28607309Y26499498D01*
X28607314Y26499500D01*
X28700500Y26592686D01*
X28766392Y26706814D01*
X28800500Y26834108D01*
X28800500Y26965892D01*
X41999500Y26965892D01*
X41999500Y26834108D01*
X42029579Y26721849D01*
X42033609Y26706810D01*
X42099496Y26592691D01*
X42099498Y26592689D01*
X42099500Y26592686D01*
X42192686Y26499500D01*
X42192688Y26499499D01*
X42192690Y26499497D01*
X42306810Y26433610D01*
X42306808Y26433610D01*
X42306812Y26433609D01*
X42306814Y26433608D01*
X42434108Y26399500D01*
X42434110Y26399500D01*
X42565890Y26399500D01*
X42565892Y26399500D01*
X42693186Y26433608D01*
X42693188Y26433610D01*
X42693190Y26433610D01*
X42807309Y26499497D01*
X42807309Y26499498D01*
X42807314Y26499500D01*
X42900500Y26592686D01*
X42966392Y26706814D01*
X43000500Y26834108D01*
X43000500Y26965892D01*
X56099500Y26965892D01*
X56099500Y26834108D01*
X56129579Y26721849D01*
X56133609Y26706810D01*
X56199496Y26592691D01*
X56199498Y26592689D01*
X56199500Y26592686D01*
X56292686Y26499500D01*
X56292688Y26499499D01*
X56292690Y26499497D01*
X56406810Y26433610D01*
X56406808Y26433610D01*
X56406812Y26433609D01*
X56406814Y26433608D01*
X56534108Y26399500D01*
X56534110Y26399500D01*
X56665890Y26399500D01*
X56665892Y26399500D01*
X56793186Y26433608D01*
X56793188Y26433610D01*
X56793190Y26433610D01*
X56907309Y26499497D01*
X56907309Y26499498D01*
X56907314Y26499500D01*
X57000500Y26592686D01*
X57066392Y26706814D01*
X57100500Y26834108D01*
X57100500Y26965892D01*
X57066392Y27093186D01*
X57066390Y27093189D01*
X57066390Y27093191D01*
X57000503Y27207310D01*
X57000501Y27207312D01*
X57000500Y27207314D01*
X56907314Y27300500D01*
X56907311Y27300502D01*
X56907309Y27300504D01*
X56793189Y27366391D01*
X56793191Y27366391D01*
X56743799Y27379625D01*
X56665892Y27400500D01*
X56534108Y27400500D01*
X56456200Y27379625D01*
X56406809Y27366391D01*
X56292690Y27300504D01*
X56199496Y27207310D01*
X56133609Y27093191D01*
X56133608Y27093186D01*
X56099500Y26965892D01*
X43000500Y26965892D01*
X42966392Y27093186D01*
X42966390Y27093189D01*
X42966390Y27093191D01*
X42900503Y27207310D01*
X42900501Y27207312D01*
X42900500Y27207314D01*
X42807314Y27300500D01*
X42807311Y27300502D01*
X42807309Y27300504D01*
X42693189Y27366391D01*
X42693191Y27366391D01*
X42643799Y27379625D01*
X42565892Y27400500D01*
X42434108Y27400500D01*
X42356200Y27379625D01*
X42306809Y27366391D01*
X42192690Y27300504D01*
X42099496Y27207310D01*
X42033609Y27093191D01*
X42033608Y27093186D01*
X41999500Y26965892D01*
X28800500Y26965892D01*
X28766392Y27093186D01*
X28766390Y27093189D01*
X28766390Y27093191D01*
X28700503Y27207310D01*
X28700501Y27207312D01*
X28700500Y27207314D01*
X28607314Y27300500D01*
X28607311Y27300502D01*
X28607309Y27300504D01*
X28493189Y27366391D01*
X28493191Y27366391D01*
X28443799Y27379625D01*
X28365892Y27400500D01*
X28234108Y27400500D01*
X28156200Y27379625D01*
X28106809Y27366391D01*
X27992690Y27300504D01*
X27899496Y27207310D01*
X27833609Y27093191D01*
X27833608Y27093186D01*
X27799500Y26965892D01*
X14700500Y26965892D01*
X14666392Y27093186D01*
X14666390Y27093189D01*
X14666390Y27093191D01*
X14600503Y27207310D01*
X14600501Y27207312D01*
X14600500Y27207314D01*
X14507314Y27300500D01*
X14507311Y27300502D01*
X14507309Y27300504D01*
X14393189Y27366391D01*
X14393191Y27366391D01*
X14343799Y27379625D01*
X14265892Y27400500D01*
X14134108Y27400500D01*
X14056200Y27379625D01*
X14006809Y27366391D01*
X13892690Y27300504D01*
X13799496Y27207310D01*
X13733609Y27093191D01*
X13733608Y27093186D01*
X13699500Y26965892D01*
X300500Y26965892D01*
X300500Y41065892D01*
X13699500Y41065892D01*
X13699500Y40934108D01*
X13729579Y40821849D01*
X13733609Y40806810D01*
X13799496Y40692691D01*
X13799498Y40692689D01*
X13799500Y40692686D01*
X13892686Y40599500D01*
X13892688Y40599499D01*
X13892690Y40599497D01*
X14006810Y40533610D01*
X14006808Y40533610D01*
X14006812Y40533609D01*
X14006814Y40533608D01*
X14134108Y40499500D01*
X14134110Y40499500D01*
X14265890Y40499500D01*
X14265892Y40499500D01*
X14393186Y40533608D01*
X14393188Y40533610D01*
X14393190Y40533610D01*
X14507309Y40599497D01*
X14507309Y40599498D01*
X14507314Y40599500D01*
X14600500Y40692686D01*
X14666392Y40806814D01*
X14700500Y40934108D01*
X14700500Y41065892D01*
X27799500Y41065892D01*
X27799500Y40934108D01*
X27829579Y40821849D01*
X27833609Y40806810D01*
X27899496Y40692691D01*
X27899498Y40692689D01*
X27899500Y40692686D01*
X27992686Y40599500D01*
X27992688Y40599499D01*
X27992690Y40599497D01*
X28106810Y40533610D01*
X28106808Y40533610D01*
X28106812Y40533609D01*
X28106814Y40533608D01*
X28234108Y40499500D01*
X28234110Y40499500D01*
X28365890Y40499500D01*
X28365892Y40499500D01*
X28493186Y40533608D01*
X28493188Y40533610D01*
X28493190Y40533610D01*
X28607309Y40599497D01*
X28607309Y40599498D01*
X28607314Y40599500D01*
X28700500Y40692686D01*
X28766392Y40806814D01*
X28800500Y40934108D01*
X28800500Y41065892D01*
X28773705Y41165892D01*
X41899500Y41165892D01*
X41899500Y41034108D01*
X41926294Y40934110D01*
X41933609Y40906810D01*
X41999496Y40792691D01*
X41999498Y40792689D01*
X41999500Y40792686D01*
X42092686Y40699500D01*
X42092688Y40699499D01*
X42092690Y40699497D01*
X42206810Y40633610D01*
X42206808Y40633610D01*
X42206812Y40633609D01*
X42206814Y40633608D01*
X42334108Y40599500D01*
X42334110Y40599500D01*
X42465890Y40599500D01*
X42465892Y40599500D01*
X42593186Y40633608D01*
X42593188Y40633610D01*
X42593190Y40633610D01*
X42707309Y40699497D01*
X42707309Y40699498D01*
X42707314Y40699500D01*
X42800500Y40792686D01*
X42866392Y40906814D01*
X42900500Y41034108D01*
X42900500Y41065892D01*
X56099500Y41065892D01*
X56099500Y40934108D01*
X56129579Y40821849D01*
X56133609Y40806810D01*
X56199496Y40692691D01*
X56199498Y40692689D01*
X56199500Y40692686D01*
X56292686Y40599500D01*
X56292688Y40599499D01*
X56292690Y40599497D01*
X56406810Y40533610D01*
X56406808Y40533610D01*
X56406812Y40533609D01*
X56406814Y40533608D01*
X56534108Y40499500D01*
X56534110Y40499500D01*
X56665890Y40499500D01*
X56665892Y40499500D01*
X56793186Y40533608D01*
X56793188Y40533610D01*
X56793190Y40533610D01*
X56907309Y40599497D01*
X56907309Y40599498D01*
X56907314Y40599500D01*
X57000500Y40692686D01*
X57066392Y40806814D01*
X57100500Y40934108D01*
X57100500Y41065892D01*
X57066392Y41193186D01*
X57066390Y41193189D01*
X57066390Y41193191D01*
X57000503Y41307310D01*
X57000501Y41307312D01*
X57000500Y41307314D01*
X56907314Y41400500D01*
X56907311Y41400502D01*
X56907309Y41400504D01*
X56793189Y41466391D01*
X56793191Y41466391D01*
X56743799Y41479625D01*
X56665892Y41500500D01*
X56534108Y41500500D01*
X56456200Y41479625D01*
X56406809Y41466391D01*
X56292690Y41400504D01*
X56199496Y41307310D01*
X56133609Y41193191D01*
X56126294Y41165891D01*
X56099500Y41065892D01*
X42900500Y41065892D01*
X42900500Y41165892D01*
X42866392Y41293186D01*
X42866390Y41293189D01*
X42866390Y41293191D01*
X42800503Y41407310D01*
X42800501Y41407312D01*
X42800500Y41407314D01*
X42707314Y41500500D01*
X42707311Y41500502D01*
X42707309Y41500504D01*
X42593189Y41566391D01*
X42593191Y41566391D01*
X42543799Y41579625D01*
X42465892Y41600500D01*
X42334108Y41600500D01*
X42256200Y41579625D01*
X42206809Y41566391D01*
X42092690Y41500504D01*
X41999496Y41407310D01*
X41933609Y41293191D01*
X41933608Y41293186D01*
X41899500Y41165892D01*
X28773705Y41165892D01*
X28766392Y41193186D01*
X28766390Y41193189D01*
X28766390Y41193191D01*
X28700503Y41307310D01*
X28700501Y41307312D01*
X28700500Y41307314D01*
X28607314Y41400500D01*
X28607311Y41400502D01*
X28607309Y41400504D01*
X28493189Y41466391D01*
X28493191Y41466391D01*
X28443799Y41479625D01*
X28365892Y41500500D01*
X28234108Y41500500D01*
X28156200Y41479625D01*
X28106809Y41466391D01*
X27992690Y41400504D01*
X27899496Y41307310D01*
X27833609Y41193191D01*
X27826294Y41165891D01*
X27799500Y41065892D01*
X14700500Y41065892D01*
X14666392Y41193186D01*
X14666390Y41193189D01*
X14666390Y41193191D01*
X14600503Y41307310D01*
X14600501Y41307312D01*
X14600500Y41307314D01*
X14507314Y41400500D01*
X14507311Y41400502D01*
X14507309Y41400504D01*
X14393189Y41466391D01*
X14393191Y41466391D01*
X14343799Y41479625D01*
X14265892Y41500500D01*
X14134108Y41500500D01*
X14056200Y41479625D01*
X14006809Y41466391D01*
X13892690Y41400504D01*
X13799496Y41307310D01*
X13733609Y41193191D01*
X13726294Y41165891D01*
X13699500Y41065892D01*
X300500Y41065892D01*
X300500Y55165892D01*
X13699500Y55165892D01*
X13699500Y55034108D01*
X13729579Y54921849D01*
X13733609Y54906810D01*
X13799496Y54792691D01*
X13799498Y54792689D01*
X13799500Y54792686D01*
X13892686Y54699500D01*
X13892688Y54699499D01*
X13892690Y54699497D01*
X14006810Y54633610D01*
X14006808Y54633610D01*
X14006812Y54633609D01*
X14006814Y54633608D01*
X14134108Y54599500D01*
X14134110Y54599500D01*
X14265890Y54599500D01*
X14265892Y54599500D01*
X14393186Y54633608D01*
X14393188Y54633610D01*
X14393190Y54633610D01*
X14507309Y54699497D01*
X14507309Y54699498D01*
X14507314Y54699500D01*
X14600500Y54792686D01*
X14666392Y54906814D01*
X14700500Y55034108D01*
X14700500Y55165892D01*
X14673705Y55265892D01*
X27799500Y55265892D01*
X27799500Y55134108D01*
X27826294Y55034110D01*
X27833609Y55006810D01*
X27899496Y54892691D01*
X27899498Y54892689D01*
X27899500Y54892686D01*
X27992686Y54799500D01*
X27992688Y54799499D01*
X27992690Y54799497D01*
X28106810Y54733610D01*
X28106808Y54733610D01*
X28106812Y54733609D01*
X28106814Y54733608D01*
X28234108Y54699500D01*
X28234110Y54699500D01*
X28365890Y54699500D01*
X28365892Y54699500D01*
X28493186Y54733608D01*
X28493188Y54733610D01*
X28493190Y54733610D01*
X28607309Y54799497D01*
X28607309Y54799498D01*
X28607314Y54799500D01*
X28700500Y54892686D01*
X28766392Y55006814D01*
X28800500Y55134108D01*
X28800500Y55265892D01*
X41999500Y55265892D01*
X41999500Y55134108D01*
X42026294Y55034110D01*
X42033609Y55006810D01*
X42099496Y54892691D01*
X42099498Y54892689D01*
X42099500Y54892686D01*
X42192686Y54799500D01*
X42192688Y54799499D01*
X42192690Y54799497D01*
X42306810Y54733610D01*
X42306808Y54733610D01*
X42306812Y54733609D01*
X42306814Y54733608D01*
X42434108Y54699500D01*
X42434110Y54699500D01*
X42565890Y54699500D01*
X42565892Y54699500D01*
X42693186Y54733608D01*
X42693188Y54733610D01*
X42693190Y54733610D01*
X42807309Y54799497D01*
X42807309Y54799498D01*
X42807314Y54799500D01*
X42900500Y54892686D01*
X42966392Y55006814D01*
X43000500Y55134108D01*
X43000500Y55165892D01*
X56199500Y55165892D01*
X56199500Y55034108D01*
X56229579Y54921849D01*
X56233609Y54906810D01*
X56299496Y54792691D01*
X56299498Y54792689D01*
X56299500Y54792686D01*
X56392686Y54699500D01*
X56392688Y54699499D01*
X56392690Y54699497D01*
X56506810Y54633610D01*
X56506808Y54633610D01*
X56506812Y54633609D01*
X56506814Y54633608D01*
X56634108Y54599500D01*
X56634110Y54599500D01*
X56765890Y54599500D01*
X56765892Y54599500D01*
X56893186Y54633608D01*
X56893188Y54633610D01*
X56893190Y54633610D01*
X57007309Y54699497D01*
X57007309Y54699498D01*
X57007314Y54699500D01*
X57100500Y54792686D01*
X57166392Y54906814D01*
X57200500Y55034108D01*
X57200500Y55165892D01*
X57166392Y55293186D01*
X57166390Y55293189D01*
X57166390Y55293191D01*
X57100503Y55407310D01*
X57100501Y55407312D01*
X57100500Y55407314D01*
X57007314Y55500500D01*
X57007311Y55500502D01*
X57007309Y55500504D01*
X56893189Y55566391D01*
X56893191Y55566391D01*
X56843799Y55579625D01*
X56765892Y55600500D01*
X56634108Y55600500D01*
X56556200Y55579625D01*
X56506809Y55566391D01*
X56392690Y55500504D01*
X56299496Y55407310D01*
X56233609Y55293191D01*
X56226294Y55265891D01*
X56199500Y55165892D01*
X43000500Y55165892D01*
X43000500Y55265892D01*
X42966392Y55393186D01*
X42966390Y55393189D01*
X42966390Y55393191D01*
X42900503Y55507310D01*
X42900501Y55507312D01*
X42900500Y55507314D01*
X42807314Y55600500D01*
X42807311Y55600502D01*
X42807309Y55600504D01*
X42693189Y55666391D01*
X42693191Y55666391D01*
X42643799Y55679625D01*
X42565892Y55700500D01*
X42434108Y55700500D01*
X42356200Y55679625D01*
X42306809Y55666391D01*
X42192690Y55600504D01*
X42099496Y55507310D01*
X42033609Y55393191D01*
X42033608Y55393186D01*
X41999500Y55265892D01*
X28800500Y55265892D01*
X28766392Y55393186D01*
X28766390Y55393189D01*
X28766390Y55393191D01*
X28700503Y55507310D01*
X28700501Y55507312D01*
X28700500Y55507314D01*
X28607314Y55600500D01*
X28607311Y55600502D01*
X28607309Y55600504D01*
X28493189Y55666391D01*
X28493191Y55666391D01*
X28443799Y55679625D01*
X28365892Y55700500D01*
X28234108Y55700500D01*
X28156200Y55679625D01*
X28106809Y55666391D01*
X27992690Y55600504D01*
X27899496Y55507310D01*
X27833609Y55393191D01*
X27833608Y55393186D01*
X27799500Y55265892D01*
X14673705Y55265892D01*
X14666392Y55293186D01*
X14666390Y55293189D01*
X14666390Y55293191D01*
X14600503Y55407310D01*
X14600501Y55407312D01*
X14600500Y55407314D01*
X14507314Y55500500D01*
X14507311Y55500502D01*
X14507309Y55500504D01*
X14393189Y55566391D01*
X14393191Y55566391D01*
X14343799Y55579625D01*
X14265892Y55600500D01*
X14134108Y55600500D01*
X14056200Y55579625D01*
X14006809Y55566391D01*
X13892690Y55500504D01*
X13799496Y55407310D01*
X13733609Y55293191D01*
X13726294Y55265891D01*
X13699500Y55165892D01*
X300500Y55165892D01*
X300500Y66883408D01*
X319407Y66941599D01*
X368907Y66977563D01*
X430093Y66977563D01*
X478042Y66943675D01*
X605729Y66777269D01*
X605731Y66777267D01*
X605735Y66777262D01*
X777262Y66605735D01*
X777266Y66605732D01*
X777268Y66605730D01*
X969707Y66458067D01*
X969711Y66458064D01*
X1179788Y66336776D01*
X1403900Y66243946D01*
X1638211Y66181162D01*
X1878712Y66149500D01*
X1878713Y66149500D01*
X2121287Y66149500D01*
X2121288Y66149500D01*
X2361789Y66181162D01*
X2596100Y66243946D01*
X2820212Y66336776D01*
X3030289Y66458064D01*
X3222738Y66605735D01*
X3394265Y66777262D01*
X3541936Y66969711D01*
X3663224Y67179788D01*
X3756054Y67403900D01*
X3818838Y67638211D01*
X3850500Y67878712D01*
X3850500Y68121288D01*
X3818838Y68361789D01*
X3756054Y68596100D01*
X3663224Y68820212D01*
X3541936Y69030289D01*
X3394265Y69222738D01*
X3222738Y69394265D01*
X3222733Y69394269D01*
X3222731Y69394271D01*
X3056325Y69521958D01*
X3021669Y69572382D01*
X3023270Y69633547D01*
X3060518Y69682088D01*
X3116592Y69699500D01*
X66883408Y69699500D01*
X66941599Y69680593D01*
G37*
%TD.AperFunction*%
%TD*%
M02*
