<?xml version="1.0" encoding="utf-8"?>
<svg width="251mm" height="161mm" viewBox="-3 -3 251 161" style="background-color:#0b1722" xmlns="http://www.w3.org/2000/svg" xmlns:xlink="http://www.w3.org/1999/xlink">
  <g transform="translate(-3.0 158.0) scale(1 -1) translate(3.0 3.0)">
    <circle cx="129.0" cy="9.0" r="0.45" fill="#f4c66c"/>
    <circle cx="92.0" cy="9.0" r="0.45" fill="#f4c66c"/>
    <circle cx="182.0" cy="9.0" r="0.45" fill="#f4c66c"/>
    <circle cx="179.145" cy="16.549" r="0.45" fill="#f4c66c"/>
    <circle cx="218.64" cy="18.0" r="0.4" fill="#f4c66c"/>
    <circle cx="201.0" cy="9.0" r="0.45" fill="#f4c66c"/>
    <circle cx="204.3" cy="18.0" r="0.4" fill="#f4c66c"/>
    <circle cx="32.14" cy="18.0" r="0.4" fill="#f4c66c"/>
    <circle cx="124.0" cy="9.0" r="0.45" fill="#f4c66c"/>
    <circle cx="81.0" cy="9.0" r="0.45" fill="#f4c66c"/>
    <circle cx="227.3" cy="18.0" r="0.4" fill="#f4c66c"/>
    <circle cx="192.66" cy="16.0" r="0.45" fill="#f4c66c"/>
    <circle cx="92.8224" cy="12.451" r="0.45" fill="#f4c66c"/>
    <circle cx="145.0" cy="9.0" r="0.45" fill="#f4c66c"/>
    <circle cx="192.66" cy="13.0" r="0.45" fill="#f4c66c"/>
    <circle cx="18.0" cy="6.0" r="0.45" fill="#f4c66c"/>
    <circle cx="81.66" cy="16.0" r="0.45" fill="#f4c66c"/>
    <circle cx="208.431" cy="15.8879" r="0.45" fill="#f4c66c"/>
    <circle cx="40.88" cy="18.0" r="0.4" fill="#f4c66c"/>
    <circle cx="109.66" cy="13.0" r="0.45" fill="#f4c66c"/>
    <circle cx="135.66" cy="13.0" r="0.45" fill="#f4c66c"/>
    <circle cx="95.66" cy="13.0" r="0.45" fill="#f4c66c"/>
    <circle cx="55.22" cy="18.0" r="0.4" fill="#f4c66c"/>
    <circle cx="149.66" cy="16.0" r="0.45" fill="#f4c66c"/>
    <circle cx="213.04" cy="18.0" r="0.4" fill="#f4c66c"/>
    <circle cx="65.1253" cy="11.3953" r="0.45" fill="#f4c66c"/>
    <circle cx="216.0" cy="9.0" r="0.45" fill="#f4c66c"/>
    <circle cx="159.0" cy="9.0" r="0.45" fill="#f4c66c"/>
    <circle cx="49.8913" cy="14.8837" r="0.45" fill="#f4c66c"/>
    <circle cx="35.0" cy="14.0" r="0.45" fill="#f4c66c"/>
    <circle cx="232.9" cy="18.0" r="0.4" fill="#f4c66c"/>
    <circle cx="189.96" cy="18.0" r="0.4" fill="#f4c66c"/>
    <circle cx="26.54" cy="18.0" r="0.4" fill="#f4c66c"/>
    <circle cx="66.2094" cy="14.093" r="0.45" fill="#f4c66c"/>
    <circle cx="37.0" cy="18.0" r="0.45" fill="#f4c66c"/>
    <circle cx="78.071" cy="18.0741" r="0.45" fill="#f4c66c"/>
    <circle cx="66.0" cy="18.0" r="0.45" fill="#f4c66c"/>
    <circle cx="192.66" cy="16.0" r="0.45" fill="#f4c66c"/>
    <circle cx="53.0" cy="9.0" r="0.45" fill="#f4c66c"/>
    <circle cx="138.0" cy="9.0" r="0.45" fill="#f4c66c"/>
    <circle cx="115.0" cy="9.0" r="0.45" fill="#f4c66c"/>
    <circle cx="161.2" cy="18.0" r="0.4" fill="#f4c66c"/>
    <circle cx="173.0" cy="9.0" r="0.45" fill="#f4c66c"/>
    <circle cx="221.66" cy="13.0" r="0.45" fill="#f4c66c"/>
    <circle cx="29.0" cy="9.0" r="0.45" fill="#f4c66c"/>
    <circle cx="146.86" cy="18.0" r="0.4" fill="#f4c66c"/>
    <circle cx="83.9" cy="18.0" r="0.4" fill="#f4c66c"/>
    <circle cx="103.84" cy="18.0" r="0.4" fill="#f4c66c"/>
    <circle cx="221.0" cy="9.0" r="0.45" fill="#f4c66c"/>
    <circle cx="166.594" cy="14.195" r="0.45" fill="#f4c66c"/>
    <circle cx="121.278" cy="11.9952" r="0.45" fill="#f4c66c"/>
    <circle cx="78.0" cy="13.0" r="0.45" fill="#f4c66c"/>
    <circle cx="53.0" cy="9.0" r="0.45" fill="#f4c66c"/>
    <circle cx="154.0" cy="9.0" r="0.45" fill="#f4c66c"/>
    <circle cx="112.58" cy="18.0" r="0.4" fill="#f4c66c"/>
    <circle cx="175.62" cy="18.0" r="0.4" fill="#f4c66c"/>
    <circle cx="78.0" cy="9.0" r="0.45" fill="#f4c66c"/>
    <circle cx="184.36" cy="18.0" r="0.4" fill="#f4c66c"/>
    <circle cx="60.82" cy="18.0" r="0.4" fill="#f4c66c"/>
    <circle cx="46.48" cy="18.0" r="0.4" fill="#f4c66c"/>
    <circle cx="152.454" cy="11.4592" r="0.45" fill="#f4c66c"/>
    <circle cx="210.0" cy="9.0" r="0.45" fill="#f4c66c"/>
    <circle cx="89.5" cy="18.0" r="0.4" fill="#f4c66c"/>
    <circle cx="126.92" cy="18.0" r="0.4" fill="#f4c66c"/>
    <circle cx="225.0" cy="9.0" r="0.45" fill="#f4c66c"/>
    <circle cx="30.0" cy="6.0" r="0.45" fill="#f4c66c"/>
    <circle cx="120.0" cy="9.0" r="0.45" fill="#f4c66c"/>
    <circle cx="17.8" cy="18.0" r="0.4" fill="#f4c66c"/>
    <circle cx="178.0" cy="9.0" r="0.45" fill="#f4c66c"/>
    <circle cx="81.66" cy="13.0" r="0.45" fill="#f4c66c"/>
    <circle cx="155.6" cy="18.0" r="0.4" fill="#f4c66c"/>
    <circle cx="22.0" cy="19.0" r="0.45" fill="#f4c66c"/>
    <circle cx="198.7" cy="18.0" r="0.4" fill="#f4c66c"/>
    <circle cx="168.0" cy="9.0" r="0.45" fill="#f4c66c"/>
    <circle cx="132.52" cy="18.0" r="0.4" fill="#f4c66c"/>
    <circle cx="39.0" cy="9.0" r="0.45" fill="#f4c66c"/>
    <circle cx="49.0" cy="9.0" r="0.45" fill="#f4c66c"/>
    <circle cx="12.2" cy="18.0" r="0.4" fill="#f4c66c"/>
    <circle cx="110.0" cy="9.0" r="0.45" fill="#f4c66c"/>
    <circle cx="195.66" cy="13.0" r="0.45" fill="#f4c66c"/>
    <circle cx="178.855" cy="12.6124" r="0.45" fill="#f4c66c"/>
    <circle cx="163.66" cy="16.0" r="0.45" fill="#f4c66c"/>
    <circle cx="134.0" cy="9.0" r="0.45" fill="#f4c66c"/>
    <circle cx="192.0" cy="9.0" r="0.45" fill="#f4c66c"/>
    <circle cx="135.66" cy="16.0" r="0.45" fill="#f4c66c"/>
    <circle cx="64.0" cy="15.0" r="0.45" fill="#f4c66c"/>
    <circle cx="181.66" cy="13.0" r="0.45" fill="#f4c66c"/>
    <circle cx="96.0" cy="9.0" r="0.45" fill="#f4c66c"/>
    <circle cx="101.0" cy="9.0" r="0.45" fill="#f4c66c"/>
    <circle cx="221.66" cy="16.0" r="0.45" fill="#f4c66c"/>
    <circle cx="98.24" cy="18.0" r="0.4" fill="#f4c66c"/>
    <circle cx="87.0" cy="9.0" r="0.45" fill="#f4c66c"/>
    <circle cx="22.2142" cy="15.0" r="0.45" fill="#f4c66c"/>
    <circle cx="75.16" cy="18.0" r="0.4" fill="#f4c66c"/>
    <circle cx="43.0" cy="9.0" r="0.45" fill="#f4c66c"/>
    <circle cx="79.177" cy="16.3454" r="0.45" fill="#f4c66c"/>
    <circle cx="34.0" cy="9.0" r="0.45" fill="#f4c66c"/>
    <circle cx="67.0" cy="9.0" r="0.45" fill="#f4c66c"/>
    <circle cx="137.818" cy="11.6603" r="0.45" fill="#f4c66c"/>
    <circle cx="210.66" cy="13.0" r="0.45" fill="#f4c66c"/>
    <circle cx="58.0" cy="9.0" r="0.45" fill="#f4c66c"/>
    <circle cx="141.26" cy="18.0" r="0.4" fill="#f4c66c"/>
    <circle cx="95.66" cy="16.0" r="0.45" fill="#f4c66c"/>
    <circle cx="118.18" cy="18.0" r="0.4" fill="#f4c66c"/>
    <circle cx="164.0" cy="9.0" r="0.45" fill="#f4c66c"/>
    <circle cx="207.871" cy="12.3497" r="0.45" fill="#f4c66c"/>
    <circle cx="64.0" cy="9.0" r="0.45" fill="#f4c66c"/>
    <circle cx="105.66" cy="13.0" r="0.45" fill="#f4c66c"/>
    <circle cx="196.0" cy="9.0" r="0.45" fill="#f4c66c"/>
    <circle cx="69.56" cy="18.0" r="0.4" fill="#f4c66c"/>
    <circle cx="72.0" cy="9.0" r="0.45" fill="#f4c66c"/>
    <circle cx="20.0" cy="9.0" r="0.45" fill="#f4c66c"/>
    <circle cx="50.3261" cy="18.5039" r="0.45" fill="#f4c66c"/>
    <circle cx="164.531" cy="11.7272" r="0.45" fill="#f4c66c"/>
    <circle cx="123.66" cy="13.0" r="0.45" fill="#f4c66c"/>
    <circle cx="149.66" cy="13.0" r="0.45" fill="#f4c66c"/>
    <circle cx="43.0" cy="9.0" r="0.45" fill="#f4c66c"/>
    <circle cx="170.02" cy="18.0" r="0.4" fill="#f4c66c"/>
    <circle cx="106.0" cy="9.0" r="0.45" fill="#f4c66c"/>
    <circle cx="236.0" cy="9.0" r="0.45" fill="#f4c66c"/>
    <circle cx="150.0" cy="9.0" r="0.45" fill="#f4c66c"/>
    <circle cx="24.0" cy="10.0" r="0.45" fill="#f4c66c"/>
    <circle cx="207.0" cy="9.0" r="0.45" fill="#f4c66c"/>
    <circle cx="230.0" cy="9.0" r="0.45" fill="#f4c66c"/>
    <circle cx="73.942" cy="12.4955" r="0.45" fill="#f4c66c"/>
    <circle cx="187.0" cy="9.0" r="0.45" fill="#f4c66c"/>
    <circle cx="15.0" cy="9.0" r="0.45" fill="#f4c66c"/>
  </g>
</svg>