%TF.GenerationSoftware,KiCad,Pcbnew,10.0.0*%
%TF.CreationDate,2026-09-20T19:23:55+08:00*%
%TF.ProjectId,Patch_Anetnna_16_8_IPEX1,50617463-685f-4416-9e65-746e6e615f31,IPEX1-A1*%
%TF.SameCoordinates,Original*%
%TF.FileFunction,Copper,L3,Inr*%
%TF.FilePolarity,Positive*%
%FSLAX46Y46*%
G04 Gerber Fmt 4.6, Leading zero omitted, Abs format (unit mm)*
G04 Created by KiCad (PCBNEW 10.0.0) date 2026-09-20 19:23:55*
%MOMM*%
%LPD*%
G01*
G04 APERTURE LIST*
%TA.AperFunction,ViaPad*%
%ADD10C,0.900000*%
%TD*%
%TA.AperFunction,ViaPad*%
%ADD11C,0.800000*%
%TD*%
G04 APERTURE END LIST*
D10*
%TO.N,GND*%
X129000000Y9000000D03*
X92000000Y9000000D03*
X182000000Y9000000D03*
X179145296Y16549043D03*
D11*
X218640000Y18000000D03*
D10*
X201000000Y9000000D03*
D11*
X204300000Y18000000D03*
X32140000Y18000000D03*
D10*
X124000000Y9000000D03*
X81000000Y9000000D03*
D11*
X227300000Y18000000D03*
D10*
X192660000Y16000000D03*
X92822406Y12450956D03*
X145000000Y9000000D03*
X192660000Y13000000D03*
X18000000Y6000000D03*
X81660000Y16000000D03*
X208431328Y15887881D03*
D11*
X40880000Y18000000D03*
D10*
X109660000Y13000000D03*
X135660000Y13000000D03*
X95660000Y13000000D03*
D11*
X55220000Y18000000D03*
D10*
X149660000Y16000000D03*
D11*
X213040000Y18000000D03*
D10*
X65125300Y11395328D03*
X216000000Y9000000D03*
X159000000Y9000000D03*
X49891315Y14883725D03*
X35000000Y14000000D03*
D11*
X232900000Y18000000D03*
X189960000Y18000000D03*
X26540000Y18000000D03*
D10*
X66209396Y14093021D03*
X37000000Y18000000D03*
X78071031Y18074118D03*
X66000000Y18000000D03*
X192660000Y16000000D03*
X53000000Y9000000D03*
X138000000Y9000000D03*
X115000000Y9000000D03*
D11*
X161200000Y18000000D03*
D10*
X173000000Y9000000D03*
X221660000Y13000000D03*
X29000000Y9000000D03*
D11*
X146860000Y18000000D03*
X83900000Y18000000D03*
X103840000Y18000000D03*
D10*
X221000000Y9000000D03*
X166594459Y14194978D03*
X121278356Y11995243D03*
X78000000Y13000000D03*
X53000000Y9000000D03*
X154000000Y9000000D03*
D11*
X112580000Y18000000D03*
X175620000Y18000000D03*
D10*
X78000000Y9000000D03*
D11*
X184360000Y18000000D03*
X60820000Y18000000D03*
X46480000Y18000000D03*
D10*
X152454393Y11459206D03*
X210000000Y9000000D03*
D11*
X89500000Y18000000D03*
X126920000Y18000000D03*
D10*
X225000000Y9000000D03*
X30000000Y6000000D03*
X120000000Y9000000D03*
D11*
X17800000Y18000000D03*
D10*
X178000000Y9000000D03*
X81660000Y13000000D03*
D11*
X155600000Y18000000D03*
D10*
X22000000Y19000000D03*
D11*
X198700000Y18000000D03*
D10*
X168000000Y9000000D03*
D11*
X132520000Y18000000D03*
D10*
X39000000Y9000000D03*
X49000000Y9000000D03*
D11*
X12200000Y18000000D03*
D10*
X110000000Y9000000D03*
X195660000Y13000000D03*
X178854693Y12612440D03*
X163660000Y16000000D03*
X134000000Y9000000D03*
X192000000Y9000000D03*
X135660000Y16000000D03*
X64000000Y15000000D03*
X181660000Y13000000D03*
X96000000Y9000000D03*
X101000000Y9000000D03*
X221660000Y16000000D03*
D11*
X98240000Y18000000D03*
D10*
X87000000Y9000000D03*
X22214228Y15000000D03*
D11*
X75160000Y18000000D03*
D10*
X43000000Y9000000D03*
X79177046Y16345375D03*
X34000000Y9000000D03*
X67000000Y9000000D03*
X137818421Y11660325D03*
X210660000Y13000000D03*
X58000000Y9000000D03*
D11*
X141260000Y18000000D03*
D10*
X95660000Y16000000D03*
D11*
X118180000Y18000000D03*
D10*
X164000000Y9000000D03*
X207870781Y12349721D03*
X64000000Y9000000D03*
X105660000Y13000000D03*
X196000000Y9000000D03*
D11*
X69560000Y18000000D03*
D10*
X72000000Y9000000D03*
X20000000Y9000000D03*
X50326059Y18503868D03*
X164530715Y11727171D03*
X123660000Y13000000D03*
X149660000Y13000000D03*
X43000000Y9000000D03*
D11*
X170020000Y18000000D03*
D10*
X106000000Y9000000D03*
X236000000Y9000000D03*
X150000000Y9000000D03*
X24000000Y10000000D03*
X207000000Y9000000D03*
X230000000Y9000000D03*
X73942034Y12495484D03*
X187000000Y9000000D03*
X15000000Y9000000D03*
%TD*%
M02*
