M48
; DRILL file KiCad 10.0.0 date 2026-09-20T19:23:55
; FORMAT={-:-/ absolute / metric / decimal}
; #@! TF.CreationDate,2026-09-20T19:23:55+08:00
; #@! TF.GenerationSoftware,Kicad,Pcbnew,10.0.0
; #@! TF.FileFunction,Plated,1,4,PTH
FMAT,2
METRIC
; #@! TA.AperFunction,Plated,PTH,ViaDrill
T1C0.400
; #@! TA.AperFunction,Plated,PTH,ViaDrill
T2C0.600
%
G90
G05
T1
X12.2Y18.0
X17.8Y18.0
X26.54Y18.0
X32.14Y18.0
X40.88Y18.0
X46.48Y18.0
X55.22Y18.0
X60.82Y18.0
X69.56Y18.0
X75.16Y18.0
X83.9Y18.0
X89.5Y18.0
X98.24Y18.0
X103.84Y18.0
X112.58Y18.0
X118.18Y18.0
X126.92Y18.0
X132.52Y18.0
X141.26Y18.0
X146.86Y18.0
X155.6Y18.0
X161.2Y18.0
X170.02Y18.0
X175.62Y18.0
X184.36Y18.0
X189.96Y18.0
X198.7Y18.0
X204.3Y18.0
X213.04Y18.0
X218.64Y18.0
X227.3Y18.0
X232.9Y18.0
T2
X15.0Y9.0
X18.0Y6.0
X20.0Y9.0
X22.0Y19.0
X22.214Y15.0
X24.0Y10.0
X29.0Y9.0
X30.0Y6.0
X34.0Y9.0
X35.0Y14.0
X37.0Y18.0
X39.0Y9.0
X43.0Y9.0
X49.0Y9.0
X49.891Y14.884
X50.326Y18.504
X53.0Y9.0
X58.0Y9.0
X64.0Y15.0
X64.0Y9.0
X65.125Y11.395
X66.0Y18.0
X66.209Y14.093
X67.0Y9.0
X72.0Y9.0
X73.942Y12.495
X78.0Y13.0
X78.0Y9.0
X78.071Y18.074
X79.177Y16.345
X81.0Y9.0
X81.66Y16.0
X81.66Y13.0
X87.0Y9.0
X92.0Y9.0
X92.822Y12.451
X95.66Y16.0
X95.66Y13.0
X96.0Y9.0
X101.0Y9.0
X105.66Y13.0
X106.0Y9.0
X109.66Y13.0
X110.0Y9.0
X115.0Y9.0
X120.0Y9.0
X121.278Y11.995
X123.66Y13.0
X124.0Y9.0
X129.0Y9.0
X134.0Y9.0
X135.66Y16.0
X135.66Y13.0
X137.818Y11.66
X138.0Y9.0
X145.0Y9.0
X149.66Y16.0
X149.66Y13.0
X150.0Y9.0
X152.454Y11.459
X154.0Y9.0
X159.0Y9.0
X163.66Y16.0
X164.0Y9.0
X164.531Y11.727
X166.594Y14.195
X168.0Y9.0
X173.0Y9.0
X178.0Y9.0
X178.855Y12.612
X179.145Y16.549
X181.66Y13.0
X182.0Y9.0
X187.0Y9.0
X192.0Y9.0
X192.66Y16.0
X192.66Y13.0
X195.66Y13.0
X196.0Y9.0
X201.0Y9.0
X207.0Y9.0
X207.871Y12.35
X208.431Y15.888
X210.0Y9.0
X210.66Y13.0
X216.0Y9.0
X221.0Y9.0
X221.66Y16.0
X221.66Y13.0
X225.0Y9.0
X230.0Y9.0
X236.0Y9.0
M30
