%TF.GenerationSoftware,KiCad,Pcbnew,10.0.0*%
%TF.CreationDate,2026-09-18T19:15:46+08:00*%
%TF.ProjectId,Phased_Array_Ant_70x70_4L_Via03,50686173-6564-45f4-9172-7261795f416e,rev?*%
%TF.SameCoordinates,Original*%
%TF.FileFunction,Copper,L2,Inr*%
%TF.FilePolarity,Positive*%
%FSLAX46Y46*%
G04 Gerber Fmt 4.6, Leading zero omitted, Abs format (unit mm)*
G04 Created by KiCad (PCBNEW 10.0.0) date 2026-09-18 19:15:46*
%MOMM*%
%LPD*%
G01*
G04 APERTURE LIST*
%TA.AperFunction,ViaPad*%
%ADD10C,0.600000*%
%TD*%
%TA.AperFunction,ViaPad*%
%ADD11C,0.500000*%
%TD*%
G04 APERTURE END LIST*
D10*
%TO.N,N$14*%
X28300000Y55200000D03*
%TO.N,N$15*%
X42500000Y55200000D03*
%TO.N,N$11*%
X42400000Y41100000D03*
%TO.N,N$13*%
X14200000Y55100000D03*
%TO.N,N$7*%
X42500000Y26900000D03*
%TO.N,N$2*%
X28300000Y12800000D03*
%TO.N,N$3*%
X42500000Y12700000D03*
%TO.N,N$1*%
X14200000Y12700000D03*
%TO.N,N$4*%
X56600000Y12700000D03*
%TO.N,N$6*%
X28300000Y26900000D03*
%TO.N,N$8*%
X56600000Y26900000D03*
%TO.N,N$12*%
X56600000Y41000000D03*
%TO.N,N$5*%
X14200000Y26900000D03*
%TO.N,N$10*%
X28300000Y41000000D03*
%TO.N,N$16*%
X56700000Y55100000D03*
%TO.N,N$9*%
X14200000Y41000000D03*
D11*
%TO.N,GND*%
X49500000Y50500000D03*
X35500000Y36500000D03*
X49500000Y8000000D03*
X21000000Y22000000D03*
X35500000Y50500000D03*
X21000000Y36500000D03*
X35500000Y8000000D03*
X49500000Y22000000D03*
X21000000Y50500000D03*
X35500000Y22000000D03*
X21000000Y8000000D03*
X49500000Y36500000D03*
%TD*%
%TA.AperFunction,Conductor*%
%TO.N,GND*%
G36*
X66941599Y69680593D02*
G01*
X66977563Y69631093D01*
X66977563Y69569907D01*
X66943675Y69521958D01*
X66777268Y69394270D01*
X66777266Y69394268D01*
X66777262Y69394265D01*
X66605735Y69222738D01*
X66605731Y69222733D01*
X66605729Y69222731D01*
X66524286Y69116592D01*
X66458064Y69030289D01*
X66336776Y68820212D01*
X66336774Y68820208D01*
X66336772Y68820204D01*
X66243948Y68596105D01*
X66243944Y68596092D01*
X66181161Y68361786D01*
X66181161Y68361781D01*
X66149500Y68121289D01*
X66149500Y67878710D01*
X66181161Y67638218D01*
X66181161Y67638213D01*
X66243944Y67403907D01*
X66243948Y67403894D01*
X66336772Y67179795D01*
X66458066Y66969707D01*
X66605729Y66777268D01*
X66777268Y66605729D01*
X66969707Y66458066D01*
X67179795Y66336772D01*
X67403894Y66243948D01*
X67403898Y66243946D01*
X67403900Y66243946D01*
X67403903Y66243944D01*
X67403907Y66243944D01*
X67638215Y66181161D01*
X67878710Y66149500D01*
X67878712Y66149500D01*
X68121289Y66149500D01*
X68361781Y66181161D01*
X68361786Y66181161D01*
X68497052Y66217406D01*
X68596100Y66243946D01*
X68596105Y66243948D01*
X68820204Y66336772D01*
X68820208Y66336774D01*
X68820212Y66336776D01*
X69030289Y66458064D01*
X69030292Y66458066D01*
X69222731Y66605729D01*
X69222733Y66605731D01*
X69222738Y66605735D01*
X69394265Y66777262D01*
X69475713Y66883407D01*
X69521958Y66943674D01*
X69572382Y66978330D01*
X69633547Y66976729D01*
X69682088Y66939481D01*
X69699500Y66883407D01*
X69699500Y3116592D01*
X69680593Y3058401D01*
X69631093Y3022437D01*
X69569907Y3022437D01*
X69521958Y3056325D01*
X69498555Y3086823D01*
X69394265Y3222738D01*
X69222738Y3394265D01*
X69030289Y3541936D01*
X68820212Y3663224D01*
X68596100Y3756054D01*
X68361789Y3818838D01*
X68121288Y3850500D01*
X67878712Y3850500D01*
X67638211Y3818838D01*
X67403900Y3756054D01*
X67179788Y3663224D01*
X66969711Y3541936D01*
X66969707Y3541933D01*
X66777268Y3394270D01*
X66777266Y3394268D01*
X66777262Y3394265D01*
X66605735Y3222738D01*
X66605731Y3222733D01*
X66605729Y3222731D01*
X66524286Y3116592D01*
X66458064Y3030289D01*
X66336776Y2820212D01*
X66336774Y2820208D01*
X66336772Y2820204D01*
X66243948Y2596105D01*
X66243944Y2596092D01*
X66181161Y2361786D01*
X66181161Y2361781D01*
X66149500Y2121289D01*
X66149500Y1878710D01*
X66181161Y1638218D01*
X66181161Y1638213D01*
X66243944Y1403907D01*
X66243948Y1403894D01*
X66336772Y1179795D01*
X66458066Y969707D01*
X66605729Y777268D01*
X66777268Y605729D01*
X66943675Y478042D01*
X66978331Y427618D01*
X66976730Y366453D01*
X66939482Y317912D01*
X66883408Y300500D01*
X3116592Y300500D01*
X3058401Y319407D01*
X3022437Y368907D01*
X3022437Y430093D01*
X3056325Y478042D01*
X3222731Y605729D01*
X3222733Y605731D01*
X3222738Y605735D01*
X3394265Y777262D01*
X3541936Y969711D01*
X3663224Y1179788D01*
X3756054Y1403900D01*
X3818838Y1638211D01*
X3850500Y1878712D01*
X3850500Y2121288D01*
X3818838Y2361789D01*
X3756054Y2596100D01*
X3663224Y2820212D01*
X3541936Y3030289D01*
X3394265Y3222738D01*
X3222738Y3394265D01*
X3030289Y3541936D01*
X2820212Y3663224D01*
X2596100Y3756054D01*
X2361789Y3818838D01*
X2121288Y3850500D01*
X1878712Y3850500D01*
X1638211Y3818838D01*
X1403900Y3756054D01*
X1179788Y3663224D01*
X969711Y3541936D01*
X969707Y3541933D01*
X777268Y3394270D01*
X777266Y3394268D01*
X777262Y3394265D01*
X605735Y3222738D01*
X605731Y3222733D01*
X605729Y3222731D01*
X478042Y3056325D01*
X427618Y3021669D01*
X366453Y3023270D01*
X317912Y3060518D01*
X300500Y3116592D01*
X300500Y12765892D01*
X13699500Y12765892D01*
X13699500Y12765890D01*
X13699500Y12634109D01*
X13733609Y12506809D01*
X13799496Y12392690D01*
X13892690Y12299496D01*
X14006810Y12233609D01*
X14006808Y12233609D01*
X14074454Y12215483D01*
X14134108Y12199500D01*
X14134110Y12199500D01*
X14265890Y12199500D01*
X14265892Y12199500D01*
X14393186Y12233608D01*
X14393190Y12233609D01*
X14507309Y12299496D01*
X14507311Y12299498D01*
X14507314Y12299500D01*
X14600500Y12392686D01*
X14600501Y12392688D01*
X14600503Y12392690D01*
X14666390Y12506809D01*
X14666390Y12506811D01*
X14666392Y12506814D01*
X14700500Y12634108D01*
X14700500Y12765892D01*
X14673705Y12865892D01*
X27799500Y12865892D01*
X27799500Y12865890D01*
X27799500Y12734109D01*
X27833609Y12606809D01*
X27899496Y12492690D01*
X27992690Y12399496D01*
X28106810Y12333609D01*
X28106808Y12333609D01*
X28174454Y12315483D01*
X28234108Y12299500D01*
X28234110Y12299500D01*
X28365890Y12299500D01*
X28365892Y12299500D01*
X28493186Y12333608D01*
X28493190Y12333609D01*
X28607309Y12399496D01*
X28607311Y12399498D01*
X28607314Y12399500D01*
X28700500Y12492686D01*
X28700501Y12492688D01*
X28700503Y12492690D01*
X28766390Y12606809D01*
X28766390Y12606811D01*
X28766392Y12606814D01*
X28800500Y12734108D01*
X28800500Y12765892D01*
X41999500Y12765892D01*
X41999500Y12765890D01*
X41999500Y12634109D01*
X42033609Y12506809D01*
X42099496Y12392690D01*
X42192690Y12299496D01*
X42306810Y12233609D01*
X42306808Y12233609D01*
X42374454Y12215483D01*
X42434108Y12199500D01*
X42434110Y12199500D01*
X42565890Y12199500D01*
X42565892Y12199500D01*
X42693186Y12233608D01*
X42693190Y12233609D01*
X42807309Y12299496D01*
X42807311Y12299498D01*
X42807314Y12299500D01*
X42900500Y12392686D01*
X42900501Y12392688D01*
X42900503Y12392690D01*
X42966390Y12506809D01*
X42966390Y12506811D01*
X42966392Y12506814D01*
X43000500Y12634108D01*
X43000500Y12765892D01*
X56099500Y12765892D01*
X56099500Y12765890D01*
X56099500Y12634109D01*
X56133609Y12506809D01*
X56199496Y12392690D01*
X56292690Y12299496D01*
X56406810Y12233609D01*
X56406808Y12233609D01*
X56474454Y12215483D01*
X56534108Y12199500D01*
X56534110Y12199500D01*
X56665890Y12199500D01*
X56665892Y12199500D01*
X56793186Y12233608D01*
X56793190Y12233609D01*
X56907309Y12299496D01*
X56907311Y12299498D01*
X56907314Y12299500D01*
X57000500Y12392686D01*
X57000501Y12392688D01*
X57000503Y12392690D01*
X57066390Y12506809D01*
X57066390Y12506811D01*
X57066392Y12506814D01*
X57100500Y12634108D01*
X57100500Y12765892D01*
X57066392Y12893186D01*
X57000500Y13007314D01*
X56907314Y13100500D01*
X56895520Y13107309D01*
X56793189Y13166390D01*
X56793188Y13166390D01*
X56793186Y13166392D01*
X56665892Y13200500D01*
X56534108Y13200500D01*
X56406814Y13166392D01*
X56406811Y13166390D01*
X56406809Y13166390D01*
X56292690Y13100503D01*
X56292688Y13100501D01*
X56292686Y13100500D01*
X56199500Y13007314D01*
X56199498Y13007311D01*
X56199496Y13007309D01*
X56133609Y12893190D01*
X56133608Y12893186D01*
X56099500Y12765892D01*
X43000500Y12765892D01*
X42966392Y12893186D01*
X42900500Y13007314D01*
X42807314Y13100500D01*
X42795520Y13107309D01*
X42693189Y13166390D01*
X42693188Y13166390D01*
X42693186Y13166392D01*
X42565892Y13200500D01*
X42434108Y13200500D01*
X42306814Y13166392D01*
X42306811Y13166390D01*
X42306809Y13166390D01*
X42192690Y13100503D01*
X42192688Y13100501D01*
X42192686Y13100500D01*
X42099500Y13007314D01*
X42099498Y13007311D01*
X42099496Y13007309D01*
X42033609Y12893190D01*
X42033608Y12893186D01*
X41999500Y12765892D01*
X28800500Y12765892D01*
X28800500Y12865892D01*
X28766392Y12993186D01*
X28700500Y13107314D01*
X28607314Y13200500D01*
X28493189Y13266390D01*
X28493188Y13266390D01*
X28493186Y13266392D01*
X28365892Y13300500D01*
X28234108Y13300500D01*
X28106814Y13266392D01*
X28106811Y13266390D01*
X28106809Y13266390D01*
X27992690Y13200503D01*
X27992688Y13200501D01*
X27992686Y13200500D01*
X27899500Y13107314D01*
X27899498Y13107311D01*
X27899496Y13107309D01*
X27833609Y12993190D01*
X27833608Y12993186D01*
X27799500Y12865892D01*
X14673705Y12865892D01*
X14666392Y12893186D01*
X14600500Y13007314D01*
X14507314Y13100500D01*
X14495520Y13107309D01*
X14393189Y13166390D01*
X14393188Y13166390D01*
X14393186Y13166392D01*
X14265892Y13200500D01*
X14134108Y13200500D01*
X14006814Y13166392D01*
X14006811Y13166390D01*
X14006809Y13166390D01*
X13892690Y13100503D01*
X13892688Y13100501D01*
X13892686Y13100500D01*
X13799500Y13007314D01*
X13799498Y13007311D01*
X13799496Y13007309D01*
X13733609Y12893190D01*
X13733608Y12893186D01*
X13699500Y12765892D01*
X300500Y12765892D01*
X300500Y26965892D01*
X13699500Y26965892D01*
X13699500Y26965890D01*
X13699500Y26834109D01*
X13733609Y26706809D01*
X13799496Y26592690D01*
X13892690Y26499496D01*
X14006810Y26433609D01*
X14006808Y26433609D01*
X14074454Y26415483D01*
X14134108Y26399500D01*
X14134110Y26399500D01*
X14265890Y26399500D01*
X14265892Y26399500D01*
X14393186Y26433608D01*
X14393190Y26433609D01*
X14507309Y26499496D01*
X14507311Y26499498D01*
X14507314Y26499500D01*
X14600500Y26592686D01*
X14600501Y26592688D01*
X14600503Y26592690D01*
X14666390Y26706809D01*
X14666390Y26706811D01*
X14666392Y26706814D01*
X14700500Y26834108D01*
X14700500Y26965892D01*
X27799500Y26965892D01*
X27799500Y26965890D01*
X27799500Y26834109D01*
X27833609Y26706809D01*
X27899496Y26592690D01*
X27992690Y26499496D01*
X28106810Y26433609D01*
X28106808Y26433609D01*
X28174454Y26415483D01*
X28234108Y26399500D01*
X28234110Y26399500D01*
X28365890Y26399500D01*
X28365892Y26399500D01*
X28493186Y26433608D01*
X28493190Y26433609D01*
X28607309Y26499496D01*
X28607311Y26499498D01*
X28607314Y26499500D01*
X28700500Y26592686D01*
X28700501Y26592688D01*
X28700503Y26592690D01*
X28766390Y26706809D01*
X28766390Y26706811D01*
X28766392Y26706814D01*
X28800500Y26834108D01*
X28800500Y26965892D01*
X41999500Y26965892D01*
X41999500Y26965890D01*
X41999500Y26834109D01*
X42033609Y26706809D01*
X42099496Y26592690D01*
X42192690Y26499496D01*
X42306810Y26433609D01*
X42306808Y26433609D01*
X42374454Y26415483D01*
X42434108Y26399500D01*
X42434110Y26399500D01*
X42565890Y26399500D01*
X42565892Y26399500D01*
X42693186Y26433608D01*
X42693190Y26433609D01*
X42807309Y26499496D01*
X42807311Y26499498D01*
X42807314Y26499500D01*
X42900500Y26592686D01*
X42900501Y26592688D01*
X42900503Y26592690D01*
X42966390Y26706809D01*
X42966390Y26706811D01*
X42966392Y26706814D01*
X43000500Y26834108D01*
X43000500Y26965892D01*
X56099500Y26965892D01*
X56099500Y26965890D01*
X56099500Y26834109D01*
X56133609Y26706809D01*
X56199496Y26592690D01*
X56292690Y26499496D01*
X56406810Y26433609D01*
X56406808Y26433609D01*
X56474454Y26415483D01*
X56534108Y26399500D01*
X56534110Y26399500D01*
X56665890Y26399500D01*
X56665892Y26399500D01*
X56793186Y26433608D01*
X56793190Y26433609D01*
X56907309Y26499496D01*
X56907311Y26499498D01*
X56907314Y26499500D01*
X57000500Y26592686D01*
X57000501Y26592688D01*
X57000503Y26592690D01*
X57066390Y26706809D01*
X57066390Y26706811D01*
X57066392Y26706814D01*
X57100500Y26834108D01*
X57100500Y26965892D01*
X57066392Y27093186D01*
X57000500Y27207314D01*
X56907314Y27300500D01*
X56793189Y27366390D01*
X56793188Y27366390D01*
X56793186Y27366392D01*
X56665892Y27400500D01*
X56534108Y27400500D01*
X56406814Y27366392D01*
X56406811Y27366390D01*
X56406809Y27366390D01*
X56292690Y27300503D01*
X56292688Y27300501D01*
X56292686Y27300500D01*
X56199500Y27207314D01*
X56199498Y27207311D01*
X56199496Y27207309D01*
X56133609Y27093190D01*
X56133608Y27093186D01*
X56099500Y26965892D01*
X43000500Y26965892D01*
X42966392Y27093186D01*
X42900500Y27207314D01*
X42807314Y27300500D01*
X42693189Y27366390D01*
X42693188Y27366390D01*
X42693186Y27366392D01*
X42565892Y27400500D01*
X42434108Y27400500D01*
X42306814Y27366392D01*
X42306811Y27366390D01*
X42306809Y27366390D01*
X42192690Y27300503D01*
X42192688Y27300501D01*
X42192686Y27300500D01*
X42099500Y27207314D01*
X42099498Y27207311D01*
X42099496Y27207309D01*
X42033609Y27093190D01*
X42033608Y27093186D01*
X41999500Y26965892D01*
X28800500Y26965892D01*
X28766392Y27093186D01*
X28700500Y27207314D01*
X28607314Y27300500D01*
X28493189Y27366390D01*
X28493188Y27366390D01*
X28493186Y27366392D01*
X28365892Y27400500D01*
X28234108Y27400500D01*
X28106814Y27366392D01*
X28106811Y27366390D01*
X28106809Y27366390D01*
X27992690Y27300503D01*
X27992688Y27300501D01*
X27992686Y27300500D01*
X27899500Y27207314D01*
X27899498Y27207311D01*
X27899496Y27207309D01*
X27833609Y27093190D01*
X27833608Y27093186D01*
X27799500Y26965892D01*
X14700500Y26965892D01*
X14666392Y27093186D01*
X14600500Y27207314D01*
X14507314Y27300500D01*
X14393189Y27366390D01*
X14393188Y27366390D01*
X14393186Y27366392D01*
X14265892Y27400500D01*
X14134108Y27400500D01*
X14006814Y27366392D01*
X14006811Y27366390D01*
X14006809Y27366390D01*
X13892690Y27300503D01*
X13892688Y27300501D01*
X13892686Y27300500D01*
X13799500Y27207314D01*
X13799498Y27207311D01*
X13799496Y27207309D01*
X13733609Y27093190D01*
X13733608Y27093186D01*
X13699500Y26965892D01*
X300500Y26965892D01*
X300500Y41065892D01*
X13699500Y41065892D01*
X13699500Y41065890D01*
X13699500Y40934109D01*
X13733609Y40806809D01*
X13799496Y40692690D01*
X13892690Y40599496D01*
X14006810Y40533609D01*
X14006808Y40533609D01*
X14074454Y40515483D01*
X14134108Y40499500D01*
X14134110Y40499500D01*
X14265890Y40499500D01*
X14265892Y40499500D01*
X14393186Y40533608D01*
X14393190Y40533609D01*
X14507309Y40599496D01*
X14507311Y40599498D01*
X14507314Y40599500D01*
X14600500Y40692686D01*
X14600501Y40692688D01*
X14600503Y40692690D01*
X14666390Y40806809D01*
X14666390Y40806811D01*
X14666392Y40806814D01*
X14700500Y40934108D01*
X14700500Y41065892D01*
X27799500Y41065892D01*
X27799500Y41065890D01*
X27799500Y40934109D01*
X27833609Y40806809D01*
X27899496Y40692690D01*
X27992690Y40599496D01*
X28106810Y40533609D01*
X28106808Y40533609D01*
X28174454Y40515483D01*
X28234108Y40499500D01*
X28234110Y40499500D01*
X28365890Y40499500D01*
X28365892Y40499500D01*
X28493186Y40533608D01*
X28493190Y40533609D01*
X28607309Y40599496D01*
X28607311Y40599498D01*
X28607314Y40599500D01*
X28700500Y40692686D01*
X28700501Y40692688D01*
X28700503Y40692690D01*
X28766390Y40806809D01*
X28766390Y40806811D01*
X28766392Y40806814D01*
X28800500Y40934108D01*
X28800500Y41065892D01*
X28773705Y41165892D01*
X41899500Y41165892D01*
X41899500Y41165890D01*
X41899500Y41034109D01*
X41933609Y40906809D01*
X41999496Y40792690D01*
X42092690Y40699496D01*
X42206810Y40633609D01*
X42206808Y40633609D01*
X42274454Y40615483D01*
X42334108Y40599500D01*
X42334110Y40599500D01*
X42465890Y40599500D01*
X42465892Y40599500D01*
X42593186Y40633608D01*
X42593190Y40633609D01*
X42707309Y40699496D01*
X42707311Y40699498D01*
X42707314Y40699500D01*
X42800500Y40792686D01*
X42800501Y40792688D01*
X42800503Y40792690D01*
X42866390Y40906809D01*
X42866390Y40906811D01*
X42866392Y40906814D01*
X42900500Y41034108D01*
X42900500Y41065892D01*
X56099500Y41065892D01*
X56099500Y41065890D01*
X56099500Y40934109D01*
X56133609Y40806809D01*
X56199496Y40692690D01*
X56292690Y40599496D01*
X56406810Y40533609D01*
X56406808Y40533609D01*
X56474454Y40515483D01*
X56534108Y40499500D01*
X56534110Y40499500D01*
X56665890Y40499500D01*
X56665892Y40499500D01*
X56793186Y40533608D01*
X56793190Y40533609D01*
X56907309Y40599496D01*
X56907311Y40599498D01*
X56907314Y40599500D01*
X57000500Y40692686D01*
X57000501Y40692688D01*
X57000503Y40692690D01*
X57066390Y40806809D01*
X57066390Y40806811D01*
X57066392Y40806814D01*
X57100500Y40934108D01*
X57100500Y41065892D01*
X57066392Y41193186D01*
X57000500Y41307314D01*
X56907314Y41400500D01*
X56895520Y41407309D01*
X56793189Y41466390D01*
X56793188Y41466390D01*
X56793186Y41466392D01*
X56665892Y41500500D01*
X56534108Y41500500D01*
X56406814Y41466392D01*
X56406811Y41466390D01*
X56406809Y41466390D01*
X56292690Y41400503D01*
X56292688Y41400501D01*
X56292686Y41400500D01*
X56199500Y41307314D01*
X56199498Y41307311D01*
X56199496Y41307309D01*
X56133609Y41193190D01*
X56133608Y41193186D01*
X56099500Y41065892D01*
X42900500Y41065892D01*
X42900500Y41165892D01*
X42866392Y41293186D01*
X42800500Y41407314D01*
X42707314Y41500500D01*
X42593189Y41566390D01*
X42593188Y41566390D01*
X42593186Y41566392D01*
X42465892Y41600500D01*
X42334108Y41600500D01*
X42206814Y41566392D01*
X42206811Y41566390D01*
X42206809Y41566390D01*
X42092690Y41500503D01*
X42092688Y41500501D01*
X42092686Y41500500D01*
X41999500Y41407314D01*
X41999498Y41407311D01*
X41999496Y41407309D01*
X41933609Y41293190D01*
X41933608Y41293186D01*
X41899500Y41165892D01*
X28773705Y41165892D01*
X28766392Y41193186D01*
X28700500Y41307314D01*
X28607314Y41400500D01*
X28595520Y41407309D01*
X28493189Y41466390D01*
X28493188Y41466390D01*
X28493186Y41466392D01*
X28365892Y41500500D01*
X28234108Y41500500D01*
X28106814Y41466392D01*
X28106811Y41466390D01*
X28106809Y41466390D01*
X27992690Y41400503D01*
X27992688Y41400501D01*
X27992686Y41400500D01*
X27899500Y41307314D01*
X27899498Y41307311D01*
X27899496Y41307309D01*
X27833609Y41193190D01*
X27833608Y41193186D01*
X27799500Y41065892D01*
X14700500Y41065892D01*
X14666392Y41193186D01*
X14600500Y41307314D01*
X14507314Y41400500D01*
X14495520Y41407309D01*
X14393189Y41466390D01*
X14393188Y41466390D01*
X14393186Y41466392D01*
X14265892Y41500500D01*
X14134108Y41500500D01*
X14006814Y41466392D01*
X14006811Y41466390D01*
X14006809Y41466390D01*
X13892690Y41400503D01*
X13892688Y41400501D01*
X13892686Y41400500D01*
X13799500Y41307314D01*
X13799498Y41307311D01*
X13799496Y41307309D01*
X13733609Y41193190D01*
X13733608Y41193186D01*
X13699500Y41065892D01*
X300500Y41065892D01*
X300500Y55165892D01*
X13699500Y55165892D01*
X13699500Y55165890D01*
X13699500Y55034109D01*
X13733609Y54906809D01*
X13799496Y54792690D01*
X13892690Y54699496D01*
X14006810Y54633609D01*
X14006808Y54633609D01*
X14074454Y54615483D01*
X14134108Y54599500D01*
X14134110Y54599500D01*
X14265890Y54599500D01*
X14265892Y54599500D01*
X14393186Y54633608D01*
X14393190Y54633609D01*
X14507309Y54699496D01*
X14507311Y54699498D01*
X14507314Y54699500D01*
X14600500Y54792686D01*
X14600501Y54792688D01*
X14600503Y54792690D01*
X14666390Y54906809D01*
X14666390Y54906811D01*
X14666392Y54906814D01*
X14700500Y55034108D01*
X14700500Y55165892D01*
X14673705Y55265892D01*
X27799500Y55265892D01*
X27799500Y55265890D01*
X27799500Y55134109D01*
X27833609Y55006809D01*
X27899496Y54892690D01*
X27992690Y54799496D01*
X28106810Y54733609D01*
X28106808Y54733609D01*
X28174454Y54715483D01*
X28234108Y54699500D01*
X28234110Y54699500D01*
X28365890Y54699500D01*
X28365892Y54699500D01*
X28493186Y54733608D01*
X28493190Y54733609D01*
X28607309Y54799496D01*
X28607311Y54799498D01*
X28607314Y54799500D01*
X28700500Y54892686D01*
X28700501Y54892688D01*
X28700503Y54892690D01*
X28766390Y55006809D01*
X28766390Y55006811D01*
X28766392Y55006814D01*
X28800500Y55134108D01*
X28800500Y55265892D01*
X41999500Y55265892D01*
X41999500Y55265890D01*
X41999500Y55134109D01*
X42033609Y55006809D01*
X42099496Y54892690D01*
X42192690Y54799496D01*
X42306810Y54733609D01*
X42306808Y54733609D01*
X42374454Y54715483D01*
X42434108Y54699500D01*
X42434110Y54699500D01*
X42565890Y54699500D01*
X42565892Y54699500D01*
X42693186Y54733608D01*
X42693190Y54733609D01*
X42807309Y54799496D01*
X42807311Y54799498D01*
X42807314Y54799500D01*
X42900500Y54892686D01*
X42900501Y54892688D01*
X42900503Y54892690D01*
X42966390Y55006809D01*
X42966390Y55006811D01*
X42966392Y55006814D01*
X43000500Y55134108D01*
X43000500Y55165892D01*
X56199500Y55165892D01*
X56199500Y55165890D01*
X56199500Y55034109D01*
X56233609Y54906809D01*
X56299496Y54792690D01*
X56392690Y54699496D01*
X56506810Y54633609D01*
X56506808Y54633609D01*
X56574454Y54615483D01*
X56634108Y54599500D01*
X56634110Y54599500D01*
X56765890Y54599500D01*
X56765892Y54599500D01*
X56893186Y54633608D01*
X56893190Y54633609D01*
X57007309Y54699496D01*
X57007311Y54699498D01*
X57007314Y54699500D01*
X57100500Y54792686D01*
X57100501Y54792688D01*
X57100503Y54792690D01*
X57166390Y54906809D01*
X57166390Y54906811D01*
X57166392Y54906814D01*
X57200500Y55034108D01*
X57200500Y55165892D01*
X57166392Y55293186D01*
X57100500Y55407314D01*
X57007314Y55500500D01*
X56995520Y55507309D01*
X56893189Y55566390D01*
X56893188Y55566390D01*
X56893186Y55566392D01*
X56765892Y55600500D01*
X56634108Y55600500D01*
X56506814Y55566392D01*
X56506811Y55566390D01*
X56506809Y55566390D01*
X56392690Y55500503D01*
X56392688Y55500501D01*
X56392686Y55500500D01*
X56299500Y55407314D01*
X56299498Y55407311D01*
X56299496Y55407309D01*
X56233609Y55293190D01*
X56233608Y55293186D01*
X56199500Y55165892D01*
X43000500Y55165892D01*
X43000500Y55265892D01*
X42966392Y55393186D01*
X42900500Y55507314D01*
X42807314Y55600500D01*
X42693189Y55666390D01*
X42693188Y55666390D01*
X42693186Y55666392D01*
X42565892Y55700500D01*
X42434108Y55700500D01*
X42306814Y55666392D01*
X42306811Y55666390D01*
X42306809Y55666390D01*
X42192690Y55600503D01*
X42192688Y55600501D01*
X42192686Y55600500D01*
X42099500Y55507314D01*
X42099498Y55507311D01*
X42099496Y55507309D01*
X42033609Y55393190D01*
X42033608Y55393186D01*
X41999500Y55265892D01*
X28800500Y55265892D01*
X28766392Y55393186D01*
X28700500Y55507314D01*
X28607314Y55600500D01*
X28493189Y55666390D01*
X28493188Y55666390D01*
X28493186Y55666392D01*
X28365892Y55700500D01*
X28234108Y55700500D01*
X28106814Y55666392D01*
X28106811Y55666390D01*
X28106809Y55666390D01*
X27992690Y55600503D01*
X27992688Y55600501D01*
X27992686Y55600500D01*
X27899500Y55507314D01*
X27899498Y55507311D01*
X27899496Y55507309D01*
X27833609Y55393190D01*
X27833608Y55393186D01*
X27799500Y55265892D01*
X14673705Y55265892D01*
X14666392Y55293186D01*
X14600500Y55407314D01*
X14507314Y55500500D01*
X14495520Y55507309D01*
X14393189Y55566390D01*
X14393188Y55566390D01*
X14393186Y55566392D01*
X14265892Y55600500D01*
X14134108Y55600500D01*
X14006814Y55566392D01*
X14006811Y55566390D01*
X14006809Y55566390D01*
X13892690Y55500503D01*
X13892688Y55500501D01*
X13892686Y55500500D01*
X13799500Y55407314D01*
X13799498Y55407311D01*
X13799496Y55407309D01*
X13733609Y55293190D01*
X13733608Y55293186D01*
X13699500Y55165892D01*
X300500Y55165892D01*
X300500Y66883407D01*
X319407Y66941598D01*
X368907Y66977562D01*
X430093Y66977562D01*
X478042Y66943674D01*
X605729Y66777268D01*
X777268Y66605729D01*
X969707Y66458066D01*
X1179795Y66336772D01*
X1403894Y66243948D01*
X1403898Y66243946D01*
X1403900Y66243946D01*
X1403903Y66243944D01*
X1403907Y66243944D01*
X1638215Y66181161D01*
X1878710Y66149500D01*
X1878712Y66149500D01*
X2121289Y66149500D01*
X2361781Y66181161D01*
X2361786Y66181161D01*
X2497052Y66217406D01*
X2596100Y66243946D01*
X2596105Y66243948D01*
X2820204Y66336772D01*
X2820208Y66336774D01*
X2820212Y66336776D01*
X3030289Y66458064D01*
X3030292Y66458066D01*
X3222731Y66605729D01*
X3222733Y66605731D01*
X3222738Y66605735D01*
X3394265Y66777262D01*
X3541936Y66969711D01*
X3663224Y67179788D01*
X3756054Y67403900D01*
X3818838Y67638211D01*
X3850500Y67878712D01*
X3850500Y68121288D01*
X3818838Y68361789D01*
X3756054Y68596100D01*
X3663224Y68820212D01*
X3541936Y69030289D01*
X3394265Y69222738D01*
X3222738Y69394265D01*
X3056325Y69521958D01*
X3021669Y69572382D01*
X3023270Y69633547D01*
X3060518Y69682088D01*
X3116592Y69699500D01*
X66883408Y69699500D01*
X66941599Y69680593D01*
G37*
%TD.AperFunction*%
%TD*%
M02*
