%TF.GenerationSoftware,KiCad,Pcbnew,10.0.0*%
%TF.CreationDate,2026-09-20T19:23:54+08:00*%
%TF.ProjectId,Patch_Anetnna_16_8_IPEX1,50617463-685f-4416-9e65-746e6e615f31,IPEX1-A1*%
%TF.SameCoordinates,Original*%
%TF.FileFunction,Copper,L2,Inr*%
%TF.FilePolarity,Positive*%
%FSLAX46Y46*%
G04 Gerber Fmt 4.6, Leading zero omitted, Abs format (unit mm)*
G04 Created by KiCad (PCBNEW 10.0.0) date 2026-09-20 19:23:54*
%MOMM*%
%LPD*%
G01*
G04 APERTURE LIST*
%TA.AperFunction,ViaPad*%
%ADD10C,0.900000*%
%TD*%
%TA.AperFunction,ViaPad*%
%ADD11C,0.800000*%
%TD*%
G04 APERTURE END LIST*
D10*
%TO.N,GND*%
X129000000Y9000000D03*
X92000000Y9000000D03*
X182000000Y9000000D03*
X179145296Y16549043D03*
D11*
X218640000Y18000000D03*
D10*
X201000000Y9000000D03*
D11*
X204300000Y18000000D03*
X32140000Y18000000D03*
D10*
X124000000Y9000000D03*
X81000000Y9000000D03*
D11*
X227300000Y18000000D03*
D10*
X192660000Y16000000D03*
X92822406Y12450956D03*
X145000000Y9000000D03*
X192660000Y13000000D03*
X18000000Y6000000D03*
X81660000Y16000000D03*
X208431328Y15887881D03*
D11*
X40880000Y18000000D03*
D10*
X109660000Y13000000D03*
X135660000Y13000000D03*
X95660000Y13000000D03*
D11*
X55220000Y18000000D03*
D10*
X149660000Y16000000D03*
D11*
X213040000Y18000000D03*
D10*
X65125300Y11395328D03*
X216000000Y9000000D03*
X159000000Y9000000D03*
X49891315Y14883725D03*
X35000000Y14000000D03*
D11*
X232900000Y18000000D03*
X189960000Y18000000D03*
X26540000Y18000000D03*
D10*
X66209396Y14093021D03*
X37000000Y18000000D03*
X78071031Y18074118D03*
X66000000Y18000000D03*
X192660000Y16000000D03*
X53000000Y9000000D03*
X138000000Y9000000D03*
X115000000Y9000000D03*
D11*
X161200000Y18000000D03*
D10*
X173000000Y9000000D03*
X221660000Y13000000D03*
X29000000Y9000000D03*
D11*
X146860000Y18000000D03*
X83900000Y18000000D03*
X103840000Y18000000D03*
D10*
X221000000Y9000000D03*
X166594459Y14194978D03*
X121278356Y11995243D03*
X78000000Y13000000D03*
X53000000Y9000000D03*
X154000000Y9000000D03*
D11*
X112580000Y18000000D03*
X175620000Y18000000D03*
D10*
X78000000Y9000000D03*
D11*
X184360000Y18000000D03*
X60820000Y18000000D03*
X46480000Y18000000D03*
D10*
X152454393Y11459206D03*
X210000000Y9000000D03*
D11*
X89500000Y18000000D03*
X126920000Y18000000D03*
D10*
X225000000Y9000000D03*
X30000000Y6000000D03*
X120000000Y9000000D03*
D11*
X17800000Y18000000D03*
D10*
X178000000Y9000000D03*
X81660000Y13000000D03*
D11*
X155600000Y18000000D03*
D10*
X22000000Y19000000D03*
D11*
X198700000Y18000000D03*
D10*
X168000000Y9000000D03*
D11*
X132520000Y18000000D03*
D10*
X39000000Y9000000D03*
X49000000Y9000000D03*
D11*
X12200000Y18000000D03*
D10*
X110000000Y9000000D03*
X195660000Y13000000D03*
X178854693Y12612440D03*
X163660000Y16000000D03*
X134000000Y9000000D03*
X192000000Y9000000D03*
X135660000Y16000000D03*
X64000000Y15000000D03*
X181660000Y13000000D03*
X96000000Y9000000D03*
X101000000Y9000000D03*
X221660000Y16000000D03*
D11*
X98240000Y18000000D03*
D10*
X87000000Y9000000D03*
X22214228Y15000000D03*
D11*
X75160000Y18000000D03*
D10*
X43000000Y9000000D03*
X79177046Y16345375D03*
X34000000Y9000000D03*
X67000000Y9000000D03*
X137818421Y11660325D03*
X210660000Y13000000D03*
X58000000Y9000000D03*
D11*
X141260000Y18000000D03*
D10*
X95660000Y16000000D03*
D11*
X118180000Y18000000D03*
D10*
X164000000Y9000000D03*
X207870781Y12349721D03*
X64000000Y9000000D03*
X105660000Y13000000D03*
X196000000Y9000000D03*
D11*
X69560000Y18000000D03*
D10*
X72000000Y9000000D03*
X20000000Y9000000D03*
X50326059Y18503868D03*
X164530715Y11727171D03*
X123660000Y13000000D03*
X149660000Y13000000D03*
X43000000Y9000000D03*
D11*
X170020000Y18000000D03*
D10*
X106000000Y9000000D03*
X236000000Y9000000D03*
X150000000Y9000000D03*
X24000000Y10000000D03*
X207000000Y9000000D03*
X230000000Y9000000D03*
X73942034Y12495484D03*
X187000000Y9000000D03*
X15000000Y9000000D03*
%TD*%
%TA.AperFunction,Conductor*%
%TO.N,GND*%
G36*
X244373942Y154519524D02*
G01*
X244461212Y154461212D01*
X244519524Y154373942D01*
X244540000Y154271000D01*
X244540000Y519500D01*
X244519524Y416558D01*
X244461212Y329288D01*
X244373942Y270976D01*
X244271000Y250500D01*
X519500Y250500D01*
X416558Y270976D01*
X329288Y329288D01*
X270976Y416558D01*
X250500Y519500D01*
X250500Y4121288D01*
X2149500Y4121288D01*
X2149500Y3878712D01*
X2170608Y3718378D01*
X2181162Y3638209D01*
X2243945Y3403903D01*
X2243945Y3403901D01*
X2336776Y3179788D01*
X2458064Y2969711D01*
X2605735Y2777262D01*
X2777262Y2605735D01*
X2969711Y2458064D01*
X3179788Y2336776D01*
X3403900Y2243946D01*
X3638211Y2181162D01*
X3878712Y2149500D01*
X3878715Y2149500D01*
X4121284Y2149500D01*
X4121288Y2149500D01*
X4361789Y2181162D01*
X4596100Y2243946D01*
X4820212Y2336776D01*
X5030289Y2458064D01*
X5222738Y2605735D01*
X5394265Y2777262D01*
X5541936Y2969711D01*
X5663224Y3179788D01*
X5756054Y3403900D01*
X5818838Y3638211D01*
X5850500Y3878712D01*
X5850500Y4121288D01*
X239149500Y4121288D01*
X239149500Y3878712D01*
X239170608Y3718378D01*
X239181162Y3638209D01*
X239243945Y3403903D01*
X239243945Y3403901D01*
X239336776Y3179788D01*
X239458064Y2969711D01*
X239605735Y2777262D01*
X239777262Y2605735D01*
X239969711Y2458064D01*
X240179788Y2336776D01*
X240403900Y2243946D01*
X240638211Y2181162D01*
X240878712Y2149500D01*
X240878715Y2149500D01*
X241121284Y2149500D01*
X241121288Y2149500D01*
X241361789Y2181162D01*
X241596100Y2243946D01*
X241820212Y2336776D01*
X242030289Y2458064D01*
X242222738Y2605735D01*
X242394265Y2777262D01*
X242541936Y2969711D01*
X242663224Y3179788D01*
X242756054Y3403900D01*
X242818838Y3638211D01*
X242850500Y3878712D01*
X242850500Y4121288D01*
X242818838Y4361789D01*
X242756054Y4596100D01*
X242663224Y4820212D01*
X242541936Y5030289D01*
X242394265Y5222738D01*
X242222738Y5394265D01*
X242030289Y5541936D01*
X242030290Y5541936D01*
X242030288Y5541937D01*
X241820212Y5663224D01*
X241596098Y5756055D01*
X241361791Y5818838D01*
X241265588Y5831503D01*
X241121288Y5850500D01*
X240878712Y5850500D01*
X240758461Y5834669D01*
X240638208Y5818838D01*
X240403902Y5756055D01*
X240403900Y5756055D01*
X240179787Y5663224D01*
X239969711Y5541937D01*
X239777260Y5394264D01*
X239605736Y5222740D01*
X239458063Y5030289D01*
X239336776Y4820213D01*
X239243945Y4596100D01*
X239243945Y4596098D01*
X239181162Y4361792D01*
X239181162Y4361789D01*
X239149500Y4121288D01*
X5850500Y4121288D01*
X5818838Y4361789D01*
X5756054Y4596100D01*
X5663224Y4820212D01*
X5541936Y5030289D01*
X5394265Y5222738D01*
X5222738Y5394265D01*
X5030289Y5541936D01*
X5030290Y5541936D01*
X5030288Y5541937D01*
X4820212Y5663224D01*
X4596098Y5756055D01*
X4361791Y5818838D01*
X4265588Y5831503D01*
X4121288Y5850500D01*
X3878712Y5850500D01*
X3758461Y5834669D01*
X3638208Y5818838D01*
X3403902Y5756055D01*
X3403900Y5756055D01*
X3179787Y5663224D01*
X2969711Y5541937D01*
X2777260Y5394264D01*
X2605736Y5222740D01*
X2458063Y5030289D01*
X2336776Y4820213D01*
X2243945Y4596100D01*
X2243945Y4596098D01*
X2181162Y4361792D01*
X2181162Y4361789D01*
X2149500Y4121288D01*
X250500Y4121288D01*
X250500Y151121288D01*
X2149500Y151121288D01*
X2149500Y150878712D01*
X2170608Y150718378D01*
X2181162Y150638209D01*
X2243945Y150403903D01*
X2243945Y150403901D01*
X2336776Y150179788D01*
X2458064Y149969711D01*
X2605735Y149777262D01*
X2777262Y149605735D01*
X2969711Y149458064D01*
X3179788Y149336776D01*
X3403900Y149243946D01*
X3638211Y149181162D01*
X3878712Y149149500D01*
X3878715Y149149500D01*
X4121284Y149149500D01*
X4121288Y149149500D01*
X4361789Y149181162D01*
X4596100Y149243946D01*
X4820212Y149336776D01*
X5030289Y149458064D01*
X5222738Y149605735D01*
X5394265Y149777262D01*
X5541936Y149969711D01*
X5663224Y150179788D01*
X5756054Y150403900D01*
X5818838Y150638211D01*
X5850500Y150878712D01*
X5850500Y151121288D01*
X239149500Y151121288D01*
X239149500Y150878712D01*
X239170608Y150718378D01*
X239181162Y150638209D01*
X239243945Y150403903D01*
X239243945Y150403901D01*
X239336776Y150179788D01*
X239458064Y149969711D01*
X239605735Y149777262D01*
X239777262Y149605735D01*
X239969711Y149458064D01*
X240179788Y149336776D01*
X240403900Y149243946D01*
X240638211Y149181162D01*
X240878712Y149149500D01*
X240878715Y149149500D01*
X241121284Y149149500D01*
X241121288Y149149500D01*
X241361789Y149181162D01*
X241596100Y149243946D01*
X241820212Y149336776D01*
X242030289Y149458064D01*
X242222738Y149605735D01*
X242394265Y149777262D01*
X242541936Y149969711D01*
X242663224Y150179788D01*
X242756054Y150403900D01*
X242818838Y150638211D01*
X242850500Y150878712D01*
X242850500Y151121288D01*
X242818838Y151361789D01*
X242756054Y151596100D01*
X242663224Y151820212D01*
X242541936Y152030289D01*
X242394265Y152222738D01*
X242222738Y152394265D01*
X242030289Y152541936D01*
X242030290Y152541936D01*
X242030288Y152541937D01*
X241820212Y152663224D01*
X241596098Y152756055D01*
X241361791Y152818838D01*
X241265588Y152831503D01*
X241121288Y152850500D01*
X240878712Y152850500D01*
X240758461Y152834669D01*
X240638208Y152818838D01*
X240403902Y152756055D01*
X240403900Y152756055D01*
X240179787Y152663224D01*
X239969711Y152541937D01*
X239777260Y152394264D01*
X239605736Y152222740D01*
X239458063Y152030289D01*
X239336776Y151820213D01*
X239243945Y151596100D01*
X239243945Y151596098D01*
X239181162Y151361792D01*
X239181162Y151361789D01*
X239149500Y151121288D01*
X5850500Y151121288D01*
X5818838Y151361789D01*
X5756054Y151596100D01*
X5663224Y151820212D01*
X5541936Y152030289D01*
X5394265Y152222738D01*
X5222738Y152394265D01*
X5030289Y152541936D01*
X5030290Y152541936D01*
X5030288Y152541937D01*
X4820212Y152663224D01*
X4596098Y152756055D01*
X4361791Y152818838D01*
X4265588Y152831503D01*
X4121288Y152850500D01*
X3878712Y152850500D01*
X3758461Y152834669D01*
X3638208Y152818838D01*
X3403902Y152756055D01*
X3403900Y152756055D01*
X3179787Y152663224D01*
X2969711Y152541937D01*
X2777260Y152394264D01*
X2605736Y152222740D01*
X2458063Y152030289D01*
X2336776Y151820213D01*
X2243945Y151596100D01*
X2243945Y151596098D01*
X2181162Y151361792D01*
X2181162Y151361789D01*
X2149500Y151121288D01*
X250500Y151121288D01*
X250500Y154271000D01*
X270976Y154373942D01*
X329288Y154461212D01*
X416558Y154519524D01*
X519500Y154540000D01*
X244271000Y154540000D01*
X244373942Y154519524D01*
G37*
%TD.AperFunction*%
%TD*%
M02*
