%TF.GenerationSoftware,KiCad,Pcbnew,10.0.0*%
%TF.CreationDate,2026-09-20T19:23:55+08:00*%
%TF.ProjectId,Patch_Anetnna_16_8_IPEX1,50617463-685f-4416-9e65-746e6e615f31,IPEX1-A1*%
%TF.SameCoordinates,Original*%
%TF.FileFunction,Soldermask,Top*%
%TF.FilePolarity,Negative*%
%FSLAX46Y46*%
G04 Gerber Fmt 4.6, Leading zero omitted, Abs format (unit mm)*
G04 Created by KiCad (PCBNEW 10.0.0) date 2026-09-20 19:23:55*
%MOMM*%
%LPD*%
G01*
G04 APERTURE LIST*
G04 Aperture macros list*
%AMRoundRect*
0 Rectangle with rounded corners*
0 $1 Rounding radius*
0 $2 $3 $4 $5 $6 $7 $8 $9 X,Y pos of 4 corners*
0 Add a 4 corners polygon primitive as box body*
4,1,4,$2,$3,$4,$5,$6,$7,$8,$9,$2,$3,0*
0 Add four circle primitives for the rounded corners*
1,1,$1+$1,$2,$3*
1,1,$1+$1,$4,$5*
1,1,$1+$1,$6,$7*
1,1,$1+$1,$8,$9*
0 Add four rect primitives between the rounded corners*
20,1,$1+$1,$2,$3,$4,$5,0*
20,1,$1+$1,$4,$5,$6,$7,0*
20,1,$1+$1,$6,$7,$8,$9,0*
20,1,$1+$1,$8,$9,$2,$3,0*%
G04 Aperture macros list end*
%ADD10RoundRect,0.050000X0.500000X0.525000X-0.500000X0.525000X-0.500000X-0.525000X0.500000X-0.525000X0*%
%ADD11RoundRect,0.050000X0.525000X1.100000X-0.525000X1.100000X-0.525000X-1.100000X0.525000X-1.100000X0*%
%ADD12C,3.200000*%
G04 APERTURE END LIST*
D10*
%TO.C,J3*%
X58020000Y19525000D03*
D11*
X59495000Y18000000D03*
X56545000Y18000000D03*
%TD*%
D10*
%TO.C,J15*%
X215840000Y19525000D03*
D11*
X217315000Y18000000D03*
X214365000Y18000000D03*
%TD*%
D10*
%TO.C,J2*%
X43680000Y19525000D03*
D11*
X45155000Y18000000D03*
X42205000Y18000000D03*
%TD*%
D10*
%TO.C,J7*%
X101040000Y19525000D03*
D11*
X102515000Y18000000D03*
X99565000Y18000000D03*
%TD*%
D10*
%TO.C,J9*%
X172820000Y19525000D03*
D11*
X174295000Y18000000D03*
X171345000Y18000000D03*
%TD*%
D10*
%TO.C,J8*%
X115380000Y19525000D03*
D11*
X116855000Y18000000D03*
X113905000Y18000000D03*
%TD*%
D10*
%TO.C,J11*%
X187160000Y19525000D03*
D11*
X188635000Y18000000D03*
X185685000Y18000000D03*
%TD*%
D12*
%TO.C,UNK_HOLE_3*%
X4000000Y151000000D03*
%TD*%
D10*
%TO.C,J17*%
X15000000Y19525000D03*
D11*
X16475000Y18000000D03*
X13525000Y18000000D03*
%TD*%
D12*
%TO.C,UNK_HOLE_0*%
X4000000Y4000000D03*
%TD*%
D10*
%TO.C,J13*%
X201500000Y19525000D03*
D11*
X202975000Y18000000D03*
X200025000Y18000000D03*
%TD*%
D10*
%TO.C,J4*%
X230100000Y19525000D03*
D11*
X231575000Y18000000D03*
X228625000Y18000000D03*
%TD*%
D10*
%TO.C,J6*%
X86700000Y19525000D03*
D11*
X88175000Y18000000D03*
X85225000Y18000000D03*
%TD*%
D10*
%TO.C,J14*%
X158400000Y19525000D03*
D11*
X159875000Y18000000D03*
X156925000Y18000000D03*
%TD*%
D10*
%TO.C,J1*%
X29340000Y19525000D03*
D11*
X30815000Y18000000D03*
X27865000Y18000000D03*
%TD*%
D10*
%TO.C,J10*%
X129720000Y19525000D03*
D11*
X131195000Y18000000D03*
X128245000Y18000000D03*
%TD*%
D12*
%TO.C,UNK_HOLE_2*%
X241000000Y151000000D03*
%TD*%
D10*
%TO.C,J12*%
X144060000Y19525000D03*
D11*
X145535000Y18000000D03*
X142585000Y18000000D03*
%TD*%
D12*
%TO.C,UNK_HOLE_1*%
X241000000Y4000000D03*
%TD*%
D10*
%TO.C,J5*%
X72360000Y19525000D03*
D11*
X73835000Y18000000D03*
X70885000Y18000000D03*
%TD*%
G36*
X244833942Y154979524D02*
G01*
X244921212Y154921212D01*
X244979524Y154833942D01*
X245000000Y154731000D01*
X245000000Y269000D01*
X244979524Y166058D01*
X244921212Y78788D01*
X244833942Y20476D01*
X244731000Y0D01*
X269000Y0D01*
X166058Y20476D01*
X78788Y78788D01*
X20476Y166058D01*
X0Y269000D01*
X0Y154731000D01*
X20476Y154833942D01*
X78788Y154921212D01*
X166058Y154979524D01*
X269000Y155000000D01*
X244731000Y155000000D01*
X244833942Y154979524D01*
G37*
M02*
