%TF.GenerationSoftware,KiCad,Pcbnew,10.0.0*%
%TF.CreationDate,2026-09-20T19:23:55+08:00*%
%TF.ProjectId,Patch_Anetnna_16_8_IPEX1,50617463-685f-4416-9e65-746e6e615f31,IPEX1-A1*%
%TF.SameCoordinates,Original*%
%TF.FileFunction,Legend,Top*%
%TF.FilePolarity,Positive*%
%FSLAX46Y46*%
G04 Gerber Fmt 4.6, Leading zero omitted, Abs format (unit mm)*
G04 Created by KiCad (PCBNEW 10.0.0) date 2026-09-20 19:23:55*
%MOMM*%
%LPD*%
G01*
G04 APERTURE LIST*
G04 Aperture macros list*
%AMRoundRect*
0 Rectangle with rounded corners*
0 $1 Rounding radius*
0 $2 $3 $4 $5 $6 $7 $8 $9 X,Y pos of 4 corners*
0 Add a 4 corners polygon primitive as box body*
4,1,4,$2,$3,$4,$5,$6,$7,$8,$9,$2,$3,0*
0 Add four circle primitives for the rounded corners*
1,1,$1+$1,$2,$3*
1,1,$1+$1,$4,$5*
1,1,$1+$1,$6,$7*
1,1,$1+$1,$8,$9*
0 Add four rect primitives between the rounded corners*
20,1,$1+$1,$2,$3,$4,$5,0*
20,1,$1+$1,$4,$5,$6,$7,0*
20,1,$1+$1,$6,$7,$8,$9,0*
20,1,$1+$1,$8,$9,$2,$3,0*%
G04 Aperture macros list end*
%ADD10C,0.120000*%
%ADD11RoundRect,0.050000X0.500000X0.525000X-0.500000X0.525000X-0.500000X-0.525000X0.500000X-0.525000X0*%
%ADD12RoundRect,0.050000X0.525000X1.100000X-0.525000X1.100000X-0.525000X-1.100000X0.525000X-1.100000X0*%
%ADD13C,3.200000*%
G04 APERTURE END LIST*
D10*
X57753333Y15436145D02*
X57753333Y14864717D01*
X57753333Y14864717D02*
X57715238Y14750431D01*
X57715238Y14750431D02*
X57639047Y14674240D01*
X57639047Y14674240D02*
X57524762Y14636145D01*
X57524762Y14636145D02*
X57448571Y14636145D01*
X58058095Y15436145D02*
X58553333Y15436145D01*
X58553333Y15436145D02*
X58286667Y15131383D01*
X58286667Y15131383D02*
X58400952Y15131383D01*
X58400952Y15131383D02*
X58477143Y15093288D01*
X58477143Y15093288D02*
X58515238Y15055193D01*
X58515238Y15055193D02*
X58553333Y14979002D01*
X58553333Y14979002D02*
X58553333Y14788526D01*
X58553333Y14788526D02*
X58515238Y14712336D01*
X58515238Y14712336D02*
X58477143Y14674240D01*
X58477143Y14674240D02*
X58400952Y14636145D01*
X58400952Y14636145D02*
X58172381Y14636145D01*
X58172381Y14636145D02*
X58096190Y14674240D01*
X58096190Y14674240D02*
X58058095Y14712336D01*
X215192380Y15436145D02*
X215192380Y14864717D01*
X215192380Y14864717D02*
X215154285Y14750431D01*
X215154285Y14750431D02*
X215078094Y14674240D01*
X215078094Y14674240D02*
X214963809Y14636145D01*
X214963809Y14636145D02*
X214887618Y14636145D01*
X215992380Y14636145D02*
X215535237Y14636145D01*
X215763809Y14636145D02*
X215763809Y15436145D01*
X215763809Y15436145D02*
X215687618Y15321860D01*
X215687618Y15321860D02*
X215611428Y15245669D01*
X215611428Y15245669D02*
X215535237Y15207574D01*
X216716190Y15436145D02*
X216335238Y15436145D01*
X216335238Y15436145D02*
X216297142Y15055193D01*
X216297142Y15055193D02*
X216335238Y15093288D01*
X216335238Y15093288D02*
X216411428Y15131383D01*
X216411428Y15131383D02*
X216601904Y15131383D01*
X216601904Y15131383D02*
X216678095Y15093288D01*
X216678095Y15093288D02*
X216716190Y15055193D01*
X216716190Y15055193D02*
X216754285Y14979002D01*
X216754285Y14979002D02*
X216754285Y14788526D01*
X216754285Y14788526D02*
X216716190Y14712336D01*
X216716190Y14712336D02*
X216678095Y14674240D01*
X216678095Y14674240D02*
X216601904Y14636145D01*
X216601904Y14636145D02*
X216411428Y14636145D01*
X216411428Y14636145D02*
X216335238Y14674240D01*
X216335238Y14674240D02*
X216297142Y14712336D01*
X43413333Y15436145D02*
X43413333Y14864717D01*
X43413333Y14864717D02*
X43375238Y14750431D01*
X43375238Y14750431D02*
X43299047Y14674240D01*
X43299047Y14674240D02*
X43184762Y14636145D01*
X43184762Y14636145D02*
X43108571Y14636145D01*
X43756190Y15359955D02*
X43794286Y15398050D01*
X43794286Y15398050D02*
X43870476Y15436145D01*
X43870476Y15436145D02*
X44060952Y15436145D01*
X44060952Y15436145D02*
X44137143Y15398050D01*
X44137143Y15398050D02*
X44175238Y15359955D01*
X44175238Y15359955D02*
X44213333Y15283764D01*
X44213333Y15283764D02*
X44213333Y15207574D01*
X44213333Y15207574D02*
X44175238Y15093288D01*
X44175238Y15093288D02*
X43718095Y14636145D01*
X43718095Y14636145D02*
X44213333Y14636145D01*
X100773333Y15436145D02*
X100773333Y14864717D01*
X100773333Y14864717D02*
X100735238Y14750431D01*
X100735238Y14750431D02*
X100659047Y14674240D01*
X100659047Y14674240D02*
X100544762Y14636145D01*
X100544762Y14636145D02*
X100468571Y14636145D01*
X101078095Y15436145D02*
X101611429Y15436145D01*
X101611429Y15436145D02*
X101268571Y14636145D01*
X172553333Y15436145D02*
X172553333Y14864717D01*
X172553333Y14864717D02*
X172515238Y14750431D01*
X172515238Y14750431D02*
X172439047Y14674240D01*
X172439047Y14674240D02*
X172324762Y14636145D01*
X172324762Y14636145D02*
X172248571Y14636145D01*
X172972381Y14636145D02*
X173124762Y14636145D01*
X173124762Y14636145D02*
X173200952Y14674240D01*
X173200952Y14674240D02*
X173239048Y14712336D01*
X173239048Y14712336D02*
X173315238Y14826621D01*
X173315238Y14826621D02*
X173353333Y14979002D01*
X173353333Y14979002D02*
X173353333Y15283764D01*
X173353333Y15283764D02*
X173315238Y15359955D01*
X173315238Y15359955D02*
X173277143Y15398050D01*
X173277143Y15398050D02*
X173200952Y15436145D01*
X173200952Y15436145D02*
X173048571Y15436145D01*
X173048571Y15436145D02*
X172972381Y15398050D01*
X172972381Y15398050D02*
X172934286Y15359955D01*
X172934286Y15359955D02*
X172896190Y15283764D01*
X172896190Y15283764D02*
X172896190Y15093288D01*
X172896190Y15093288D02*
X172934286Y15017098D01*
X172934286Y15017098D02*
X172972381Y14979002D01*
X172972381Y14979002D02*
X173048571Y14940907D01*
X173048571Y14940907D02*
X173200952Y14940907D01*
X173200952Y14940907D02*
X173277143Y14979002D01*
X173277143Y14979002D02*
X173315238Y15017098D01*
X173315238Y15017098D02*
X173353333Y15093288D01*
X115113333Y15436145D02*
X115113333Y14864717D01*
X115113333Y14864717D02*
X115075238Y14750431D01*
X115075238Y14750431D02*
X114999047Y14674240D01*
X114999047Y14674240D02*
X114884762Y14636145D01*
X114884762Y14636145D02*
X114808571Y14636145D01*
X115608571Y15093288D02*
X115532381Y15131383D01*
X115532381Y15131383D02*
X115494286Y15169479D01*
X115494286Y15169479D02*
X115456190Y15245669D01*
X115456190Y15245669D02*
X115456190Y15283764D01*
X115456190Y15283764D02*
X115494286Y15359955D01*
X115494286Y15359955D02*
X115532381Y15398050D01*
X115532381Y15398050D02*
X115608571Y15436145D01*
X115608571Y15436145D02*
X115760952Y15436145D01*
X115760952Y15436145D02*
X115837143Y15398050D01*
X115837143Y15398050D02*
X115875238Y15359955D01*
X115875238Y15359955D02*
X115913333Y15283764D01*
X115913333Y15283764D02*
X115913333Y15245669D01*
X115913333Y15245669D02*
X115875238Y15169479D01*
X115875238Y15169479D02*
X115837143Y15131383D01*
X115837143Y15131383D02*
X115760952Y15093288D01*
X115760952Y15093288D02*
X115608571Y15093288D01*
X115608571Y15093288D02*
X115532381Y15055193D01*
X115532381Y15055193D02*
X115494286Y15017098D01*
X115494286Y15017098D02*
X115456190Y14940907D01*
X115456190Y14940907D02*
X115456190Y14788526D01*
X115456190Y14788526D02*
X115494286Y14712336D01*
X115494286Y14712336D02*
X115532381Y14674240D01*
X115532381Y14674240D02*
X115608571Y14636145D01*
X115608571Y14636145D02*
X115760952Y14636145D01*
X115760952Y14636145D02*
X115837143Y14674240D01*
X115837143Y14674240D02*
X115875238Y14712336D01*
X115875238Y14712336D02*
X115913333Y14788526D01*
X115913333Y14788526D02*
X115913333Y14940907D01*
X115913333Y14940907D02*
X115875238Y15017098D01*
X115875238Y15017098D02*
X115837143Y15055193D01*
X115837143Y15055193D02*
X115760952Y15093288D01*
X186512380Y15436145D02*
X186512380Y14864717D01*
X186512380Y14864717D02*
X186474285Y14750431D01*
X186474285Y14750431D02*
X186398094Y14674240D01*
X186398094Y14674240D02*
X186283809Y14636145D01*
X186283809Y14636145D02*
X186207618Y14636145D01*
X187312380Y14636145D02*
X186855237Y14636145D01*
X187083809Y14636145D02*
X187083809Y15436145D01*
X187083809Y15436145D02*
X187007618Y15321860D01*
X187007618Y15321860D02*
X186931428Y15245669D01*
X186931428Y15245669D02*
X186855237Y15207574D01*
X188074285Y14636145D02*
X187617142Y14636145D01*
X187845714Y14636145D02*
X187845714Y15436145D01*
X187845714Y15436145D02*
X187769523Y15321860D01*
X187769523Y15321860D02*
X187693333Y15245669D01*
X187693333Y15245669D02*
X187617142Y15207574D01*
X14352380Y15436145D02*
X14352380Y14864717D01*
X14352380Y14864717D02*
X14314285Y14750431D01*
X14314285Y14750431D02*
X14238094Y14674240D01*
X14238094Y14674240D02*
X14123809Y14636145D01*
X14123809Y14636145D02*
X14047618Y14636145D01*
X15152380Y14636145D02*
X14695237Y14636145D01*
X14923809Y14636145D02*
X14923809Y15436145D01*
X14923809Y15436145D02*
X14847618Y15321860D01*
X14847618Y15321860D02*
X14771428Y15245669D01*
X14771428Y15245669D02*
X14695237Y15207574D01*
X15419047Y15436145D02*
X15952381Y15436145D01*
X15952381Y15436145D02*
X15609523Y14636145D01*
X200852380Y15436145D02*
X200852380Y14864717D01*
X200852380Y14864717D02*
X200814285Y14750431D01*
X200814285Y14750431D02*
X200738094Y14674240D01*
X200738094Y14674240D02*
X200623809Y14636145D01*
X200623809Y14636145D02*
X200547618Y14636145D01*
X201652380Y14636145D02*
X201195237Y14636145D01*
X201423809Y14636145D02*
X201423809Y15436145D01*
X201423809Y15436145D02*
X201347618Y15321860D01*
X201347618Y15321860D02*
X201271428Y15245669D01*
X201271428Y15245669D02*
X201195237Y15207574D01*
X201919047Y15436145D02*
X202414285Y15436145D01*
X202414285Y15436145D02*
X202147619Y15131383D01*
X202147619Y15131383D02*
X202261904Y15131383D01*
X202261904Y15131383D02*
X202338095Y15093288D01*
X202338095Y15093288D02*
X202376190Y15055193D01*
X202376190Y15055193D02*
X202414285Y14979002D01*
X202414285Y14979002D02*
X202414285Y14788526D01*
X202414285Y14788526D02*
X202376190Y14712336D01*
X202376190Y14712336D02*
X202338095Y14674240D01*
X202338095Y14674240D02*
X202261904Y14636145D01*
X202261904Y14636145D02*
X202033333Y14636145D01*
X202033333Y14636145D02*
X201957142Y14674240D01*
X201957142Y14674240D02*
X201919047Y14712336D01*
X229833333Y15436145D02*
X229833333Y14864717D01*
X229833333Y14864717D02*
X229795238Y14750431D01*
X229795238Y14750431D02*
X229719047Y14674240D01*
X229719047Y14674240D02*
X229604762Y14636145D01*
X229604762Y14636145D02*
X229528571Y14636145D01*
X230557143Y15169479D02*
X230557143Y14636145D01*
X230366667Y15474240D02*
X230176190Y14902812D01*
X230176190Y14902812D02*
X230671429Y14902812D01*
X86433333Y15436145D02*
X86433333Y14864717D01*
X86433333Y14864717D02*
X86395238Y14750431D01*
X86395238Y14750431D02*
X86319047Y14674240D01*
X86319047Y14674240D02*
X86204762Y14636145D01*
X86204762Y14636145D02*
X86128571Y14636145D01*
X87157143Y15436145D02*
X87004762Y15436145D01*
X87004762Y15436145D02*
X86928571Y15398050D01*
X86928571Y15398050D02*
X86890476Y15359955D01*
X86890476Y15359955D02*
X86814286Y15245669D01*
X86814286Y15245669D02*
X86776190Y15093288D01*
X86776190Y15093288D02*
X86776190Y14788526D01*
X86776190Y14788526D02*
X86814286Y14712336D01*
X86814286Y14712336D02*
X86852381Y14674240D01*
X86852381Y14674240D02*
X86928571Y14636145D01*
X86928571Y14636145D02*
X87080952Y14636145D01*
X87080952Y14636145D02*
X87157143Y14674240D01*
X87157143Y14674240D02*
X87195238Y14712336D01*
X87195238Y14712336D02*
X87233333Y14788526D01*
X87233333Y14788526D02*
X87233333Y14979002D01*
X87233333Y14979002D02*
X87195238Y15055193D01*
X87195238Y15055193D02*
X87157143Y15093288D01*
X87157143Y15093288D02*
X87080952Y15131383D01*
X87080952Y15131383D02*
X86928571Y15131383D01*
X86928571Y15131383D02*
X86852381Y15093288D01*
X86852381Y15093288D02*
X86814286Y15055193D01*
X86814286Y15055193D02*
X86776190Y14979002D01*
X157752380Y15436145D02*
X157752380Y14864717D01*
X157752380Y14864717D02*
X157714285Y14750431D01*
X157714285Y14750431D02*
X157638094Y14674240D01*
X157638094Y14674240D02*
X157523809Y14636145D01*
X157523809Y14636145D02*
X157447618Y14636145D01*
X158552380Y14636145D02*
X158095237Y14636145D01*
X158323809Y14636145D02*
X158323809Y15436145D01*
X158323809Y15436145D02*
X158247618Y15321860D01*
X158247618Y15321860D02*
X158171428Y15245669D01*
X158171428Y15245669D02*
X158095237Y15207574D01*
X159238095Y15169479D02*
X159238095Y14636145D01*
X159047619Y15474240D02*
X158857142Y14902812D01*
X158857142Y14902812D02*
X159352381Y14902812D01*
X29073333Y15436145D02*
X29073333Y14864717D01*
X29073333Y14864717D02*
X29035238Y14750431D01*
X29035238Y14750431D02*
X28959047Y14674240D01*
X28959047Y14674240D02*
X28844762Y14636145D01*
X28844762Y14636145D02*
X28768571Y14636145D01*
X29873333Y14636145D02*
X29416190Y14636145D01*
X29644762Y14636145D02*
X29644762Y15436145D01*
X29644762Y15436145D02*
X29568571Y15321860D01*
X29568571Y15321860D02*
X29492381Y15245669D01*
X29492381Y15245669D02*
X29416190Y15207574D01*
X129072380Y15436145D02*
X129072380Y14864717D01*
X129072380Y14864717D02*
X129034285Y14750431D01*
X129034285Y14750431D02*
X128958094Y14674240D01*
X128958094Y14674240D02*
X128843809Y14636145D01*
X128843809Y14636145D02*
X128767618Y14636145D01*
X129872380Y14636145D02*
X129415237Y14636145D01*
X129643809Y14636145D02*
X129643809Y15436145D01*
X129643809Y15436145D02*
X129567618Y15321860D01*
X129567618Y15321860D02*
X129491428Y15245669D01*
X129491428Y15245669D02*
X129415237Y15207574D01*
X130367619Y15436145D02*
X130443809Y15436145D01*
X130443809Y15436145D02*
X130520000Y15398050D01*
X130520000Y15398050D02*
X130558095Y15359955D01*
X130558095Y15359955D02*
X130596190Y15283764D01*
X130596190Y15283764D02*
X130634285Y15131383D01*
X130634285Y15131383D02*
X130634285Y14940907D01*
X130634285Y14940907D02*
X130596190Y14788526D01*
X130596190Y14788526D02*
X130558095Y14712336D01*
X130558095Y14712336D02*
X130520000Y14674240D01*
X130520000Y14674240D02*
X130443809Y14636145D01*
X130443809Y14636145D02*
X130367619Y14636145D01*
X130367619Y14636145D02*
X130291428Y14674240D01*
X130291428Y14674240D02*
X130253333Y14712336D01*
X130253333Y14712336D02*
X130215238Y14788526D01*
X130215238Y14788526D02*
X130177142Y14940907D01*
X130177142Y14940907D02*
X130177142Y15131383D01*
X130177142Y15131383D02*
X130215238Y15283764D01*
X130215238Y15283764D02*
X130253333Y15359955D01*
X130253333Y15359955D02*
X130291428Y15398050D01*
X130291428Y15398050D02*
X130367619Y15436145D01*
X143412380Y15436145D02*
X143412380Y14864717D01*
X143412380Y14864717D02*
X143374285Y14750431D01*
X143374285Y14750431D02*
X143298094Y14674240D01*
X143298094Y14674240D02*
X143183809Y14636145D01*
X143183809Y14636145D02*
X143107618Y14636145D01*
X144212380Y14636145D02*
X143755237Y14636145D01*
X143983809Y14636145D02*
X143983809Y15436145D01*
X143983809Y15436145D02*
X143907618Y15321860D01*
X143907618Y15321860D02*
X143831428Y15245669D01*
X143831428Y15245669D02*
X143755237Y15207574D01*
X144517142Y15359955D02*
X144555238Y15398050D01*
X144555238Y15398050D02*
X144631428Y15436145D01*
X144631428Y15436145D02*
X144821904Y15436145D01*
X144821904Y15436145D02*
X144898095Y15398050D01*
X144898095Y15398050D02*
X144936190Y15359955D01*
X144936190Y15359955D02*
X144974285Y15283764D01*
X144974285Y15283764D02*
X144974285Y15207574D01*
X144974285Y15207574D02*
X144936190Y15093288D01*
X144936190Y15093288D02*
X144479047Y14636145D01*
X144479047Y14636145D02*
X144974285Y14636145D01*
X72093333Y15436145D02*
X72093333Y14864717D01*
X72093333Y14864717D02*
X72055238Y14750431D01*
X72055238Y14750431D02*
X71979047Y14674240D01*
X71979047Y14674240D02*
X71864762Y14636145D01*
X71864762Y14636145D02*
X71788571Y14636145D01*
X72855238Y15436145D02*
X72474286Y15436145D01*
X72474286Y15436145D02*
X72436190Y15055193D01*
X72436190Y15055193D02*
X72474286Y15093288D01*
X72474286Y15093288D02*
X72550476Y15131383D01*
X72550476Y15131383D02*
X72740952Y15131383D01*
X72740952Y15131383D02*
X72817143Y15093288D01*
X72817143Y15093288D02*
X72855238Y15055193D01*
X72855238Y15055193D02*
X72893333Y14979002D01*
X72893333Y14979002D02*
X72893333Y14788526D01*
X72893333Y14788526D02*
X72855238Y14712336D01*
X72855238Y14712336D02*
X72817143Y14674240D01*
X72817143Y14674240D02*
X72740952Y14636145D01*
X72740952Y14636145D02*
X72550476Y14636145D01*
X72550476Y14636145D02*
X72474286Y14674240D01*
X72474286Y14674240D02*
X72436190Y14712336D01*
%TO.C,J3*%
X57270000Y19450000D02*
X57270000Y20150000D01*
X58770000Y19450000D02*
X58770000Y20150000D01*
X58770000Y16550000D02*
X57270000Y16550000D01*
%TO.C,J15*%
X215090000Y19450000D02*
X215090000Y20150000D01*
X216590000Y19450000D02*
X216590000Y20150000D01*
X216590000Y16550000D02*
X215090000Y16550000D01*
%TO.C,J2*%
X42930000Y19450000D02*
X42930000Y20150000D01*
X44430000Y19450000D02*
X44430000Y20150000D01*
X44430000Y16550000D02*
X42930000Y16550000D01*
%TO.C,J7*%
X100290000Y19450000D02*
X100290000Y20150000D01*
X101790000Y19450000D02*
X101790000Y20150000D01*
X101790000Y16550000D02*
X100290000Y16550000D01*
%TO.C,J9*%
X172070000Y19450000D02*
X172070000Y20150000D01*
X173570000Y19450000D02*
X173570000Y20150000D01*
X173570000Y16550000D02*
X172070000Y16550000D01*
%TO.C,J8*%
X114630000Y19450000D02*
X114630000Y20150000D01*
X116130000Y19450000D02*
X116130000Y20150000D01*
X116130000Y16550000D02*
X114630000Y16550000D01*
%TO.C,J11*%
X186410000Y19450000D02*
X186410000Y20150000D01*
X187910000Y19450000D02*
X187910000Y20150000D01*
X187910000Y16550000D02*
X186410000Y16550000D01*
%TO.C,J17*%
X14250000Y19450000D02*
X14250000Y20150000D01*
X15750000Y19450000D02*
X15750000Y20150000D01*
X15750000Y16550000D02*
X14250000Y16550000D01*
%TO.C,J13*%
X200750000Y19450000D02*
X200750000Y20150000D01*
X202250000Y19450000D02*
X202250000Y20150000D01*
X202250000Y16550000D02*
X200750000Y16550000D01*
%TO.C,J4*%
X229350000Y19450000D02*
X229350000Y20150000D01*
X230850000Y19450000D02*
X230850000Y20150000D01*
X230850000Y16550000D02*
X229350000Y16550000D01*
%TO.C,J6*%
X85950000Y19450000D02*
X85950000Y20150000D01*
X87450000Y19450000D02*
X87450000Y20150000D01*
X87450000Y16550000D02*
X85950000Y16550000D01*
%TO.C,J14*%
X157650000Y19450000D02*
X157650000Y20150000D01*
X159150000Y19450000D02*
X159150000Y20150000D01*
X159150000Y16550000D02*
X157650000Y16550000D01*
%TO.C,J1*%
X28590000Y19450000D02*
X28590000Y20150000D01*
X30090000Y19450000D02*
X30090000Y20150000D01*
X30090000Y16550000D02*
X28590000Y16550000D01*
%TO.C,J10*%
X128970000Y19450000D02*
X128970000Y20150000D01*
X130470000Y19450000D02*
X130470000Y20150000D01*
X130470000Y16550000D02*
X128970000Y16550000D01*
%TO.C,J12*%
X143310000Y19450000D02*
X143310000Y20150000D01*
X144810000Y19450000D02*
X144810000Y20150000D01*
X144810000Y16550000D02*
X143310000Y16550000D01*
%TO.C,J5*%
X71610000Y19450000D02*
X71610000Y20150000D01*
X73110000Y19450000D02*
X73110000Y20150000D01*
X73110000Y16550000D02*
X71610000Y16550000D01*
%TD*%
%LPC*%
D11*
%TO.C,J3*%
X58020000Y19525000D03*
D12*
X59495000Y18000000D03*
X56545000Y18000000D03*
%TD*%
D11*
%TO.C,J15*%
X215840000Y19525000D03*
D12*
X217315000Y18000000D03*
X214365000Y18000000D03*
%TD*%
D11*
%TO.C,J2*%
X43680000Y19525000D03*
D12*
X45155000Y18000000D03*
X42205000Y18000000D03*
%TD*%
D11*
%TO.C,J7*%
X101040000Y19525000D03*
D12*
X102515000Y18000000D03*
X99565000Y18000000D03*
%TD*%
D11*
%TO.C,J9*%
X172820000Y19525000D03*
D12*
X174295000Y18000000D03*
X171345000Y18000000D03*
%TD*%
D11*
%TO.C,J8*%
X115380000Y19525000D03*
D12*
X116855000Y18000000D03*
X113905000Y18000000D03*
%TD*%
D11*
%TO.C,J11*%
X187160000Y19525000D03*
D12*
X188635000Y18000000D03*
X185685000Y18000000D03*
%TD*%
D13*
%TO.C,UNK_HOLE_3*%
X4000000Y151000000D03*
%TD*%
D11*
%TO.C,J17*%
X15000000Y19525000D03*
D12*
X16475000Y18000000D03*
X13525000Y18000000D03*
%TD*%
D13*
%TO.C,UNK_HOLE_0*%
X4000000Y4000000D03*
%TD*%
D11*
%TO.C,J13*%
X201500000Y19525000D03*
D12*
X202975000Y18000000D03*
X200025000Y18000000D03*
%TD*%
D11*
%TO.C,J4*%
X230100000Y19525000D03*
D12*
X231575000Y18000000D03*
X228625000Y18000000D03*
%TD*%
D11*
%TO.C,J6*%
X86700000Y19525000D03*
D12*
X88175000Y18000000D03*
X85225000Y18000000D03*
%TD*%
D11*
%TO.C,J14*%
X158400000Y19525000D03*
D12*
X159875000Y18000000D03*
X156925000Y18000000D03*
%TD*%
D11*
%TO.C,J1*%
X29340000Y19525000D03*
D12*
X30815000Y18000000D03*
X27865000Y18000000D03*
%TD*%
D11*
%TO.C,J10*%
X129720000Y19525000D03*
D12*
X131195000Y18000000D03*
X128245000Y18000000D03*
%TD*%
D13*
%TO.C,UNK_HOLE_2*%
X241000000Y151000000D03*
%TD*%
D11*
%TO.C,J12*%
X144060000Y19525000D03*
D12*
X145535000Y18000000D03*
X142585000Y18000000D03*
%TD*%
D13*
%TO.C,UNK_HOLE_1*%
X241000000Y4000000D03*
%TD*%
D11*
%TO.C,J5*%
X72360000Y19525000D03*
D12*
X73835000Y18000000D03*
X70885000Y18000000D03*
%TD*%
G36*
X244833942Y154979524D02*
G01*
X244921212Y154921212D01*
X244979524Y154833942D01*
X245000000Y154731000D01*
X245000000Y269000D01*
X244979524Y166058D01*
X244921212Y78788D01*
X244833942Y20476D01*
X244731000Y0D01*
X269000Y0D01*
X166058Y20476D01*
X78788Y78788D01*
X20476Y166058D01*
X0Y269000D01*
X0Y154731000D01*
X20476Y154833942D01*
X78788Y154921212D01*
X166058Y154979524D01*
X269000Y155000000D01*
X244731000Y155000000D01*
X244833942Y154979524D01*
G37*
%LPD*%
M02*
